<svg xmlns="http://www.w3.org/2000/svg" width="206.495" height="126.473" viewBox="0 0 206.495 126.473">
    <defs>
        <style>
            .info-vaccinations-1-a{fill:#fbd3b9;}
            .info-vaccinations-1-b{fill:#d6b6a0;}
            .info-vaccinations-1-c{fill:#fff;}
            .info-vaccinations-1-d{opacity:0.14;isolation:isolate;}
            .info-vaccinations-1-e{fill:sienna;}
            .info-vaccinations-1-f{fill:#a04a48;}
            .info-vaccinations-1-g{fill:#383433;}
            .info-vaccinations-1-h{fill:none;stroke:#050505;stroke-linecap:round;stroke-miterlimit:10;stroke-width:0.5px;}
            .info-vaccinations-1-i{fill:#0052a5;}
            .info-vaccinations-1-j{fill:#f9bfa0;}
            .info-vaccinations-1-k{fill:#e5edf6;}
            .info-vaccinations-1-l{fill:#438ad1;}
            .info-vaccinations-1-m{fill:#ea9475;}
            .info-vaccinations-1-o{fill:#f4ab8c;}
            .info-vaccinations-1-p{fill:#227cc6;}
            .info-vaccinations-1-q{fill:#dbbba9;}
        </style>
    </defs>
    <g transform="translate(-336.205 -414.784)">
        <path class="info-vaccinations-1-a" d="M511.031,451.913s-2.407,6.251-.872,7.957,5.247,2.519,5.247,2.519-1.375,13.662-12.375,11.563-9.58-5.191-9.58-5.191a39.779,39.779,0,0,0,.533-8.569c-.316-4.68,10.047-8.279,10.047-8.279Z"/>
        <path class="info-vaccinations-1-b" d="M511.216,452.148s-2.871,6.907-.871,7.956c.3,2.291-1.276,3.45-6.853,6.23-8.041,4.009-9.7,0-9.7,0s.162-1.806.381-5.907c.251-4.686,10.046-8.278,10.046-8.278Z"/>
        <path class="info-vaccinations-1-c" d="M515.456,462.161s-6.061,12.489-14.436,10.285-7.942-6.167-11.084-6.167-9.127,4.233-11.221,7.53c-3.9,6.132-12.437,30.779-15.384,28.3-5.235-4.4-8.979-17.619-8.979-17.619l-12.083,5.118s12.163,28.432,18.444,32.827,14.318-9.228,16.252-13.279c3.141-6.592,6.319-14.309,6.319-14.309s-.526,19.668-.844,27.352c-.28,6.76-1.058,13.889-1.72,19.054h41.736l2.643-52.326s1.685,9.072,4.039,18.129c3.14,12.085-13.62,34.2-13.62,34.2s9.461-.037,15.627-.037c4.465-9.457,11.555-24.014,11.555-33.06,0-14.284-8.561-38.448-13.958-41.371A57.8,57.8,0,0,0,515.456,462.161Z"/>
        <path class="info-vaccinations-1-a" d="M493.913,463.506c5.16.339,10.635-.474,17.423-7.373,6.781-8.3,6.737-10.064,6.737-10.064a37.615,37.615,0,0,0,2-5.248c1.131-3.557,2.3-7.193,0-8.4-2.263-1.179-1.956,2.356-1.956,2.356s0-13.047-6.781-13.047-19.214-2.372-22.6,8.3S487.431,461.8,493.913,463.506Z"/>
        <path class="info-vaccinations-1-d" d="M496.031,439.455s-4,8.4-3,10.5,5,1.05,5,1.05-4,0-4-2.1S496.031,439.455,496.031,439.455Z"/>
        <path class="info-vaccinations-1-e" d="M499.094,435.307c-.043-.921,4.175-1.21,6.326-.57,2.258.673,2.627,1.88,2.75,2.4a6.031,6.031,0,0,0-5.128-1.92C500.794,435.657,499.18,435.74,499.094,435.307Z"/>
        <path class="info-vaccinations-1-f" d="M492.031,455.2h8a4.248,4.248,0,0,0,3-1.05s-.9,3.149-6,3.149C491.031,457.3,492.031,455.2,492.031,455.2Z"/>
        <path class="info-vaccinations-1-e" d="M515.031,440.5s.827-.056,2-2.1c1.956-3.4,4-3.148,4-3.148s1.5-15.218-1.5-16.267-10.5-5.773-21.5-3.674c-2.486.475-7.529-.668-9.3.389-6.08,3.617-4.838,11.619-.2,13.02,6,1.81,11,2.859,17,.76s6-5.248,7,1.049A49.472,49.472,0,0,0,515.031,440.5Z"/>
        <path class="info-vaccinations-1-a" d="M516.5,438.548s1.116-4.341,3.7-4.341.862,7.242,0,9.048-5.173,6.334-5.173,2.715"/>
        <path class="info-vaccinations-1-b" d="M517.585,439.611s1.672-2.909,2.336-2.092-.456,6.058-1.957,6.7-.722-.06-.665-.818-1.329-1.634-.608-1.574,1.444.119,1.5-.638A2.724,2.724,0,0,0,517.585,439.611Z"/>
        <path class="info-vaccinations-1-c" d="M493.426,463.933c5.16.34,10.634-.474,17.423-7.373,6.781-8.3-24.346-16.944-24.179-11.737C486.96,453.921,489.307,462.845,493.426,463.933Z"/>
        <path class="info-vaccinations-1-c" d="M511.18,452.335c-.222-.224-.438-.464-.725-.719,1.858-.148,7.161-5.119,7.161-5.119S512.931,452.07,511.18,452.335Z"/>
        <path class="info-vaccinations-1-c" d="M505.272,447.7c-.221-.223-.437-.464-.724-.718,2.624-.187,10.483-6.477,10.483-6.477S507.518,447.7,505.272,447.7Z"/>
        <path class="info-vaccinations-1-e" d="M494.672,434.545c.172-.9-4-2.069-6.179-1.537-.463.149-1.105.254-1.4.725,0,0,.316-.973,3.668-.1C492.931,434.417,494.526,434.96,494.672,434.545Z"/>
        <ellipse class="info-vaccinations-1-g" cx="1.701" cy="1.305" rx="1.701" ry="1.305" transform="translate(489.526 439.667) rotate(-78.799)"/>
        <ellipse class="info-vaccinations-1-g" cx="1.713" cy="1.318" rx="1.713" ry="1.318" transform="translate(500.594 441.327) rotate(-76.032)"/>
        <path class="info-vaccinations-1-h" d="M503.413,438.605"/>
        <path class="info-vaccinations-1-h" d="M500.659,438.3"/>
        <path class="info-vaccinations-1-i" d="M522.467,541.021"/>
        <path class="info-vaccinations-1-i" d="M522.694,541.22"/>
        <path class="info-vaccinations-1-i" d="M539.237,541.021"/>
        <path class="info-vaccinations-1-j" d="M433.423,471.916s-3.031,3.4-2.691,4,2.258.774,3.866-1.446a25.811,25.811,0,0,1,5.63,2.456l-1.33-4.34Z"/>
        <path class="info-vaccinations-1-k" d="M429.924,463.451l1.53,11.834-.967.148-1.53-11.834Z"/>
        <path class="info-vaccinations-1-l" d="M428.179,455.519l.956,7.523h0l-.239.068h0l-1.007-7.919h0C428.022,455.154,428.151,455.3,428.179,455.519Z"/>
        <path class="info-vaccinations-1-i" d="M427.872,455.17h0l1.018,7.917h0l-.248.006h0l-.967-7.521C427.647,455.353,427.735,455.173,427.872,455.17Z"/><path class="info-vaccinations-1-m" d="M429.679,465.366a.124.124,0,0,1-.138-.113l.725-.111.017.132Zm-.138-.113a.131.131,0,0,1,.1-.15l.6-.092.017.131Z"/><path class="info-vaccinations-1-m" d="M429.815,466.418a.124.124,0,0,1-.138-.113l.725-.111.017.132Zm-.138-.113a.131.131,0,0,1,.1-.15l.6-.092.017.131Z"/><path class="info-vaccinations-1-m" d="M429.951,467.47a.124.124,0,0,1-.138-.113l.725-.111.017.132Zm-.138-.113a.131.131,0,0,1,.1-.15l.6-.092.017.131Z"/><path class="info-vaccinations-1-m" d="M430.087,468.522a.124.124,0,0,1-.138-.113l.725-.111.017.131Zm-.138-.113a.131.131,0,0,1,.1-.15l.6-.093.017.132Z"/><path class="info-vaccinations-1-m" d="M430.223,469.574a.125.125,0,0,1-.138-.113l.725-.111.017.131Zm-.138-.113a.131.131,0,0,1,.1-.15l.6-.093.017.132Z"/><path class="info-vaccinations-1-m" d="M430.359,470.626a.125.125,0,0,1-.138-.113l.725-.111.017.131Zm-.138-.113a.131.131,0,0,1,.1-.15l.6-.093.017.132Z"/><path class="info-vaccinations-1-m" d="M430.495,471.678a.125.125,0,0,1-.138-.113l.725-.111.017.131Zm-.138-.113a.131.131,0,0,1,.1-.15l.6-.093.017.132Z"/><path class="info-vaccinations-1-m" d="M430.631,472.73a.125.125,0,0,1-.138-.113l.725-.111.017.131Zm-.138-.113a.131.131,0,0,1,.1-.15l.6-.093.017.132Z"/><path class="info-vaccinations-1-m" d="M430.767,473.782a.125.125,0,0,1-.138-.113l.725-.111.017.131Zm-.138-.113a.131.131,0,0,1,.1-.15l.6-.093.017.132Z"/><path class="info-vaccinations-1-m" d="M428.957,463.6l1.53,11.834-.967.148-1.53-11.834Z"/><path class="info-vaccinations-1-k" d="M432.248,475.7h0a.527.527,0,0,1-.416.6l-1.209.184h0l-.136-1.052h0l1.209-.184A.5.5,0,0,1,432.248,475.7Z"/><path class="info-vaccinations-1-l" d="M431.107,476.411l.136,1.052-.484.074-.136-1.052Z"/><path class="info-vaccinations-1-l" d="M429.373,463l.068.526-.484.074-.068-.526Z"/><path class="info-vaccinations-1-i" d="M430.623,476.485l.136,1.052-.484.074-.136-1.052Z"/><path class="info-vaccinations-1-i" d="M428.889,463.073l.068.526-.484.074-.068-.526Z"/><path class="info-vaccinations-1-i" d="M429.377,478.285h0a.525.525,0,0,1,.415-.6l.967-.148h0l.136,1.052h0l-.967.148A.5.5,0,0,1,429.377,478.285Z"/><path class="info-vaccinations-1-m" d="M428.863,476.218h0a.525.525,0,0,1,.415-.6l1.209-.185h0l.136,1.052h0l-1.209.185A.5.5,0,0,1,428.863,476.218Z"/><path class="info-vaccinations-1-l" d="M432.278,477.841h0a.526.526,0,0,1-.416.6l-.967.148h0l-.136-1.052h0l.967-.148A.5.5,0,0,1,432.278,477.841Z"/><path class="info-vaccinations-1-n" d="M438.17,473.906s-3.192,3.6-2.639,5.741,1.534.534,1.534.534l1.78-3.338,4.48.167-1.9-2.5Z"/><path class="info-vaccinations-1-o" d="M435.483,473.5s-3.191,3.605-2.639,5.741,1.535.534,1.535.534l1.779-3.338,4.48.167-1.9-2.5Z"/><path class="info-vaccinations-1-a" d="M444.964,491.823a24.754,24.754,0,0,0,7.568-3.2c-3.871-5.114-9.092-16.108-9.092-16.108s-3.865-2.842-7.132-3.2-7.023,1.955-7.023,1.955-1.362,2.42,3.484,1.573a8.551,8.551,0,0,1,4.994.955s2.068,1.368,1.524,3.323-1.935,2.389-4.394,1.788a7.255,7.255,0,0,0-4.192-.711,1.357,1.357,0,0,0-1.089,1.895,20.455,20.455,0,0,0,4.355,1.422c1.906.3,3.755,3.055,4.954,4.145,1.152,1.047,3.835,2.183,4.809,3.425A16.714,16.714,0,0,1,444.964,491.823Z"/><path class="info-vaccinations-1-l" d="M395.251,524v15.867H349.245V473.069l20.246-2.245,20.671,5.863Z"/><path class="info-vaccinations-1-p" d="M365.382,476.866s-12.6,1.465-15.551,3.95-19.218,33.5-11.443,45.026c22.238.164,38.756-14.771,43.013-18.974-1.971-5.486-9.584-10.7-9.584-10.7L354.6,510.346s7.532-11.052,8.9-15.248C364.927,490.742,365.382,476.866,365.382,476.866Z"/><path class="info-vaccinations-1-l" d="M364.382,475.866s-12.6,1.465-15.551,3.95-18.218,34.5-10.443,46.026c22.238.164,36.743-16.445,41-20.649-1.971-5.486-8.571-10.023-8.571-10.023L353.6,509.346s7.532-11.052,8.9-15.248C363.927,489.742,364.382,475.866,364.382,475.866Z"/><path class="info-vaccinations-1-a" d="M389.639,494.382l13.851-2.171s5.99,16.24,4,21.273c-6.681,6.373-20.441,14.96-32.359,18.181-4.579-3.644-5.887-5.421-5.887-5.421L394.151,508.8Z"/><path class="info-vaccinations-1-a" d="M369.579,454.575l-2.237,18.713L386,475.866s-5.736-6.819-.836-10.7Z"/><path class="info-vaccinations-1-q" d="M369.491,454.575l15.671,10.591a5.1,5.1,0,0,0-1.754,2.468C374.539,465.7,369.491,454.575,369.491,454.575Z"/><path class="info-vaccinations-1-a" d="M396.7,428.779s10.092,27.039-8.581,37.942a51.06,51.06,0,0,1-19.609-13.562l2.965-21.245,11.609-11.172Z"/><path class="info-vaccinations-1-e" d="M396.953,429.142s-5.092,4.817-22.019,3.441c-.412,6.33-5.091,8.031-5.091,8.031l-.138,20.969s4.134,15.5,1.514,19.679c-3.945,6.3-21.158,14.466-27.661,10.872-5.913-3.268-5.505-14.175,8.67-25.6,11.005-11.351,5.019-13.387,4.128-17.89a11.244,11.244,0,0,1,3.165-10.173c3.441-3.726,2.705-11.755,5.643-15.7,2.676-3.593,11.45-8.945,17.767-7.844s10.857,2.752,14.022,6.881S396.953,429.142,396.953,429.142Z"/><path class="info-vaccinations-1-a" d="M371.091,441.465s-1.266-3.795-3.8-1.265-2.292,11.8.119,12.225,3.677-.839,3.677-2.1Z"/><path class="info-vaccinations-1-d" d="M393.393,453.707c0,2.1-4,2.1-4,2.1s4,1.049,5-1.05-3-10.5-3-10.5S393.393,451.608,393.393,453.707Z"/><path class="info-vaccinations-1-b" d="M369.365,445.6s-.759-3.163-1.63-2.619-1.318,5.665-.067,6.705.709.164.873-.544,1.746-1.087,1.038-1.251-1.416-.331-1.252-1.038A2.537,2.537,0,0,1,369.365,445.6Z"/><path class="info-vaccinations-1-c" d="M388.749,467.813c-5.364.06-13.629-8.517-13.629-8.517-2.618-1.878-3.8-3.988-5.36-7.072.387.435,3.438,4.613,6.159,5.978l-.412.57c.128-.165.27-.345.425-.57h-.013l5.4-7.422a25.95,25.95,0,0,1-10.889-10.651,26.343,26.343,0,0,0,11.714,9.511,40.555,40.555,0,0,0,17.356-1.484C400.844,451.065,394.113,467.753,388.749,467.813Z"/><ellipse class="info-vaccinations-1-g" cx="1.464" cy="2.14" rx="1.464" ry="2.14" transform="translate(384.081 439.9)"/><ellipse class="info-vaccinations-1-g" cx="1.323" cy="1.933" rx="1.323" ry="1.933" transform="translate(394.91 439.9)"/><path class="info-vaccinations-1-e" d="M385.445,438.071a6.2,6.2,0,0,0-5.128,1.829c.248-.529.562-1.477,2.75-2.288,2.1-.777,6.369-.335,6.326.543C389.307,438.567,387.693,438.488,385.445,438.071Z"/><path class="info-vaccinations-1-e" d="M399.005,437.5c-1.894-.524-5.156-.531-5.12.46.918.713,2.024-.648,4.664-.544"/><path class="info-vaccinations-1-a" d="M375.131,477.741"/><path class="info-vaccinations-1-e" d="M399.01,437.568c-1.813-.857-4.964-.894-5.131.322.669.84,2.041-.593,4.677-.419"/><path class="info-vaccinations-1-l" d="M371.932,473.624s1.368,1.149,14.066,1.242c11.506.085,15.082,6.285,15.082,6.285s2.8,6.969,2.672,11.863c-3.65,3.428-14.208,2.624-14.208,2.624l-2.535-9.338Z"/><path class="info-vaccinations-1-o" d="M356.991,532.811a1.17,1.17,0,0,0-.509,1.457c.257,1.165,3.009.244,3.654.029a34.07,34.07,0,0,0,3.741-1.9c.437-.258,7.949-1.649,7.949-1.649H361.4A44.23,44.23,0,0,0,356.991,532.811Z"/><path class="info-vaccinations-1-a" d="M369.244,526.244s-9.716-1.146-11.04-.935c-1.767.281-9.32,2.971-10.92,5.587-.249.406-.353,1.585,0,1.905,3.206.949,8.632-.68,11.48-1.136,4.287-.687,16.367,0,16.367,0Z"/><path class="info-vaccinations-1-a" d="M385.236,484.124"/><path class="info-vaccinations-1-a" d="M385.848,483.2c.939.264,2.156,2,2.4,2.947a12.809,12.809,0,0,1-.729,6.343c-1.468,3.16-9.2,10.476-9.2,10.476l-5.515-6.243.6-1.09s.224-4.874,1.714-7.746,2.655-.584,2.655-.584l-.67,5.142s3.4-7.206,5.138-8.314A7.205,7.205,0,0,1,385.848,483.2Z"/><path class="info-vaccinations-1-p" d="M403.564,490.259a7.364,7.364,0,0,1,.148,1.272c-2.178,2.895-13.968,2.565-13.968,2.565Z"/><path class="info-vaccinations-1-k" d="M505.223,472.386a4.98,4.98,0,0,1-2.523.313c-.035,8.494-.2,56.516-3.64,68.558,5.339,0,10.489-.236,10.489-.236Z"/></g></svg>
