<svg xmlns="http://www.w3.org/2000/svg" width="18.05" height="18.05" viewBox="0 0 18.05 18.05"><defs><style>.info-vaccinations-4-a{fill:#b1cff0;}</style></defs><g transform="translate(-37.94 -331)"><path class="info-vaccinations-4-a" d="M19.692,10.292a.357.357,0,0,0-.359.359v1H18.1a6.944,6.944,0,0,0-1.833-4.224l.956-.956.717.717a.344.344,0,0,0,.239.12.284.284,0,0,0,.239-.12.34.34,0,0,0,0-.518L16.464,4.713a.375.375,0,0,0-.518.04.34.34,0,0,0,0,.518l.717.717-1,1a6.806,6.806,0,0,0-4.224-1.793V3.717h1a.357.357,0,0,0,.359-.359c0-.2-.08-.359-.279-.359H9.77a.359.359,0,0,0,0,.717h1.036V5.152A7,7,0,0,0,6.582,6.945L5.467,5.829l.677-.677a.366.366,0,1,0-.518-.518L3.674,6.586a.34.34,0,0,0,0,.518.344.344,0,0,0,.239.12.284.284,0,0,0,.239-.12l.757-.8L6.024,7.423a6.684,6.684,0,0,0-1.793,4.224H2.717v-1a.359.359,0,0,0-.717,0V13.4a.359.359,0,1,0,.717,0V12.364H4.231a6.646,6.646,0,0,0,1.753,4.3l-1,1-.717-.717a.366.366,0,0,0-.518.518l1.952,1.952a.344.344,0,0,0,.239.12.284.284,0,0,0,.239-.12.34.34,0,0,0,0-.518l-.717-.717,1-1a6.949,6.949,0,0,0,4.343,1.833v1.315H9.77a.359.359,0,0,0,0,.717h2.749a.359.359,0,0,0,0-.717h-1V19.018a7,7,0,0,0,4.343-1.793l.837.837-.757.757a.34.34,0,0,0,0,.518.344.344,0,0,0,.239.12.284.284,0,0,0,.239-.12l1.952-1.952a.366.366,0,0,0-.518-.518l-.677.677-.837-.837A6.751,6.751,0,0,0,18.1,12.364h1.235V13.4a.359.359,0,0,0,.717,0V10.65A.385.385,0,0,0,19.692,10.292Zm-4.024,6.136c-.04,0-.04.04-.08.04l-.04.04a6.254,6.254,0,0,1-8.766,0c0-.04-.04-.08-.08-.12s-.08-.04-.12-.08A6.159,6.159,0,0,1,6.662,7.7c.04,0,.04-.04.08-.08s.04-.04.04-.08A6.2,6.2,0,0,1,17.3,12.005,5.713,5.713,0,0,1,15.667,16.428Z" transform="translate(35.94 328)"/><circle class="info-vaccinations-4-a" cx="1.235" cy="1.235" r="1.235" transform="translate(45.79 338.754)"/><path class="info-vaccinations-4-a" d="M18.676,17.352A1.076,1.076,0,1,0,17.6,16.276,1.1,1.1,0,0,0,18.676,17.352Z" transform="translate(26.556 320.565)"/><circle class="info-vaccinations-4-a" cx="1.076" cy="1.076" r="1.076" transform="translate(47.902 335.725)"/><circle class="info-vaccinations-4-a" cx="1.076" cy="1.076" r="1.076" transform="translate(49.735 338.953)"/><circle class="info-vaccinations-4-a" cx="1.076" cy="1.076" r="1.076" transform="translate(42.244 338.953)"/><path class="info-vaccinations-4-a" d="M18.676,31.5a1.076,1.076,0,1,0,1.076,1.076A1.071,1.071,0,0,0,18.676,31.5Z" transform="translate(26.556 310.76)"/><circle class="info-vaccinations-4-a" cx="1.076" cy="1.076" r="1.076" transform="translate(47.902 342.22)"/></g></svg>
