<svg xmlns="http://www.w3.org/2000/svg" width="36.101" height="36.101" viewBox="0 0 36.101 36.101"><defs>
    <style>
        .info-vaccinations-3-a{fill:#b1cff0;}
    </style></defs><g transform="translate(-37.94 -331)"><path class="info-vaccinations-3-a" d="M37.383,17.584a.714.714,0,0,0-.717.717v1.992H34.2a13.888,13.888,0,0,0-3.666-8.447l1.913-1.913,1.434,1.434a.689.689,0,0,0,.478.239.568.568,0,0,0,.478-.239.681.681,0,0,0,0-1.036l-3.9-3.9a.751.751,0,0,0-1.036.08.681.681,0,0,0,0,1.036l1.434,1.434-1.992,1.992a13.612,13.612,0,0,0-8.447-3.586V4.434h1.992a.714.714,0,0,0,.717-.717c0-.4-.159-.717-.558-.717h-5.5a.717.717,0,0,0,0,1.434h2.072V7.3a14.006,14.006,0,0,0-8.447,3.586L8.933,8.658,10.288,7.3a.681.681,0,0,0,0-1.036.681.681,0,0,0-1.036,0l-3.9,3.9a.681.681,0,0,0,0,1.036.689.689,0,0,0,.478.239.568.568,0,0,0,.478-.239L7.818,9.614l2.231,2.231a13.367,13.367,0,0,0-3.586,8.447H3.434V18.3A.717.717,0,0,0,2,18.3v5.5a.717.717,0,1,0,1.434,0V21.728H6.463a13.292,13.292,0,0,0,3.506,8.607L7.977,32.327,6.542,30.892a.679.679,0,0,0-1.036,0,.681.681,0,0,0,0,1.036l3.9,3.9a.689.689,0,0,0,.478.239.568.568,0,0,0,.478-.239.681.681,0,0,0,0-1.036L8.933,33.363l1.992-1.992a13.9,13.9,0,0,0,8.686,3.666v2.63H17.54a.717.717,0,0,0,0,1.434h5.5a.717.717,0,0,0,0-1.434H21.046v-2.63a14.01,14.01,0,0,0,8.686-3.586l1.674,1.674-1.514,1.514a.681.681,0,0,0,0,1.036.689.689,0,0,0,.478.239.568.568,0,0,0,.478-.239l3.9-3.9a.733.733,0,1,0-1.036-1.036l-1.355,1.355-1.674-1.674A13.5,13.5,0,0,0,34.2,21.728h2.47V23.8a.717.717,0,0,0,1.434,0V18.3A.77.77,0,0,0,37.383,17.584ZM29.334,29.856c-.08,0-.08.08-.159.08l-.08.08a12.507,12.507,0,0,1-17.532,0c0-.08-.08-.159-.159-.239s-.159-.08-.239-.159A12.317,12.317,0,0,1,11.324,12.4c.08,0,.08-.08.159-.159s.08-.08.08-.159A12.4,12.4,0,0,1,32.6,21.01,11.426,11.426,0,0,1,29.334,29.856Z" transform="translate(35.94 328)"/><circle class="info-vaccinations-3-a" cx="2.47" cy="2.47" r="2.47" transform="translate(53.64 346.507)"/><path class="info-vaccinations-3-a" d="M19.752,19.5A2.152,2.152,0,1,0,17.6,17.352,2.195,2.195,0,0,0,19.752,19.5Z" transform="translate(32.772 325.33)"/><circle class="info-vaccinations-3-a" cx="2.152" cy="2.152" r="2.152" transform="translate(57.864 340.45)"/><circle class="info-vaccinations-3-a" cx="2.152" cy="2.152" r="2.152" transform="translate(61.529 346.906)"/><circle class="info-vaccinations-3-a" cx="2.152" cy="2.152" r="2.152" transform="translate(46.547 346.906)"/><path class="info-vaccinations-3-a" d="M19.752,31.5A2.152,2.152,0,1,0,21.9,33.652,2.143,2.143,0,0,0,19.752,31.5Z" transform="translate(32.772 322.02)"/><circle class="info-vaccinations-3-a" cx="2.152" cy="2.152" r="2.152" transform="translate(57.864 353.44)"/></g></svg>
