<svg xmlns="http://www.w3.org/2000/svg" width="57.521" height="69.921" viewBox="0 0 57.521 69.921">
    <defs>
        <style>
            .info-vaccinations-5-a{fill:#e5edf6;}
            .info-vaccinations-5-b{fill:#438ad1;}
            .info-vaccinations-5-c,
            .info-vaccinations-5-d{fill:#aec8d9;}
            .info-vaccinations-5-d{stroke:#0052a5;}
            .info-vaccinations-5-e{fill:#0052a5;}
            .info-vaccinations-5-f{fill:#e73755;}
            .info-vaccinations-5-g{stroke:none;}
            .info-vaccinations-5-h{fill:none;}
        </style>
    </defs>
    <g transform="matrix(0.602, -0.799, 0.799, 0.602, -8280.353, -13972.743)"><rect class="info-vaccinations-5-a" width="45" height="4" transform="translate(-6205 15062)"/><path class="info-vaccinations-5-b" d="M1,0H20a0,0,0,0,1,0,0V1a0,0,0,0,1,0,0H0A0,0,0,0,1,0,1V1A1,1,0,0,1,1,0Z" transform="translate(-6225 15065)"/><g transform="translate(-1.5)"><path class="info-vaccinations-5-c" d="M.5,1A.5.5,0,0,1,0,.5H3V1ZM0,.5A.5.5,0,0,1,.5,0H3V.5Z" transform="translate(-6197.5 15064.5) rotate(-90)"/><path class="info-vaccinations-5-c" d="M.5,1A.5.5,0,0,1,0,.5H3V1ZM0,.5A.5.5,0,0,1,.5,0H3V.5Z" transform="translate(-6193.5 15064.5) rotate(-90)"/><path class="info-vaccinations-5-c" d="M.5,1A.5.5,0,0,1,0,.5H3V1ZM0,.5A.5.5,0,0,1,.5,0H3V.5Z" transform="translate(-6189.5 15064.5) rotate(-90)"/><path class="info-vaccinations-5-c" d="M.5,1A.5.5,0,0,1,0,.5H3V1ZM0,.5A.5.5,0,0,1,.5,0H3V.5Z" transform="translate(-6185.5 15064.5) rotate(-90)"/><path class="info-vaccinations-5-c" d="M.5,1A.5.5,0,0,1,0,.5H3V1ZM0,.5A.5.5,0,0,1,.5,0H3V.5Z" transform="translate(-6181.5 15064.5) rotate(-90)"/><path class="info-vaccinations-5-c" d="M.5,1A.5.5,0,0,1,0,.5H3V1ZM0,.5A.5.5,0,0,1,.5,0H3V.5Z" transform="translate(-6177.5 15064.5) rotate(-90)"/><path class="info-vaccinations-5-c" d="M.5,1A.5.5,0,0,1,0,.5H3V1ZM0,.5A.5.5,0,0,1,.5,0H3V.5Z" transform="translate(-6173.5 15064.5) rotate(-90)"/><path class="info-vaccinations-5-c" d="M.5,1A.5.5,0,0,1,0,.5H3V1ZM0,.5A.5.5,0,0,1,.5,0H3V.5Z" transform="translate(-6169.5 15064.5) rotate(-90)"/><path class="info-vaccinations-5-c" d="M.5,1A.5.5,0,0,1,0,.5H3V1ZM0,.5A.5.5,0,0,1,.5,0H3V.5Z" transform="translate(-6165.5 15064.5) rotate(-90)"/></g><g class="info-vaccinations-5-d" transform="translate(-6225 15066)"><path class="info-vaccinations-5-g" d="M0,0H20a0,0,0,0,1,0,0V1a0,0,0,0,1,0,0H1A1,1,0,0,1,0,0V0A0,0,0,0,1,0,0Z"/><path class="info-vaccinations-5-h" d="M.5.5h19a0,0,0,0,1,0,0v0a0,0,0,0,1,0,0H.5a0,0,0,0,1,0,0v0A0,0,0,0,1,.5.5Z"/></g><rect class="info-vaccinations-5-c" width="45" height="4" transform="translate(-6205 15066)"/><path class="info-vaccinations-5-a" d="M2,0H2A2,2,0,0,1,4,2V7A0,0,0,0,1,4,7H0A0,0,0,0,1,0,7V2A2,2,0,0,1,2,0Z" transform="translate(-6160 15059)"/><path class="info-vaccinations-5-b" d="M2,0H2A2,2,0,0,1,4,2V6A0,0,0,0,1,4,6H0A0,0,0,0,1,0,6V2A2,2,0,0,1,2,0Z" transform="translate(-6152 15060)"/><path class="info-vaccinations-5-c" d="M2,0H2A2,2,0,0,1,4,2V7A0,0,0,0,1,4,7H0A0,0,0,0,1,0,7V2A2,2,0,0,1,2,0Z" transform="translate(-6156 15073) rotate(180)"/><path class="info-vaccinations-5-e" d="M2,0H2A2,2,0,0,1,4,2V6A0,0,0,0,1,4,6H0A0,0,0,0,1,0,6V2A2,2,0,0,1,2,0Z" transform="translate(-6148 15072) rotate(180)"/><rect class="info-vaccinations-5-b" width="4" height="2" transform="translate(-6156 15064)"/><rect class="info-vaccinations-5-b" width="2" height="2" transform="translate(-6207 15064)"/><rect class="info-vaccinations-5-e" width="4" height="2" transform="translate(-6156 15066)"/><rect class="info-vaccinations-5-e" width="2" height="2" transform="translate(-6207 15066)"/></g><rect class="info-vaccinations-5-f" width="4.504" height="10.031" transform="translate(44.632 47.234)"/><rect class="info-vaccinations-5-f" width="4.504" height="10.031" transform="translate(41.868 54.502) rotate(-90)"/></svg>
