<svg xmlns="http://www.w3.org/2000/svg" width="22.028" height="22.028" viewBox="0 0 22.028 22.028"><defs>
    <style>
        .info-vaccinations-2-a {fill:#b1cff0;}
    </style></defs><g transform="translate(-37.94 -331)"><path class="info-vaccinations-2-a" d="M23.591,11.9a.436.436,0,0,0-.438.438v1.216H21.646A8.474,8.474,0,0,0,19.409,8.4l1.167-1.167.875.875a.42.42,0,0,0,.292.146.347.347,0,0,0,.292-.146.415.415,0,0,0,0-.632L19.652,5.091a.458.458,0,0,0-.632.049.415.415,0,0,0,0,.632l.875.875L18.679,7.863a8.306,8.306,0,0,0-5.155-2.188v-1.8H14.74a.436.436,0,0,0,.438-.438c0-.243-.1-.438-.34-.438H11.482a.438.438,0,1,0,0,.875h1.264V5.626A8.546,8.546,0,0,0,7.592,7.814L6.231,6.453l.827-.827a.447.447,0,0,0-.632-.632L4.042,7.376a.415.415,0,0,0,0,.632.42.42,0,0,0,.292.146.347.347,0,0,0,.292-.146l.924-.973L6.911,8.4a8.156,8.156,0,0,0-2.188,5.155H2.875V12.337a.438.438,0,0,0-.875,0v3.355a.438.438,0,1,0,.875,0V14.427H4.723a8.111,8.111,0,0,0,2.14,5.252L5.647,20.895l-.875-.875a.415.415,0,0,0-.632,0,.415.415,0,0,0,0,.632l2.383,2.383a.42.42,0,0,0,.292.146.347.347,0,0,0,.292-.146.415.415,0,0,0,0-.632l-.875-.875,1.216-1.216a8.481,8.481,0,0,0,5.3,2.237v1.6H11.482a.438.438,0,0,0,0,.875h3.355a.438.438,0,0,0,0-.875H13.622v-1.6a8.549,8.549,0,0,0,5.3-2.188l1.021,1.021-.924.924a.415.415,0,0,0,0,.632.42.42,0,0,0,.292.146.347.347,0,0,0,.292-.146l2.383-2.383a.447.447,0,0,0-.632-.632l-.827.827-1.021-1.021a8.238,8.238,0,0,0,2.14-5.3h1.507v1.264a.438.438,0,1,0,.875,0V12.337A.47.47,0,0,0,23.591,11.9Zm-4.911,7.489c-.049,0-.049.049-.1.049l-.049.049a7.632,7.632,0,0,1-10.7,0c0-.049-.049-.1-.1-.146s-.1-.049-.146-.1a7.516,7.516,0,0,1,.1-10.5c.049,0,.049-.049.1-.1s.049-.049.049-.1A7.565,7.565,0,0,1,20.673,13.99,6.972,6.972,0,0,1,18.679,19.388Z" transform="translate(35.94 328)"/><circle class="info-vaccinations-2-a" cx="1.507" cy="1.507" r="1.507" transform="translate(47.52 340.462)"/><path class="info-vaccinations-2-a" d="M18.913,17.826A1.313,1.313,0,1,0,17.6,16.513,1.339,1.339,0,0,0,18.913,17.826Z" transform="translate(27.926 321.615)"/><circle class="info-vaccinations-2-a" cx="1.313" cy="1.313" r="1.313" transform="translate(50.097 336.766)"/><circle class="info-vaccinations-2-a" cx="1.313" cy="1.313" r="1.313" transform="translate(52.334 340.705)"/><circle class="info-vaccinations-2-a" cx="1.313" cy="1.313" r="1.313" transform="translate(43.192 340.705)"/><path class="info-vaccinations-2-a" d="M18.913,31.5a1.313,1.313,0,1,0,1.313,1.313A1.307,1.307,0,0,0,18.913,31.5Z" transform="translate(27.926 313.242)"/><circle class="info-vaccinations-2-a" cx="1.313" cy="1.313" r="1.313" transform="translate(50.097 344.693)"/></g></svg>
