<svg id="_001-care" data-name="001-care" xmlns="http://www.w3.org/2000/svg" width="26.631" height="22.514" viewBox="0 0 26.631 22.514">
  <g id="Group_309" data-name="Group 309" transform="translate(0 12.664)">
    <g id="Group_308" data-name="Group 308">
      <path id="Path_1049" data-name="Path 1049" d="M15.893,289.687H13.875a.52.52,0,1,0,0,1.04h2.018a.565.565,0,1,1,0,1.13H10.46a2.733,2.733,0,0,1-2.107-.988l-1.3-1.562a3.768,3.768,0,0,0-2.8-1.36v-3.072H6.172a3.608,3.608,0,0,1,2.518,1.017l2.8,2.706a.511.511,0,0,1-.7.744l-2.2-2.018a.52.52,0,0,0-.7.767l2.2,2.018a1.551,1.551,0,0,0,2.125-2.259l-2.8-2.706a4.643,4.643,0,0,0-3.24-1.309H4.156a1.291,1.291,0,0,0-1.188-.789H.52a.52.52,0,0,0-.52.52v3.8a.52.52,0,1,0,1.04,0v-3.283H2.968a.249.249,0,0,1,.249.249V288.5a.249.249,0,0,1-.249.249h-.54a.52.52,0,0,0,0,1.04h.54a1.291,1.291,0,0,0,1.2-.808,2.733,2.733,0,0,1,2.091.987l1.3,1.562A3.77,3.77,0,0,0,10.46,292.9h5.432a1.6,1.6,0,1,0,0-3.21Z" transform="translate(0 -283.046)" fill="#605e5e"/>
    </g>
  </g>
  <g id="Group_311" data-name="Group 311" transform="translate(9.133)">
    <g id="Group_310" data-name="Group 310">
      <path id="Path_1050" data-name="Path 1050" d="M192.568,44.372a.52.52,0,0,0-.52.52v3.486h-1.928a.249.249,0,0,1-.249-.249V43.961a.249.249,0,0,1,.249-.249h.5a.52.52,0,0,0,0-1.04h-.5a1.291,1.291,0,0,0-1.2.808,2.733,2.733,0,0,1-2.091-.987l-1.3-1.561a3.77,3.77,0,0,0-2.906-1.363h-5.432a1.6,1.6,0,1,0,0,3.21h2.221a.52.52,0,1,0,0-1.04h-2.221a.565.565,0,1,1,0-1.13h5.432a2.733,2.733,0,0,1,2.107.988l1.3,1.561a3.768,3.768,0,0,0,2.8,1.36v3.072h-1.915a3.608,3.608,0,0,1-2.518-1.017l-2.8-2.706a.511.511,0,0,1,.7-.744l2.2,2.018a.52.52,0,1,0,.7-.767L183,42.355a1.551,1.551,0,0,0-2.125,2.259l2.8,2.706a4.643,4.643,0,0,0,3.24,1.309h2.016a1.291,1.291,0,0,0,1.188.789h2.448a.52.52,0,0,0,.52-.52V44.892A.52.52,0,0,0,192.568,44.372Z" transform="translate(-175.59 -39.568)" fill="#605e5e"/>
    </g>
  </g>
  <g id="Group_313" data-name="Group 313" transform="translate(15.792 17.382)">
    <g id="Group_312" data-name="Group 312">
      <path id="Path_1051" data-name="Path 1051" d="M304.616,374.058a.525.525,0,1,0-.272.693l.011,0A.521.521,0,0,0,304.616,374.058Z" transform="translate(-303.617 -373.752)" fill="#605e5e"/>
    </g>
  </g>
  <g id="Group_315" data-name="Group 315" transform="translate(17.144 16.602)">
    <g id="Group_314" data-name="Group 314">
      <path id="Path_1052" data-name="Path 1052" d="M330.544,358.968a.522.522,0,1,0-.114.73l.006,0A.518.518,0,0,0,330.544,358.968Z" transform="translate(-329.603 -358.757)" fill="#605e5e"/>
    </g>
  </g>
  <g id="Group_317" data-name="Group 317" transform="translate(14.304 17.86)">
    <g id="Group_316" data-name="Group 316">
      <path id="Path_1053" data-name="Path 1053" d="M276.05,383.352a.525.525,0,1,0-.416.619l.015,0A.519.519,0,0,0,276.05,383.352Z" transform="translate(-275.016 -382.94)" fill="#605e5e"/>
    </g>
  </g>
  <g id="Group_319" data-name="Group 319" transform="translate(18.299 15.548)">
    <g id="Group_318" data-name="Group 318">
      <path id="Path_1054" data-name="Path 1054" d="M352.691,338.621a.52.52,0,0,0-.734.038l-.011.012a.52.52,0,1,0,.745-.05Zm-.29.439-.058-.052.063.057Z" transform="translate(-351.819 -338.487)" fill="#605e5e"/>
    </g>
  </g>
  <g id="Group_321" data-name="Group 321" transform="translate(19.823 12.841)">
    <g id="Group_320" data-name="Group 320">
      <path id="Path_1055" data-name="Path 1055" d="M381.781,286.465a.522.522,0,1,0,.345.654l0-.007A.519.519,0,0,0,381.781,286.465Z" transform="translate(-381.109 -286.443)" fill="#605e5e"/>
    </g>
  </g>
  <g id="Group_323" data-name="Group 323" transform="translate(20.128 9.746)">
    <g id="Group_322" data-name="Group 322">
      <path id="Path_1056" data-name="Path 1056" d="M388.012,227.372l0-.02a.524.524,0,1,0,0,.02Z" transform="translate(-386.979 -226.939)" fill="#605e5e"/>
    </g>
  </g>
  <g id="Group_325" data-name="Group 325" transform="translate(20.118 11.305)">
    <g id="Group_324" data-name="Group 324">
      <path id="Path_1057" data-name="Path 1057" d="M387.35,256.925a.521.521,0,0,0-.564.472c0,.005,0,.015,0,.02a.52.52,0,0,0,.489.55h.031a.523.523,0,0,0,.046-1.043Z" transform="translate(-386.783 -256.923)" fill="#605e5e"/>
    </g>
  </g>
  <g id="Group_327" data-name="Group 327" transform="translate(19.206 14.275)">
    <g id="Group_326" data-name="Group 326">
      <path id="Path_1058" data-name="Path 1058" d="M370.038,314.092a.52.52,0,0,0-.709.2l-.007.013a.521.521,0,0,0,.457.771.516.516,0,0,0,.455-.27l-.452-.257.452.256A.52.52,0,0,0,370.038,314.092Z" transform="translate(-369.259 -314.024)" fill="#605e5e"/>
    </g>
  </g>
  <g id="Group_329" data-name="Group 329" transform="translate(9.565 4.151)">
    <g id="Group_328" data-name="Group 328">
      <path id="Path_1059" data-name="Path 1059" d="M184.886,119.657a.52.52,0,0,0-.7-.233l0,0a.52.52,0,1,0,.7.23Z" transform="translate(-183.898 -119.37)" fill="#605e5e"/>
    </g>
  </g>
  <g id="Group_331" data-name="Group 331" transform="translate(11.026 3.607)">
    <g id="Group_330" data-name="Group 330">
      <path id="Path_1060" data-name="Path 1060" d="M213.019,109.316a.52.52,0,0,0-.628-.383l-.012,0a.52.52,0,1,0,.64.38Z" transform="translate(-211.987 -108.918)" fill="#605e5e"/>
    </g>
  </g>
  <g id="Group_333" data-name="Group 333" transform="translate(8.249 4.995)">
    <g id="Group_332" data-name="Group 332">
      <path id="Path_1061" data-name="Path 1061" d="M159.528,135.788a.521.521,0,0,0-.731-.079l.322.408-.324-.407a.52.52,0,0,0,.648.814l.007-.006A.519.519,0,0,0,159.528,135.788Z" transform="translate(-158.599 -135.595)" fill="#605e5e"/>
    </g>
  </g>
  <g id="Group_335" data-name="Group 335" transform="translate(5.747 8.87)">
    <g id="Group_334" data-name="Group 334">
      <path id="Path_1062" data-name="Path 1062" d="M111.145,210.125a.52.52,0,0,0-.639.365l0,.019a.52.52,0,1,0,.644-.384Z" transform="translate(-110.487 -210.106)" fill="#605e5e"/>
    </g>
  </g>
  <g id="Group_337" data-name="Group 337" transform="translate(5.523 10.416)">
    <g id="Group_336" data-name="Group 336">
      <path id="Path_1063" data-name="Path 1063" d="M106.741,239.825a.52.52,0,0,0-.549.489c0,.007,0,.013,0,.02a.52.52,0,0,0,.5.535h.016a.523.523,0,0,0,.03-1.044Z" transform="translate(-106.191 -239.824)" fill="#605e5e"/>
    </g>
  </g>
  <g id="Group_339" data-name="Group 339" transform="translate(6.295 7.408)">
    <g id="Group_338" data-name="Group 338">
      <path id="Path_1064" data-name="Path 1064" d="M121.8,182.049a.52.52,0,0,0-.7.219l-.008.017a.52.52,0,1,0,.711-.236Z" transform="translate(-121.037 -181.989)" fill="#605e5e"/>
    </g>
  </g>
  <g id="Group_341" data-name="Group 341" transform="translate(7.143 6.096)">
    <g id="Group_340" data-name="Group 340">
      <path id="Path_1065" data-name="Path 1065" d="M138.195,156.893a.52.52,0,0,0-.732.068l-.011.013a.52.52,0,1,0,.743-.081Z" transform="translate(-137.339 -156.773)" fill="#605e5e"/>
    </g>
  </g>
  <g id="Group_343" data-name="Group 343" transform="translate(5.629 11.974)">
    <g id="Group_342" data-name="Group 342">
      <path id="Path_1066" data-name="Path 1066" d="M109.262,270.219a.52.52,0,0,0-1.024.183v.005a.517.517,0,0,0,.51.426.528.528,0,0,0,.093-.008A.522.522,0,0,0,109.262,270.219Z" transform="translate(-108.23 -269.791)" fill="#605e5e"/>
    </g>
  </g>
  <g id="Group_345" data-name="Group 345" transform="translate(9.184 8.455)">
    <g id="Group_344" data-name="Group 344">
      <path id="Path_1067" data-name="Path 1067" d="M182.483,202.125a2.408,2.408,0,0,0-1.751.75,2.416,2.416,0,1,0-3.3,3.52l.01.008,2.964,2.346a.52.52,0,0,0,.647,0l3.089-2.461a.513.513,0,0,0,.043-.039,2.415,2.415,0,0,0-1.705-4.125Zm.99,3.37-2.742,2.184-2.634-2.086a1.375,1.375,0,1,1,2.155-1.578.52.52,0,0,0,.961,0,1.375,1.375,0,1,1,2.26,1.48Z" transform="translate(-176.566 -202.125)" fill="#605e5e"/>
    </g>
  </g>
  <g id="Group_347" data-name="Group 347" transform="translate(0.002 18.372)">
    <g id="Group_346" data-name="Group 346">
      <ellipse id="Ellipse_1" data-name="Ellipse 1" cx="0.518" cy="0.518" rx="0.518" ry="0.518" fill="#605e5e"/>
    </g>
  </g>
  <g id="Group_349" data-name="Group 349" transform="translate(25.592 3.106)">
    <g id="Group_348" data-name="Group 348">
      <ellipse id="Ellipse_2" data-name="Ellipse 2" cx="0.518" cy="0.518" rx="0.518" ry="0.518" fill="#605e5e"/>
    </g>
  </g>
</svg>
