<svg id="_002-laptop" data-name="002-laptop" xmlns="http://www.w3.org/2000/svg" width="26.631" height="19.911" viewBox="0 0 26.631 19.911">
  <g id="Group_351" data-name="Group 351" transform="translate(7.046 8.707)">
    <g id="Group_350" data-name="Group 350">
      <ellipse id="Ellipse_3" data-name="Ellipse 3" cx="0.52" cy="0.52" rx="0.52" ry="0.52" fill="#605e5e"/>
    </g>
  </g>
  <g id="Group_353" data-name="Group 353" transform="translate(10.016 10.441)">
    <g id="Group_352" data-name="Group 352">
      <ellipse id="Ellipse_4" data-name="Ellipse 4" cx="0.52" cy="0.52" rx="0.52" ry="0.52" fill="#605e5e"/>
    </g>
  </g>
  <g id="Group_355" data-name="Group 355" transform="translate(12.975 7.217)">
    <g id="Group_354" data-name="Group 354">
      <ellipse id="Ellipse_5" data-name="Ellipse 5" cx="0.52" cy="0.52" rx="0.52" ry="0.52" fill="#605e5e"/>
    </g>
  </g>
  <g id="Group_357" data-name="Group 357" transform="translate(15.875 8.5)">
    <g id="Group_356" data-name="Group 356">
      <ellipse id="Ellipse_6" data-name="Ellipse 6" cx="0.52" cy="0.52" rx="0.52" ry="0.52" fill="#605e5e"/>
    </g>
  </g>
  <g id="Group_359" data-name="Group 359" transform="translate(18.742 4.827)">
    <g id="Group_358" data-name="Group 358">
      <ellipse id="Ellipse_7" data-name="Ellipse 7" cx="0.52" cy="0.52" rx="0.52" ry="0.52" fill="#605e5e"/>
    </g>
  </g>
  <g id="Group_361" data-name="Group 361">
    <g id="Group_360" data-name="Group 360">
      <path id="Path_1068" data-name="Path 1068" d="M26.11,80.2H15.577a.52.52,0,0,0-.52.52.878.878,0,0,1-.878.878H12.437a.878.878,0,0,1-.878-.878.52.52,0,0,0-.52-.52H2.852V66.729a1.1,1.1,0,0,1,1.1-1.1H22.682a1.1,1.1,0,0,1,1.1,1.1V76.742a.52.52,0,1,0,1.04,0V66.729a2.139,2.139,0,0,0-2.137-2.137H3.948a2.139,2.139,0,0,0-2.137,2.137V80.2H.52a.52.52,0,0,0-.52.52v.817A2.967,2.967,0,0,0,2.964,84.5h20.7a2.967,2.967,0,0,0,2.964-2.964v-.817A.52.52,0,0,0,26.11,80.2Zm-.52,1.337a1.926,1.926,0,0,1-1.923,1.923H2.964A1.926,1.926,0,0,1,1.04,81.54v-.3h9.551a1.921,1.921,0,0,0,1.846,1.4h1.742a1.921,1.921,0,0,0,1.846-1.4H25.59Z" transform="translate(0 -64.592)" fill="#605e5e"/>
    </g>
  </g>
  <g id="Group_363" data-name="Group 363" transform="translate(4.12 2.219)">
    <g id="Group_362" data-name="Group 362">
      <path id="Path_1069" data-name="Path 1069" d="M97.258,107.246H79.732a.52.52,0,0,0-.52.52v11.2a.52.52,0,0,0,.52.52H97.258a.52.52,0,0,0,.52-.52v-11.2A.52.52,0,0,0,97.258,107.246Zm-.52,11.2H94.875v-6.233a.52.52,0,1,0-1.04,0v6.233H91.95v-2.314a.52.52,0,0,0-1.04,0v2.314H89.026v-3.516a.52.52,0,0,0-1.04,0v3.516H86.1v-.5a.52.52,0,0,0-1.04,0v.5H83.178v-2.063a.52.52,0,1,0-1.04,0v2.063H80.252V108.286H96.738Z" transform="translate(-79.212 -107.246)" fill="#605e5e"/>
    </g>
  </g>
  <g id="Group_365" data-name="Group 365" transform="translate(23.717 13.663)">
    <g id="Group_364" data-name="Group 364">
      <ellipse id="Ellipse_8" data-name="Ellipse 8" cx="0.52" cy="0.52" rx="0.52" ry="0.52" fill="#605e5e"/>
    </g>
  </g>
</svg>
