<svg id="_003-idea" data-name="003-idea" xmlns="http://www.w3.org/2000/svg" width="20.289" height="26.631" viewBox="0 0 20.289 26.631">
  <g id="Group_367" data-name="Group 367" transform="translate(9.7 25.587)">
    <g id="Group_366" data-name="Group 366">
      <ellipse id="Ellipse_9" data-name="Ellipse 9" cx="0.522" cy="0.522" rx="0.522" ry="0.522" fill="#605e5e"/>
    </g>
  </g>
  <g id="Group_369" data-name="Group 369" transform="translate(9.7 15.67)">
    <g id="Group_368" data-name="Group 368">
      <ellipse id="Ellipse_10" data-name="Ellipse 10" cx="0.522" cy="0.522" rx="0.522" ry="0.522" fill="#605e5e"/>
    </g>
  </g>
  <g id="Group_371" data-name="Group 371" transform="translate(0 9.233)">
    <g id="Group_370" data-name="Group 370">
      <ellipse id="Ellipse_11" data-name="Ellipse 11" cx="0.522" cy="0.522" rx="0.522" ry="0.522" fill="#605e5e"/>
    </g>
  </g>
  <g id="Group_373" data-name="Group 373" transform="translate(19.245 9.233)">
    <g id="Group_372" data-name="Group 372">
      <ellipse id="Ellipse_12" data-name="Ellipse 12" cx="0.522" cy="0.522" rx="0.522" ry="0.522" fill="#605e5e"/>
    </g>
  </g>
  <g id="Group_375" data-name="Group 375" transform="translate(18.05 4.477)">
    <g id="Group_374" data-name="Group 374">
      <ellipse id="Ellipse_13" data-name="Ellipse 13" cx="0.522" cy="0.522" rx="0.522" ry="0.522" fill="#605e5e"/>
    </g>
  </g>
  <g id="Group_377" data-name="Group 377" transform="translate(15.146 1.231)">
    <g id="Group_376" data-name="Group 376">
      <ellipse id="Ellipse_14" data-name="Ellipse 14" cx="0.522" cy="0.522" rx="0.522" ry="0.522" fill="#605e5e"/>
    </g>
  </g>
  <g id="Group_379" data-name="Group 379" transform="translate(9.613)">
    <g id="Group_378" data-name="Group 378">
      <ellipse id="Ellipse_15" data-name="Ellipse 15" cx="0.522" cy="0.522" rx="0.522" ry="0.522" fill="#605e5e"/>
    </g>
  </g>
  <g id="Group_381" data-name="Group 381" transform="translate(4.456 1.231)">
    <g id="Group_380" data-name="Group 380">
      <ellipse id="Ellipse_16" data-name="Ellipse 16" cx="0.522" cy="0.522" rx="0.522" ry="0.522" fill="#605e5e"/>
    </g>
  </g>
  <g id="Group_383" data-name="Group 383" transform="translate(1.347 4.477)">
    <g id="Group_382" data-name="Group 382">
      <ellipse id="Ellipse_17" data-name="Ellipse 17" cx="0.522" cy="0.522" rx="0.522" ry="0.522" fill="#605e5e"/>
    </g>
  </g>
  <g id="Group_385" data-name="Group 385" transform="translate(2.625 2.181)">
    <g id="Group_384" data-name="Group 384">
      <path id="Path_1070" data-name="Path 1070" d="M124.365,44.121a7.6,7.6,0,1,0-10.439,11.036,3.361,3.361,0,0,1,1.1,2.486v1.044a1.841,1.841,0,0,0,.812,1.526v2.528a1.717,1.717,0,0,0,1.715,1.715h2.963a1.717,1.717,0,0,0,1.715-1.715V60.213a1.841,1.841,0,0,0,.812-1.526V57.643a3.388,3.388,0,0,1,1.108-2.5,7.6,7.6,0,0,0,.218-11.025ZM121.184,62.74a.672.672,0,0,1-.672.672h-2.963a.672.672,0,0,1-.672-.672V60.529h4.306Zm2.26-8.365A4.434,4.434,0,0,0,122,57.643v1.044a.8.8,0,0,1-.8.8h-1.645V57.762a.522.522,0,0,0-1.044,0v1.723h-1.645a.8.8,0,0,1-.8-.8V57.643a4.407,4.407,0,0,0-1.438-3.259,6.553,6.553,0,0,1,4.309-11.406h.094a6.553,6.553,0,0,1,4.412,11.4Z" transform="translate(-111.434 -41.934)" fill="#605e5e"/>
    </g>
  </g>
  <g id="Group_387" data-name="Group 387" transform="translate(5.129 4.662)">
    <g id="Group_386" data-name="Group 386">
      <path id="Path_1071" data-name="Path 1071" d="M164.675,89.631a5.1,5.1,0,0,0-5.093,5.093.522.522,0,0,0,1.044,0,4.049,4.049,0,1,1,8.1,0,.522.522,0,0,0,1.044,0A5.1,5.1,0,0,0,164.675,89.631Z" transform="translate(-159.582 -89.631)" fill="#605e5e"/>
    </g>
  </g>
  <g id="Group_389" data-name="Group 389" transform="translate(6.856 7.878)">
    <g id="Group_388" data-name="Group 388">
      <path id="Path_1072" data-name="Path 1072" d="M199.5,156.8a3.377,3.377,0,0,0-1.945-2.333,1.877,1.877,0,1,0-2.945.06A3.37,3.37,0,0,0,192.8,156.8a.522.522,0,0,0,.184.522,5.092,5.092,0,0,0,6.338,0A.522.522,0,0,0,199.5,156.8Zm-3.441-4.3a.833.833,0,1,1-.833.833A.834.834,0,0,1,196.06,152.5Zm.088,4.883a4,4,0,0,1-2.238-.674,2.422,2.422,0,0,1,4.477,0A4,4,0,0,1,196.148,157.384Z" transform="translate(-192.783 -151.458)" fill="#605e5e"/>
    </g>
  </g>
</svg>
