<svg id="_004-group" data-name="004-group" xmlns="http://www.w3.org/2000/svg" width="26.63" height="26.252" viewBox="0 0 26.63 26.252">
  <g id="Group_391" data-name="Group 391" transform="translate(6.37)">
    <g id="Group_390" data-name="Group 390">
      <path id="Path_1073" data-name="Path 1073" d="M124.7,3.638a2.235,2.235,0,1,0,2.235,2.235A2.237,2.237,0,0,0,124.7,3.638Zm0,3.429a1.194,1.194,0,1,1,1.194-1.194A1.2,1.2,0,0,1,124.7,7.067Z" transform="translate(-122.462 -3.638)" fill="#605e5e"/>
    </g>
  </g>
  <g id="Group_393" data-name="Group 393" transform="translate(16.502)">
    <g id="Group_392" data-name="Group 392">
      <path id="Path_1074" data-name="Path 1074" d="M319.513,3.638a2.235,2.235,0,1,0,2.235,2.235A2.237,2.237,0,0,0,319.513,3.638Zm0,3.429a1.194,1.194,0,1,1,1.194-1.194A1.2,1.2,0,0,1,319.513,7.067Z" transform="translate(-317.278 -3.638)" fill="#605e5e"/>
    </g>
  </g>
  <g id="Group_395" data-name="Group 395" transform="translate(0 2.78)">
    <g id="Group_394" data-name="Group 394">
      <path id="Path_1075" data-name="Path 1075" d="M26.11,79.512H23.445L23.421,68.37a.52.52,0,0,0-.52-.519h0a.52.52,0,0,0-.519.521l.024,11.14H19.175l-.024-12.173a.518.518,0,0,0-.009-.091v-.588a4.994,4.994,0,0,0-.231-1.507,3.753,3.753,0,0,1,1.813-.466h.008a3.723,3.723,0,0,1,2.6,1.041,3.471,3.471,0,0,1,1.078,2.506l.008,2.323a.52.52,0,0,0,.52.518h0a.52.52,0,0,0,.518-.522l-.008-2.322a4.5,4.5,0,0,0-1.4-3.252,4.724,4.724,0,0,0-1.686-1.048,2.476,2.476,0,0,0-1.78-4.2h-.005a2.477,2.477,0,0,0-1.742,4.232l.047.045q-.2.083-.394.185A5.219,5.219,0,0,0,15.6,61.8a2.739,2.739,0,1,0-3.691.075,5.217,5.217,0,0,0-2.683,2.3,4.75,4.75,0,0,0-.562-.246,2.477,2.477,0,1,0-3.478.071A4.6,4.6,0,0,0,2.3,68.24v2.323a.52.52,0,0,0,1.04,0V68.24a3.624,3.624,0,0,1,3.682-3.554,3.755,3.755,0,0,1,1.792.45,4.993,4.993,0,0,0-.236,1.523V79.512H5.436V68.376a.52.52,0,0,0-1.04,0V79.512H.52a.52.52,0,0,0,0,1.04H26.11a.52.52,0,0,0,0-1.04ZM20.589,60.773h0a1.437,1.437,0,0,1,0,2.873h0a1.437,1.437,0,0,1,0-2.873ZM6.89,63.646a1.437,1.437,0,1,1,1.437-1.437A1.438,1.438,0,0,1,6.89,63.646Zm6.824-5.526a1.7,1.7,0,1,1-1.7,1.7A1.7,1.7,0,0,1,13.714,58.12ZM10.955,79.512H9.613v-6.4a2.624,2.624,0,0,0,1.342.5Zm5.362-13.219a.52.52,0,0,0-.52.52v12.7H14.3v-6.28a.52.52,0,0,0-1.04,0v6.28H12v-12.7a.52.52,0,1,0-1.04,0v5.748a1.521,1.521,0,0,1-1.342-1.482V66.659a3.959,3.959,0,0,1,.31-1.54v0a4.3,4.3,0,0,1,7.875.017,3.958,3.958,0,0,1,.3,1.526v4.419a1.517,1.517,0,0,1-1.265,1.47V66.813A.52.52,0,0,0,16.317,66.293Zm.52,13.219V73.6a2.622,2.622,0,0,0,1.285-.507l.013,6.42Z" transform="translate(0 -57.08)" fill="#605e5e"/>
    </g>
  </g>
  <g id="Group_397" data-name="Group 397" transform="translate(24.422 17.78)">
    <g id="Group_396" data-name="Group 396">
      <ellipse id="Ellipse_18" data-name="Ellipse 18" cx="0.52" cy="0.52" rx="0.52" ry="0.52" fill="#605e5e"/>
    </g>
  </g>
  <g id="Group_399" data-name="Group 399" transform="translate(2.295 17.78)">
    <g id="Group_398" data-name="Group 398">
      <ellipse id="Ellipse_19" data-name="Ellipse 19" cx="0.52" cy="0.52" rx="0.52" ry="0.52" fill="#605e5e"/>
    </g>
  </g>
</svg>
