<svg id="_005-panel" data-name="005-panel" xmlns="http://www.w3.org/2000/svg" width="25.992" height="26.63" viewBox="0 0 25.992 26.63">
  <g id="Group_401" data-name="Group 401">
    <g id="Group_400" data-name="Group 400">
      <path id="Path_1076" data-name="Path 1076" d="M31.676,4.093,29.913,2.608a.52.52,0,0,0-.335-.122H21.564V1.406A1.407,1.407,0,0,0,20.158,0H18.131a1.407,1.407,0,0,0-1.406,1.406v1.08H13.964a.52.52,0,0,0-.52.52V7.148a.52.52,0,0,0,.52.52h2.762V9.234H8.7a.52.52,0,0,0-.335.122L6.6,10.842a1.286,1.286,0,0,0,0,1.966l1.763,1.486a.52.52,0,0,0,.335.122h8.03V25.59H14.6a.52.52,0,1,0,0,1.04h9.083a.52.52,0,0,0,0-1.04H21.564V18.253a.52.52,0,1,0-1.04,0V25.59H17.766V14.416H24.31a.52.52,0,0,0,.52-.52V9.754a.52.52,0,0,0-.52-.52H21.564V7.668h8.014a.52.52,0,0,0,.335-.122L31.676,6.06a1.286,1.286,0,0,0,0-1.966ZM17.766,1.406h0a.366.366,0,0,1,.365-.365h2.027a.366.366,0,0,1,.365.365v1.08H17.766Zm6.023,8.868v3.1H8.886L7.269,12.013a.246.246,0,0,1,0-.376l1.617-1.363h14.9Zm-6.023-1.04V7.668h2.757V9.234ZM31.005,5.264,29.388,6.628H17.3l-.052,0-.052,0H14.484v-3.1h14.9l1.617,1.363a.245.245,0,0,1,0,.376Z" transform="translate(-6.141 0)" fill="#605e5e"/>
    </g>
  </g>
  <g id="Group_403" data-name="Group 403" transform="translate(12.484 4.481)">
    <g id="Group_402" data-name="Group 402">
      <ellipse id="Ellipse_20" data-name="Ellipse 20" cx="0.52" cy="0.52" rx="0.52" ry="0.52" fill="#605e5e"/>
    </g>
  </g>
  <g id="Group_405" data-name="Group 405" transform="translate(12.484 11.304)">
    <g id="Group_404" data-name="Group 404">
      <ellipse id="Ellipse_21" data-name="Ellipse 21" cx="0.52" cy="0.52" rx="0.52" ry="0.52" fill="#605e5e"/>
    </g>
  </g>
  <g id="Group_407" data-name="Group 407" transform="translate(14.383 15.432)">
    <g id="Group_406" data-name="Group 406">
      <ellipse id="Ellipse_22" data-name="Ellipse 22" cx="0.52" cy="0.52" rx="0.52" ry="0.52" fill="#605e5e"/>
    </g>
  </g>
</svg>
