<svg id="_006-idea-1" data-name="006-idea-1" xmlns="http://www.w3.org/2000/svg" width="19.259" height="26.63" viewBox="0 0 19.259 26.63">
  <g id="Group_409" data-name="Group 409" transform="translate(3.554 3.517)">
    <g id="Group_408" data-name="Group 408">
      <path id="Path_1077" data-name="Path 1077" d="M148.045,69.12a5.208,5.208,0,1,0-7.156,7.566,2.053,2.053,0,0,1,.669,1.518V78.9a1.393,1.393,0,0,0,.538,1.1v1.587a1.312,1.312,0,0,0,1.311,1.311h1.963a1.312,1.312,0,0,0,1.311-1.311V80a1.393,1.393,0,0,0,.538-1.1V78.2a2.07,2.07,0,0,1,.677-1.525,5.208,5.208,0,0,0,.15-7.558ZM145.37,81.852h-1.963a.271.271,0,0,1-.271-.271V80.291h2.5v1.291h0A.271.271,0,0,1,145.37,81.852Zm1.825-5.942a3.112,3.112,0,0,0-1.017,2.294V78.9a.355.355,0,0,1-.354.354h-2.871a.355.355,0,0,1-.354-.354V78.2a3.1,3.1,0,0,0-1.01-2.289,4.168,4.168,0,0,1,2.741-7.254h.06a4.168,4.168,0,0,1,2.806,7.249Z" transform="translate(-139.18 -67.621)" fill="#605e5e"/>
    </g>
  </g>
  <g id="Group_411" data-name="Group 411">
    <g id="Group_410" data-name="Group 410">
      <path id="Path_1078" data-name="Path 1078" d="M89.925,13.7,88.31,10.748V8.725a8.725,8.725,0,1,0-17.451,0v1.5a8.96,8.96,0,0,0,1.62,5.16v4.295a.52.52,0,1,0,1.04,0V15.218a.52.52,0,0,0-.1-.306A7.928,7.928,0,0,1,71.9,10.224v-1.5a7.685,7.685,0,1,1,15.37,0v2.156a.52.52,0,0,0,.064.25l1.68,3.068a.513.513,0,0,1-.449.759h0l-.769,0a.514.514,0,0,0-.369.152.52.52,0,0,0-.153.369V17.8a2.252,2.252,0,0,1-2.25,2.25H83.458a1.287,1.287,0,0,0-1.285,1.285v3.976L75.1,22.128a.52.52,0,0,0-.427.949l7.8,3.508a.52.52,0,0,0,.733-.474v-4.78a.245.245,0,0,1,.245-.245H85.02a3.294,3.294,0,0,0,3.29-3.29V16h.254a1.553,1.553,0,0,0,1.362-2.3Z" transform="translate(-70.859)" fill="#605e5e"/>
    </g>
  </g>
  <g id="Group_413" data-name="Group 413" transform="translate(1.667 21.195)">
    <g id="Group_412" data-name="Group 412">
      <ellipse id="Ellipse_23" data-name="Ellipse 23" cx="0.52" cy="0.52" rx="0.52" ry="0.52" fill="#605e5e"/>
    </g>
  </g>
</svg>
