<svg id="_008-settings" data-name="008-settings" xmlns="http://www.w3.org/2000/svg" width="26.63" height="26.63" viewBox="0 0 26.63 26.63">
  <g id="Group_433" data-name="Group 433">
    <g id="Group_432" data-name="Group 432">
      <path id="Path_1087" data-name="Path 1087" d="M24.628,9.869h0l-1.166-.138a10.762,10.762,0,0,0-.438-1.055l.727-.922a2.145,2.145,0,0,0,0-2.837L21.714,2.883a2.145,2.145,0,0,0-2.837,0l-.922.727A10.733,10.733,0,0,0,16.9,3.169L16.761,2a2.145,2.145,0,0,0-2.009-2H11.878A2.145,2.145,0,0,0,9.869,2L9.731,3.169a10.737,10.737,0,0,0-1.055.437l-.922-.727a2.145,2.145,0,0,0-2.837,0L2.884,4.916a2.145,2.145,0,0,0,0,2.837l.727.922a10.74,10.74,0,0,0-.438,1.055L2,9.869a2.145,2.145,0,0,0-2,2.009v2.875a2.144,2.144,0,0,0,2,2.009l1.166.138a10.734,10.734,0,0,0,.437,1.056l-.727.922a2.144,2.144,0,0,0,0,2.837l2.033,2.033a2.145,2.145,0,0,0,2.837,0l.922-.727a10.741,10.741,0,0,0,1.056.438l.138,1.166a2.144,2.144,0,0,0,2.009,2h2.875a2.145,2.145,0,0,0,2.009-2l.138-1.166a10.717,10.717,0,0,0,1.056-.438l.922.727a2.145,2.145,0,0,0,2.837,0l2.033-2.033a2.144,2.144,0,0,0,0-2.837l-.727-.922a10.734,10.734,0,0,0,.437-1.056l1.166-.138a2.145,2.145,0,0,0,2-2.009V11.878A2.144,2.144,0,0,0,24.628,9.869Zm.963,4.884a1.116,1.116,0,0,1-1.085.976l-1.493.177a.52.52,0,0,0-.435.359,9.687,9.687,0,0,1-.628,1.515A.52.52,0,0,0,22,18.34l.931,1.181a1.116,1.116,0,0,1,.077,1.457l-2.033,2.033a1.116,1.116,0,0,1-1.457-.077L18.341,22a.52.52,0,0,0-.561-.053,9.689,9.689,0,0,1-1.515.628.52.52,0,0,0-.359.435l-.177,1.493a1.116,1.116,0,0,1-.976,1.085H11.878a1.116,1.116,0,0,1-.976-1.085l-.177-1.493a.52.52,0,0,0-.359-.435,9.689,9.689,0,0,1-1.515-.628A.52.52,0,0,0,8.29,22l-1.181.931a1.116,1.116,0,0,1-1.457.077L3.619,20.978A1.116,1.116,0,0,1,3.7,19.521l.931-1.181a.52.52,0,0,0,.053-.561,9.692,9.692,0,0,1-.628-1.515.52.52,0,0,0-.435-.359l-1.493-.177a1.116,1.116,0,0,1-1.085-.976V11.878A1.116,1.116,0,0,1,2.125,10.9l1.493-.177a.52.52,0,0,0,.435-.359,9.684,9.684,0,0,1,.628-1.515.52.52,0,0,0-.053-.561L3.7,7.109a1.116,1.116,0,0,1-.077-1.457L5.652,3.619A1.116,1.116,0,0,1,7.109,3.7l1.181.931a.52.52,0,0,0,.561.053,9.684,9.684,0,0,1,1.515-.628.52.52,0,0,0,.359-.435L10.9,2.125a1.116,1.116,0,0,1,.976-1.085h2.875a1.116,1.116,0,0,1,.976,1.085L15.9,3.618a.52.52,0,0,0,.359.435,9.68,9.68,0,0,1,1.515.628.52.52,0,0,0,.561-.053L19.521,3.7a1.116,1.116,0,0,1,1.457-.077l2.033,2.033a1.116,1.116,0,0,1-.077,1.457L22,8.29a.52.52,0,0,0-.053.561,9.684,9.684,0,0,1,.628,1.515.52.52,0,0,0,.435.359l1.493.177h0a1.116,1.116,0,0,1,1.085.976Z" fill="#605e5e"/>
    </g>
  </g>
  <g id="Group_435" data-name="Group 435" transform="translate(8.095 8.095)">
    <g id="Group_434" data-name="Group 434">
      <path id="Path_1088" data-name="Path 1088" d="M160.864,155.644a5.22,5.22,0,1,0,5.22,5.22A5.226,5.226,0,0,0,160.864,155.644Zm0,9.4a4.18,4.18,0,1,1,4.18-4.18A4.184,4.184,0,0,1,160.864,165.043Z" transform="translate(-155.644 -155.644)" fill="#605e5e"/>
    </g>
  </g>
  <g id="Group_437" data-name="Group 437" transform="translate(15.029 12.795)">
    <g id="Group_436" data-name="Group 436">
      <path id="Path_1089" data-name="Path 1089" d="M294.74,246a.52.52,0,0,0-.52.52,6.958,6.958,0,0,1-4.911,6.676.52.52,0,1,0,.309.993,8.1,8.1,0,0,0,4.047-2.864,7.963,7.963,0,0,0,1.6-4.8A.52.52,0,0,0,294.74,246Z" transform="translate(-288.943 -246.003)" fill="#605e5e"/>
    </g>
  </g>
  <g id="Group_439" data-name="Group 439" transform="translate(12.688 20.193)">
    <g id="Group_438" data-name="Group 438">
      <ellipse id="Ellipse_25" data-name="Ellipse 25" cx="0.52" cy="0.52" rx="0.52" ry="0.52" fill="#605e5e"/>
    </g>
  </g>
</svg>
