<svg id="ikona_czat" data-name="ikona / czat" xmlns="http://www.w3.org/2000/svg" width="16.778" height="17.261" viewBox="0 0 16.778 17.261">
  <path id="Path_596" data-name="Path 596" d="M14.888,24.961l-.483-.747,4.392-2.9h2.2a3.243,3.243,0,0,0,3.25-3.25V11.829a3.243,3.243,0,0,0-3.25-3.25H12.429a3.243,3.243,0,0,0-3.25,3.25v6.281a3.243,3.243,0,0,0,3.25,3.25h2.152v.878H12.429A4.124,4.124,0,0,1,8.3,18.109V11.829A4.124,4.124,0,0,1,12.429,7.7h8.521a4.124,4.124,0,0,1,4.129,4.129v6.281a4.124,4.124,0,0,1-4.129,4.129H19.017Z" transform="translate(-8.3 -7.7)" fill="#fff"/>
  <circle id="Ellipse_112" data-name="Ellipse 112" cx="0.747" cy="0.747" r="0.747" transform="translate(4.568 6.325)" fill="#fff"/>
  <circle id="Ellipse_113" data-name="Ellipse 113" cx="0.747" cy="0.747" r="0.747" transform="translate(7.642 6.325)" fill="#fff"/>
  <circle id="Ellipse_114" data-name="Ellipse 114" cx="0.747" cy="0.747" r="0.747" transform="translate(10.497 6.325)" fill="#fff"/>
</svg>
