<svg id="and-step-3" xmlns="http://www.w3.org/2000/svg" width="57.576" height="92.121" viewBox="0 0 57.576 92.121">
  <path id="Path_1090" data-name="Path 1090" d="M101.8,43.6a1.8,1.8,0,1,0-1.8-1.8A1.8,1.8,0,0,0,101.8,43.6Zm0,0" transform="translate(-82.008 -32.803)" fill="#238366"/>
  <path id="Path_1091" data-name="Path 1091" d="M5.4,92.121h46.78a5.4,5.4,0,0,0,5.4-5.4V5.4a5.4,5.4,0,0,0-5.4-5.4H5.4A5.4,5.4,0,0,0,0,5.4V86.723A5.4,5.4,0,0,0,5.4,92.121ZM53.977,74.129H3.6V17.992H53.977Zm-1.8,14.394H5.4a1.8,1.8,0,0,1-1.8-1.8v-9H53.977v9A1.8,1.8,0,0,1,52.178,88.523ZM5.4,3.6h46.78a1.8,1.8,0,0,1,1.8,1.8v9H3.6v-9A1.8,1.8,0,0,1,5.4,3.6Zm0,0" fill="#238366"/>
  <path id="Path_1092" data-name="Path 1092" d="M132.595,452H121.8a1.8,1.8,0,1,0,0,3.6h10.8a1.8,1.8,0,1,0,0-3.6Zm0,0" transform="translate(-98.409 -370.674)" fill="#238366"/>
  <path id="Path_1093" data-name="Path 1093" d="M141.8,43.6h10.8a1.8,1.8,0,0,0,0-3.6H141.8a1.8,1.8,0,1,0,0,3.6Zm0,0" transform="translate(-114.811 -32.803)" fill="#238366"/>
  <g id="Group_443" data-name="Group 443" transform="translate(11.591 28.897)">
    <path id="Path_81" data-name="Path 81" d="M152.373-39.081l-.986.569-.986.569v-.474h-5.041a.028.028,0,0,0-.019.009.028.028,0,0,0-.009.019v3.039a.029.029,0,0,0,.009.019.028.028,0,0,0,.019.009h4.5v4.5a.028.028,0,0,0,.009.019.029.029,0,0,0,.019.009h3.039a.027.027,0,0,0,.019-.009.028.028,0,0,0,.009-.019v-1.56l1.33-1.083v2.643a1.354,1.354,0,0,1-.4.96,1.355,1.355,0,0,1-.96.4h-3.039a1.355,1.355,0,0,1-.96-.4,1.354,1.354,0,0,1-.4-.96v-3.173h-3.173a1.355,1.355,0,0,1-.96-.4,1.355,1.355,0,0,1-.4-.96v-3.039a1.354,1.354,0,0,1,.4-.96,1.355,1.355,0,0,1,.96-.4H150.4v-.473l.986.569Z" transform="translate(-144.001 44.278)" fill="#4b89bc" fill-rule="evenodd"/>
    <path id="Path_82" data-name="Path 82" d="M168.676-58.381V-60.96a1.355,1.355,0,0,1,.4-.96,1.354,1.354,0,0,1,.96-.4h3.039a1.354,1.354,0,0,1,.96.4,1.355,1.355,0,0,1,.4.96v3.173H177.6a1.354,1.354,0,0,1,.96.4,1.354,1.354,0,0,1,.4.96v3.039a1.354,1.354,0,0,1-.4.96,1.354,1.354,0,0,1-.96.4h-5.053v.473l-.986-.569-.986-.569.986-.569.986-.569v.473H177.6a.028.028,0,0,0,.019-.009.028.028,0,0,0,.009-.019v-3.039a.028.028,0,0,0-.009-.019.028.028,0,0,0-.019-.009h-4.5v-4.5a.028.028,0,0,0-.009-.019.027.027,0,0,0-.019-.009h-3.039a.028.028,0,0,0-.019.009.029.029,0,0,0-.009.019v1.646Z" transform="translate(-164.145 62.318)" fill="#4b89bc" fill-rule="evenodd"/>
  </g>
  <rect id="Rectangle_201" data-name="Rectangle 201" width="13" height="13" rx="5" transform="translate(32 30.061)" fill="#238366"/>
  <rect id="Rectangle_202" data-name="Rectangle 202" width="13" height="13" rx="5" transform="translate(32 49.061)" fill="#238366"/>
  <rect id="Rectangle_203" data-name="Rectangle 203" width="13" height="13" rx="5" transform="translate(12 49.061)" fill="#238366"/>
</svg>
