<svg id="and-step-1" xmlns="http://www.w3.org/2000/svg" width="57.576" height="92.121" viewBox="0 0 57.576 92.121">
  <path id="Path_1090" data-name="Path 1090" d="M101.8,43.6a1.8,1.8,0,1,0-1.8-1.8A1.8,1.8,0,0,0,101.8,43.6Zm0,0" transform="translate(-82.008 -32.803)" fill="#78d8bb"/>
  <path id="Path_1095" data-name="Path 1095" d="M106.29,52.58A6.29,6.29,0,1,0,100,46.29,6.293,6.293,0,0,0,106.29,52.58Zm0,0" transform="translate(-60.499 -20.294)" fill="#4b89bc"/>
  <path id="Path_1091" data-name="Path 1091" d="M5.4,92.121h46.78a5.4,5.4,0,0,0,5.4-5.4V5.4a5.4,5.4,0,0,0-5.4-5.4H5.4A5.4,5.4,0,0,0,0,5.4V86.723A5.4,5.4,0,0,0,5.4,92.121ZM53.977,74.129H3.6V17.992H53.977Zm-1.8,14.394H5.4a1.8,1.8,0,0,1-1.8-1.8v-9H53.977v9A1.8,1.8,0,0,1,52.178,88.523ZM5.4,3.6h46.78a1.8,1.8,0,0,1,1.8,1.8v9H3.6v-9A1.8,1.8,0,0,1,5.4,3.6Zm0,0" fill="#78d8bb"/>
  <path id="Path_1092" data-name="Path 1092" d="M132.595,452H121.8a1.8,1.8,0,1,0,0,3.6h10.8a1.8,1.8,0,1,0,0-3.6Zm0,0" transform="translate(-98.409 -370.674)" fill="#78d8bb"/>
  <path id="Path_1093" data-name="Path 1093" d="M141.8,43.6h10.8a1.8,1.8,0,0,0,0-3.6H141.8a1.8,1.8,0,1,0,0,3.6Zm0,0" transform="translate(-114.811 -32.803)" fill="#78d8bb"/>
  <path id="Path_1094" data-name="Path 1094" d="M50,156.714A10.714,10.714,0,1,0,60.714,146,10.713,10.713,0,0,0,50,156.714Zm10.714-8.766c.736,0,1.75,1.357,2.374,3.9H58.34C58.964,149.305,59.977,147.948,60.714,147.948Zm2.735,5.844a22.9,22.9,0,0,1,0,5.844H57.979a22.9,22.9,0,0,1,0-5.844Zm5.532,0a8.808,8.808,0,0,1,0,5.844H65.411a24.855,24.855,0,0,0,0-5.844Zm-8.267,11.688c-.736,0-1.75-1.358-2.374-3.9h4.747C62.463,164.121,61.45,165.479,60.714,165.479Zm-4.7-5.844H52.447a8.811,8.811,0,0,1,0-5.845h3.569a24.865,24.865,0,0,0,0,5.845Zm-2.592,1.948H56.34a13.419,13.419,0,0,0,1.109,3.265A8.767,8.767,0,0,1,53.424,161.583Zm10.553,3.265a13.423,13.423,0,0,0,1.109-3.266H68A8.767,8.767,0,0,1,63.978,164.848Zm4.026-13H65.087a13.419,13.419,0,0,0-1.109-3.265A8.767,8.767,0,0,1,68,151.844ZM57.45,148.579a13.418,13.418,0,0,0-1.109,3.265H53.424A8.767,8.767,0,0,1,57.45,148.579Zm0,0" transform="translate(-31.926 -110.653)" fill="#78d8bb"/>
</svg>
