<svg xmlns="http://www.w3.org/2000/svg" width="17.981" height="19.615" viewBox="0 0 17.981 19.615">
  <g id="Group_866" data-name="Group 866" transform="translate(-333.84 -45.154)">
    <path id="Path_635" data-name="Path 635" d="M20.826,17.5a8.689,8.689,0,0,1-1.515-1.768,7.621,7.621,0,0,1-.815-2.9V9.846a6.523,6.523,0,0,0-5.7-6.487V2.581a.806.806,0,1,0-1.611,0v.79A6.523,6.523,0,0,0,5.56,9.846v2.981a7.621,7.621,0,0,1-.815,2.9A8.689,8.689,0,0,1,3.255,17.5a.6.6,0,0,0-.205.453v.821a.6.6,0,0,0,.6.6H20.428a.6.6,0,0,0,.6-.6v-.821A.6.6,0,0,0,20.826,17.5Z" transform="translate(330.79 43.379)" fill="#e5edf6"/>
    <path id="Path_636" data-name="Path 636" d="M16.937,33.376A1.611,1.611,0,0,0,18.494,32H15.32a1.611,1.611,0,0,0,1.617,1.376Z" transform="translate(325.924 31.393)" fill="#fff"/>
  </g>
</svg>
