<svg xmlns="http://www.w3.org/2000/svg" width="30" height="30" viewBox="0 0 30 30">
  <g id="Group_866" data-name="Group 866" transform="translate(-328 -41)">
    <path id="Path_637" data-name="Path 637" d="M15,0A15,15,0,1,1,0,15,15,15,0,0,1,15,0Z" transform="translate(328 41)" fill="#fff" opacity="0.9"/>
    <g id="ikona_powiadomienie" transform="translate(333.84 45.154)">
      <path id="Path_635" data-name="Path 635" d="M20.826,17.5a8.689,8.689,0,0,1-1.515-1.768,7.621,7.621,0,0,1-.815-2.9V9.846a6.523,6.523,0,0,0-5.7-6.487V2.581a.806.806,0,1,0-1.611,0v.79A6.523,6.523,0,0,0,5.56,9.846v2.981a7.621,7.621,0,0,1-.815,2.9A8.689,8.689,0,0,1,3.255,17.5a.6.6,0,0,0-.205.453v.821a.6.6,0,0,0,.6.6H20.428a.6.6,0,0,0,.6-.6v-.821A.6.6,0,0,0,20.826,17.5Zm-16.521.67a9.757,9.757,0,0,0,1.472-1.81,8.592,8.592,0,0,0,1-3.53V9.846a5.274,5.274,0,1,1,10.541,0v2.981a8.592,8.592,0,0,0,1,3.53,9.757,9.757,0,0,0,1.472,1.81Z" transform="translate(-3.05 -1.775)" fill="#0052a5"/>
      <path id="Path_636" data-name="Path 636" d="M16.937,33.376A1.611,1.611,0,0,0,18.494,32H15.32a1.611,1.611,0,0,0,1.617,1.376Z" transform="translate(-7.916 -13.761)" fill="#0052a5"/>
    </g>
  </g>
</svg>
