<svg xmlns="http://www.w3.org/2000/svg" width="127" height="71.605" viewBox="0 0 127 71.605"><defs><style>.a_current-restrictions,.b_current-restrictions,.c_current-restrictions{fill:rgba(0,0,0,0);stroke:#0075e2;stroke-linecap:round;stroke-width:2px;}.a_current-restrictions,.c_current-restrictions{stroke-linejoin:round;}.c_current-restrictions,.d_current-restrictions{fill-rule:evenodd;}.d_current-restrictions{fill:#0075e2;}.e_current-restrictions{fill:#d5233f;}.f_current-restrictions{fill:#eba828;}</style></defs><g transform="translate(-149 -216)"><g transform="translate(-343 3002)"><g transform="translate(493 -2785)"><path class="a_current-restrictions" d="M33.2,6.363l-.431-2.872C32.624,2.343,33.2,2.2,27.311,3.2S20.419,4.64,17.978,6.076c-2.585,1.436-5.6,2.01-10.338,4.451-3.733,1.867-5.026,2.585-5.313,4.882s1.436,5.026,0,6.892-1.436,4.738,0,5.313,1.579,1.867,1.436,3.733.144,6.462.144,7.9c0,1.292,2.3,5.169,1.867,6.462s-.574,1.579-.718,2.01,8.615,4.451,9.477,5.169,2.441,2.585,3.59,3.015,1.292,1.005,3.015,1.005c1.867,0,3.59.431,6.892,3.877s4.595,2.585,5.6,3.446c1.005,1.005,1.292,3.59,3.015,3.733s2.154-.287,3.3,1.005c1.292,1.292,3.59,1.149,6.174,1.149S49.568,68.968,51,68.824s2.585-1.292,6.318.574,5.313,2.585,7.754,2.728,1.149-.862.862-2.728a9.909,9.909,0,0,1,1.579-7.179c1.579-2.154,4.02-5.6,5.169-6.462s3.59-1.723,2.585-4.595S69.957,43.122,70.1,39.388s1.149-4.882.144-6.031.144-2.154,1.149-5.456.144-6.318-.431-10.051c-.574-3.59-.431-6.031-2.585-7.467" transform="translate(-1.25 -2.532)"/><path class="b_current-restrictions" d="M9.8,0" transform="translate(45.697 52.077)"/></g><g transform="translate(523.508 -2785)"><path class="c_current-restrictions" d="M15.989.5.5,27.33H31.48Zm0,8.554v9.709" transform="translate(-0.499 -0.5)"/><path class="d_current-restrictions" d="M54.123,78.079a1,1,0,1,1-1-1,1,1,0,0,1,1,1" transform="translate(-37.636 -55.584)"/></g></g><path class="e_current-restrictions" d="M6,0A6,6,0,1,1,0,6,6,6,0,0,1,6,0Z" transform="translate(243 223)"/><circle class="e_current-restrictions" cx="6" cy="6" r="6" transform="translate(238 271)"/><circle class="f_current-restrictions" cx="7" cy="7" r="7" transform="translate(262 246)"/></g></svg>