<svg xmlns="http://www.w3.org/2000/svg" width="89" height="89" viewBox="0 0 89 89"><defs><style>.a_dziennik_zdrowia{fill:#438ad1;}.b_dziennik_zdrowia{fill:#fff;}.c_dziennik_zdrowia{fill:#d5233f;}.d_dziennik_zdrowia{fill:#e5edf6;}</style></defs><g transform="translate(-27 -797)"><circle class="a_dziennik_zdrowia" cx="44.5" cy="44.5" r="44.5" transform="translate(27 797)"/><g transform="translate(1 1)"><path class="b_dziennik_zdrowia" d="M0,53a6.977,6.977,0,0,1,2-4.9V7A5,5,0,1,1,12,7V48.1A7,7,0,1,1,0,53Z" transform="translate(64 810)"/><path class="c_dziennik_zdrowia" d="M0,47a4,4,0,0,1,2-3.464V2A2,2,0,0,1,6,2V43.536A4,4,0,1,1,0,47Z" transform="translate(67 816)"/></g><rect class="d_dziennik_zdrowia" width="11" height="2" rx="1" transform="translate(83 829)"/><rect class="d_dziennik_zdrowia" width="11" height="2" rx="1" transform="translate(83 843)"/><rect class="d_dziennik_zdrowia" width="11" height="2" rx="1" transform="translate(83 857)"/><rect class="d_dziennik_zdrowia" width="7" height="2" rx="1" transform="translate(83 822)"/><rect class="d_dziennik_zdrowia" width="7" height="2" rx="1" transform="translate(83 836)"/><rect class="d_dziennik_zdrowia" width="7" height="2" rx="1" transform="translate(83 850)"/><path class="d_dziennik_zdrowia" d="M.809,9.007a2.983,2.983,0,0,1,.4-1.512A3.021,3.021,0,0,1,2.32,6.379,2.966,2.966,0,0,1,3.85,5.966a3.006,3.006,0,0,1,1.516.4A2.959,2.959,0,0,1,6.482,7.486a3.041,3.041,0,0,1,0,3.045,2.913,2.913,0,0,1-1.112,1.1,3.05,3.05,0,0,1-1.521.4,2.95,2.95,0,0,1-2.158-.875A2.906,2.906,0,0,1,.809,9.007Zm1.679,0A1.343,1.343,0,0,0,3.85,10.36,1.365,1.365,0,0,0,5.221,9.007a1.346,1.346,0,0,0-.4-.967,1.348,1.348,0,0,0-1.934-.009A1.337,1.337,0,0,0,2.487,9.007Zm12.3-.773A2.776,2.776,0,0,0,12.4,9.389a5.377,5.377,0,0,0-.844,3.221q0,4.3,3.226,4.3a10.2,10.2,0,0,0,3.278-.677v2.285a9.1,9.1,0,0,1-3.533.659,5.389,5.389,0,0,1-4.289-1.7,7.2,7.2,0,0,1-1.485-4.882,7.973,7.973,0,0,1,.729-3.511,5.272,5.272,0,0,1,2.1-2.312,6.2,6.2,0,0,1,3.2-.8,8.646,8.646,0,0,1,3.762.905l-.879,2.215a14.549,14.549,0,0,0-1.45-.6A4.326,4.326,0,0,0,14.783,8.233Z" transform="translate(42 827)"/></g></svg>
