<svg xmlns="http://www.w3.org/2000/svg" xmlns:xlink="http://www.w3.org/1999/xlink" width="14.664" height="41.326" viewBox="0 0 14.664 41.326">
    <defs>
        <style>
            .a_en-low{fill:#00a553;}
            .b_en-low{fill:#d8d8d8;}
            .c_en-low{clip-path:url(#a_en-low);}
        </style>
        <clipPath id="a_en-low">
            <rect class="a_en-low" width="8.816" height="11.324" transform="translate(141.76 211.04)"/>
        </clipPath>
    </defs>
    <g transform="translate(-138.794 -183.358)">
        <path class="b_en-low" d="M150.125,211.206V187.357a4,4,0,0,0-8,0v23.849a7.333,7.333,0,0,0,3.821,13.477h.18a7.332,7.332,0,0,0,4-13.478Zm.192,10.438a5.947,5.947,0,0,1-4.337,1.705,6,6,0,0,1-2.853-11.194.666.666,0,0,0,.333-.576V187.357a2.666,2.666,0,1,1,5.332,0V211.58a.664.664,0,0,0,.333.575,6.025,6.025,0,0,1,3,5.2A5.952,5.952,0,0,1,150.317,221.644Z"/>
        <path class="b_en-low" d="M146.791,221.439a4,4,0,0,1-1.566-7.843.3.3,0,0,0,.236-.286V187.5a.665.665,0,1,1,1.33,0v25.812a.293.293,0,0,0,.235.284,4,4,0,0,1-.235,7.844Z"/>
        <g class="c_en-low">
            <path class="a_en-low" d="M146.791,221.439a4,4,0,0,1-1.566-7.843.3.3,0,0,0,.236-.286V187.5a.665.665,0,1,1,1.33,0v25.812a.293.293,0,0,0,.235.284,4,4,0,0,1-.235,7.844Z"/>
        </g>
    </g>
</svg>
