<svg xmlns="http://www.w3.org/2000/svg" xmlns:xlink="http://www.w3.org/1999/xlink" width="68" height="68" viewBox="0 0 68 68">
    <defs>
        <style>
            .a-en-middle-circle{fill:#ff5721;}
            .b-en-middle-circle{fill:#fff;}
            .c-en-middle-circle{fill:#d8d8d8;}
            .d-en-middle-circle{clip-path:url(#c-en-middle-circle);}
            .e-en-middle-circle{filter:url(#a-en-middle-circle);}
        </style>
        <filter id="a-en-middle-circle" x="0" y="0" width="68" height="68" filterUnits="userSpaceOnUse">
            <feOffset dy="3" input="SourceAlpha"/>
            <feGaussianBlur stdDeviation="3" result="b"/>
            <feFlood flood-opacity="0.161"/>
            <feComposite operator="in" in2="b"/>
            <feComposite in="SourceGraphic"/>
        </filter><clipPath id="c-en-middle-circle">
        <rect class="a-en-middle-circle" width="8.816" height="19.324" transform="translate(141.76 203.04)"/>
    </clipPath>
    </defs>
    <g transform="translate(-289 -193)">
        <g class="e-en-middle-circle" transform="matrix(1, 0, 0, 1, 289, 193)">
            <circle class="b-en-middle-circle" cx="25" cy="25" r="25" transform="translate(9 6)"/>
        </g>
        <g transform="translate(177.206 19.641)">
            <path class="c-en-middle-circle" d="M150.125,211.206V187.357a4,4,0,0,0-8,0v23.849a7.333,7.333,0,0,0,3.821,13.477h.18a7.332,7.332,0,0,0,4-13.478Zm.192,10.438a5.947,5.947,0,0,1-4.337,1.705,6,6,0,0,1-2.853-11.194.666.666,0,0,0,.333-.576V187.357a2.666,2.666,0,1,1,5.332,0V211.58a.664.664,0,0,0,.333.575,6.025,6.025,0,0,1,3,5.2A5.952,5.952,0,0,1,150.317,221.644Z"/>
            <path class="c-en-middle-circle" d="M146.791,221.439a4,4,0,0,1-1.566-7.843.3.3,0,0,0,.236-.286V187.5a.665.665,0,1,1,1.33,0v25.812a.293.293,0,0,0,.235.284,4,4,0,0,1-.235,7.844Z"/>
            <g class="d-en-middle-circle">
                <path class="a-en-middle-circle" d="M146.791,221.439a4,4,0,0,1-1.566-7.843.3.3,0,0,0,.236-.286V187.5a.665.665,0,1,1,1.33,0v25.812a.293.293,0,0,0,.235.284,4,4,0,0,1-.235,7.844Z"/>
            </g>
        </g>
    </g>
</svg>
