<svg id="expotr-icon" xmlns="http://www.w3.org/2000/svg" width="40.625" height="54.166" viewBox="0 0 40.625 54.166">
  <path id="Path_1102" data-name="Path 1102" d="M107.823,172.228h-5.078v3.385h3.385v30.468H72.276V175.613h3.385v-3.385H70.584a1.692,1.692,0,0,0-1.693,1.693v33.854a1.692,1.692,0,0,0,1.693,1.693h37.239a1.692,1.692,0,0,0,1.693-1.693V173.921a1.692,1.692,0,0,0-1.693-1.693Z" transform="translate(-68.891 -155.301)" fill="#238366"/>
  <path id="Path_1103" data-name="Path 1103" d="M169.711,6.48V30.468H173.1V6.48l7.267,7.267,2.394-2.394L171.4,0,160.051,11.353l2.394,2.394Z" transform="translate(-151.092 0)" fill="#238366"/>
</svg>
