<svg xmlns="http://www.w3.org/2000/svg" width="33.13" height="33.626" viewBox="0 0 33.13 33.626"><defs><style>.a_face-high{fill:none;stroke:#d5233f;stroke-linecap:round;stroke-miterlimit:10;stroke-width:1.6px;}</style></defs><g transform="translate(0.8 1.296)"><path class="a_face-high" d="M30.086,9.165A15.748,15.748,0,1,1,21.4,1.039" transform="translate(0 0)"/><path class="a_face-high" d="M11.923,3.13A7.283,7.283,0,0,0,5.979,0,7.288,7.288,0,0,0,0,3.179" transform="translate(10.068 21.197)"/><path class="a_face-high" d="M0,2.12A4.922,4.922,0,0,1,4.007,0,4.912,4.912,0,0,1,7.949,2.031" transform="translate(5.034 11.393)"/><path class="a_face-high" d="M0,2.12A4.922,4.922,0,0,1,4.007,0,4.912,4.912,0,0,1,7.949,2.031" transform="translate(18.812 11.393)"/><path class="a_face-high" d="M6.359,5.721A3.1,3.1,0,0,1,3.179,8.744,3.1,3.1,0,0,1,0,5.721C0,4.051,3.179,0,3.179,0S6.359,4.051,6.359,5.721Z" transform="translate(22.256 0)"/></g></svg>
