<svg xmlns="http://www.w3.org/2000/svg" width="53.137" height="53.137" viewBox="0 0 53.137 53.137">
  <g id="Group_492" data-name="Group 492" transform="translate(-3874.869 -198)">
    <g id="Group_491" data-name="Group 491" transform="translate(3874.869 198)">
      <path id="Path_1152" data-name="Path 1152" d="M3901.437,251.136a4.228,4.228,0,0,1-3-1.24h0l-22.33-22.33a4.245,4.245,0,0,1,0-6l22.33-22.33a4.245,4.245,0,0,1,6,0l22.33,22.33a4.246,4.246,0,0,1,0,6l-22.33,22.33A4.227,4.227,0,0,1,3901.437,251.136Zm-1.825-2.414a2.583,2.583,0,0,0,3.649,0l22.33-22.329a2.583,2.583,0,0,0,0-3.649l-22.33-22.33a2.583,2.583,0,0,0-3.649,0l-22.33,22.329a2.583,2.583,0,0,0,0,3.649l22.33,22.33Z" transform="translate(-3874.868 -198)" fill="#238366"/>
      <path id="Path_1153" data-name="Path 1153" d="M4006.094,289.9a3.42,3.42,0,0,1-3.424-3.284l-.613-14.734a3.427,3.427,0,0,1,3.424-3.57h1.228a3.427,3.427,0,0,1,3.424,3.57l-.613,14.734A3.42,3.42,0,0,1,4006.094,289.9Zm-.614-19.928a1.767,1.767,0,0,0-1.765,1.84l.614,14.734a1.766,1.766,0,0,0,3.53,0l.614-14.734a1.767,1.767,0,0,0-1.766-1.84Z" transform="translate(-3979.526 -255.854)" fill="#238366"/>
      <path id="Path_1154" data-name="Path 1154" d="M4009.438,406.209a3.321,3.321,0,1,1,3.321-3.321A3.325,3.325,0,0,1,4009.438,406.209Zm0-4.982a1.661,1.661,0,1,0,1.661,1.661A1.662,1.662,0,0,0,4009.438,401.227Z" transform="translate(-3982.869 -363.864)" fill="#238366"/>
    </g>
  </g>
</svg>
