<svg id="Group_490" data-name="Group 490" xmlns="http://www.w3.org/2000/svg" width="52.941" height="52.941" viewBox="0 0 52.941 52.941">
  <g id="Group_489" data-name="Group 489" transform="translate(0)">
    <g id="Group_487" data-name="Group 487" transform="translate(24.816 20.68)">
      <path id="Path_1146" data-name="Path 1146" d="M3433.652,2623.1l1.381-1.684.815.668a.827.827,0,1,0,1.049-1.28l-1.454-1.191h0l-1.482-1.215a.827.827,0,1,0-1.049,1.28l.843.692-1.38,1.683a13.979,13.979,0,0,0-7.428-2.662v-2.508h2.482a.827.827,0,0,0,0-1.654h-6.618a.827.827,0,1,0,0,1.654h2.482v2.508a14.079,14.079,0,1,0,10.361,3.711Zm-9.534,22.733a12.408,12.408,0,1,1,12.408-12.408A12.422,12.422,0,0,1,3424.118,2645.83Z" transform="translate(-3410.055 -2615.223)" fill="#238366"/>
      <path id="Path_1147" data-name="Path 1147" d="M3447.667,2663.33a.827.827,0,1,0-.685,1.506,8.247,8.247,0,1,1-8.574,1.09l-.118.386a.827.827,0,0,0,.549,1.033.819.819,0,0,0,.242.036.827.827,0,0,0,.791-.585l.761-2.485a.827.827,0,0,0-.548-1.033l-2.485-.761a.827.827,0,1,0-.485,1.582l.686.21a9.886,9.886,0,1,0,9.867-.979Z" transform="translate(-3429.509 -2654.139)" fill="#238366"/>
      <path id="Path_1148" data-name="Path 1148" d="M3477.757,2674.41v.324a.827.827,0,0,0,1.655,0v-.324a2.384,2.384,0,0,0,0-4.475v-6.828a.827.827,0,1,0-1.655,0v6.828a2.384,2.384,0,0,0,0,4.475Zm.827-2.971a.734.734,0,1,1-.734.734A.734.734,0,0,1,3478.584,2671.439Z" transform="translate(-3464.522 -2653.974)" fill="#238366"/>
    </g>
    <g id="Group_488" data-name="Group 488" transform="translate(0)">
      <path id="Path_1149" data-name="Path 1149" d="M3292.62,2541.073h-6.2v-33.088h16.958v.827a.827.827,0,1,0,1.655,0v-1.654a.827.827,0,0,0-.827-.827h-18.354l-11.782-8.126a.827.827,0,0,0-1.3.681V2523.7h-2.481a.827.827,0,0,0-.827.827v4.55a.827.827,0,0,0,1.654,0v-3.722h1.654v24.816a.827.827,0,0,0,1.3.681l11.782-8.126h6.774a.827.827,0,0,0,0-1.655Zm-18.2-40.612,10.34,7.131v33.874l-10.34,7.131Z" transform="translate(-3269.458 -2498.059)" fill="#238366"/>
      <path id="Path_1150" data-name="Path 1150" d="M3434.732,2541.893a2.068,2.068,0,1,1,0,4.136h-14.476a.827.827,0,0,0,0,1.655h14.476a3.722,3.722,0,1,0,0-7.445.827.827,0,0,0,0,1.655Z" transform="translate(-3392.958 -2532.793)" fill="#238366"/>
      <path id="Path_1151" data-name="Path 1151" d="M3420.813,2558.984a.827.827,0,0,0,0,1.654,2.482,2.482,0,1,1,0,4.963h-26a.827.827,0,0,0,0,1.654h26a4.136,4.136,0,1,0,0-8.272Z" transform="translate(-3372.008 -2548.23)" fill="#238366"/>
    </g>
  </g>
</svg>
