<svg xmlns="http://www.w3.org/2000/svg" width="53.141" height="53.141" viewBox="0 0 53.141 53.141">
  <g id="Group_480" data-name="Group 480" transform="translate(0 0)">
    <g id="Group_471" data-name="Group 471" transform="translate(18.267 16.606)">
      <path id="Path_1122" data-name="Path 1122" d="M2768.705-314.525a.83.83,0,0,0-.83.83v9.549a.83.83,0,0,0,.83.83.83.83,0,0,0,.83-.83v-9.549A.83.83,0,0,0,2768.705-314.525Z" transform="translate(-2764.554 329.886)" fill="#238366"/>
      <path id="Path_1123" data-name="Path 1123" d="M2815.58-314.525a.83.83,0,0,0-.83.83v9.549a.83.83,0,0,0,.83.83.831.831,0,0,0,.831-.83v-9.549A.831.831,0,0,0,2815.58-314.525Z" transform="translate(-2803.125 329.886)" fill="#238366"/>
      <path id="Path_1124" data-name="Path 1124" d="M2761.588-391.2a5.791,5.791,0,0,0,1.844-4.235,5.819,5.819,0,0,0-5.812-5.812,5.819,5.819,0,0,0-5.812,5.812,5.79,5.79,0,0,0,1.847,4.238c-2.254.423-4.53,2.411-4.53,4.9V-375.5a.831.831,0,0,0,.83.83.83.83,0,0,0,.83-.83V-386.3c0-1.614,1.921-3.321,3.737-3.321h6.227a3.5,3.5,0,0,1,3.321,3.321V-375.5a.83.83,0,0,0,.83.83.83.83,0,0,0,.83-.83V-386.3A5.134,5.134,0,0,0,2761.588-391.2Zm-8.12-4.235a4.156,4.156,0,0,1,4.152-4.152,4.156,4.156,0,0,1,4.152,4.152,4.156,4.156,0,0,1-4.152,4.152A4.156,4.156,0,0,1,2753.468-395.432Z" transform="translate(-2749.125 401.244)" fill="#238366"/>
    </g>
    <g id="Group_472" data-name="Group 472" transform="translate(34.248 19.512)">
      <path id="Path_1125" data-name="Path 1125" d="M2878.861-319.213a.83.83,0,0,0-.831.83v9.964a.83.83,0,0,0,.831.83.83.83,0,0,0,.83-.83v-9.964A.83.83,0,0,0,2878.861-319.213Z" transform="translate(-2871.178 330.837)" fill="#238366"/>
      <path id="Path_1126" data-name="Path 1126" d="M2847.414-377.345a4.546,4.546,0,0,0,1.065-2.926,4.572,4.572,0,0,0-4.567-4.567,4.572,4.572,0,0,0-4.567,4.567,4.572,4.572,0,0,0,4.567,4.567c.047,0,.093-.006.14-.007.023,0,.046.007.07.007h2.906a2.556,2.556,0,0,1,2.491,2.491v8.3a.83.83,0,0,0,.83.83.83.83,0,0,0,.83-.83v-8.3A4.214,4.214,0,0,0,2847.414-377.345Zm-6.408-2.926a2.91,2.91,0,0,1,2.906-2.906,2.909,2.909,0,0,1,2.906,2.906,2.909,2.909,0,0,1-2.906,2.906A2.91,2.91,0,0,1,2841.006-380.271Z" transform="translate(-2839.345 384.838)" fill="#238366"/>
    </g>
    <g id="Group_474" data-name="Group 474" transform="translate(13.7 8.303)">
      <g id="Group_473" data-name="Group 473">
        <path id="Path_1127" data-name="Path 1127" d="M2727.911-438.986a4.572,4.572,0,0,1-4.567-4.567,4.572,4.572,0,0,1,4.567-4.567,4.572,4.572,0,0,1,4.566,4.567A4.572,4.572,0,0,1,2727.911-438.986Zm0-7.473a2.91,2.91,0,0,0-2.906,2.906,2.91,2.91,0,0,0,2.906,2.906,2.909,2.909,0,0,0,2.906-2.906A2.91,2.91,0,0,0,2727.911-446.458Z" transform="translate(-2723.344 448.119)" fill="#238366"/>
      </g>
    </g>
    <g id="Group_476" data-name="Group 476" transform="translate(30.307 8.303)">
      <g id="Group_475" data-name="Group 475">
        <path id="Path_1128" data-name="Path 1128" d="M2821.661-438.986a4.572,4.572,0,0,1-4.567-4.567,4.572,4.572,0,0,1,4.567-4.567,4.572,4.572,0,0,1,4.566,4.567A4.572,4.572,0,0,1,2821.661-438.986Zm0-7.473a2.91,2.91,0,0,0-2.906,2.906,2.91,2.91,0,0,0,2.906,2.906,2.909,2.909,0,0,0,2.906-2.906A2.91,2.91,0,0,0,2821.661-446.458Z" transform="translate(-2817.094 448.119)" fill="#238366"/>
      </g>
    </g>
    <path id="Path_1129" data-name="Path 1129" d="M2672.57-494.994a26.6,26.6,0,0,0-26.57,26.57,26.6,26.6,0,0,0,26.57,26.57,26.6,26.6,0,0,0,26.57-26.57A26.6,26.6,0,0,0,2672.57-494.994Zm0,1.661a24.813,24.813,0,0,1,17,6.731l-35.183,35.183a24.813,24.813,0,0,1-6.731-17A24.938,24.938,0,0,1,2672.57-493.333Zm0,49.819a24.813,24.813,0,0,1-17-6.731l35.183-35.183a24.812,24.812,0,0,1,6.731,17A24.938,24.938,0,0,1,2672.57-443.514Z" transform="translate(-2646 494.994)" fill="#238366"/>
    <g id="Group_477" data-name="Group 477" transform="translate(6.848 19.512)">
      <path id="Path_1130" data-name="Path 1130" d="M2704.238-319.213a.83.83,0,0,0-.83.83v9.964a.83.83,0,0,0,.83.83.83.83,0,0,0,.83-.83v-9.964A.83.83,0,0,0,2704.238-319.213Z" transform="translate(-2700.087 330.837)" fill="#238366"/>
      <path id="Path_1131" data-name="Path 1131" d="M2691.926-384.838a4.572,4.572,0,0,0-4.567,4.567,4.544,4.544,0,0,0,1.065,2.926,4.214,4.214,0,0,0-3.766,4.131v8.3a.83.83,0,0,0,.83.83.83.83,0,0,0,.83-.83v-8.3a2.556,2.556,0,0,1,2.491-2.491h2.906c.024,0,.046-.005.07-.007.047,0,.093.007.14.007a4.572,4.572,0,0,0,4.567-4.567A4.572,4.572,0,0,0,2691.926-384.838Zm0,7.473a2.91,2.91,0,0,1-2.906-2.906,2.91,2.91,0,0,1,2.906-2.906,2.91,2.91,0,0,1,2.906,2.906A2.91,2.91,0,0,1,2691.926-377.365Z" transform="translate(-2684.658 384.838)" fill="#238366"/>
    </g>
  </g>
</svg>
