<svg xmlns="http://www.w3.org/2000/svg" width="52.998" height="52.998" viewBox="0 0 52.998 52.998">
  <g id="Group_484" data-name="Group 484" transform="translate(-3874.87 -1578.018)">
    <g id="Group_483" data-name="Group 483" transform="translate(3874.87 1578.018)">
      <path id="Path_1139" data-name="Path 1139" d="M3989.132,1643.408a2.751,2.751,0,0,0-1.033-.764,3.267,3.267,0,0,0,.249-1.583,2.766,2.766,0,0,0-1.155-1.917,2.1,2.1,0,0,0-1.6-.4,3.549,3.549,0,0,0-1.608.767,2.438,2.438,0,0,0-.519-.64c-1.371-1.211-2.773-.281-3.8.4l-.228.151c-.89.583-5.394,5.061-5.718,5.428-.185.209-1.358,1.448-2.492,2.646-1.538,1.623-3.127,3.3-3.492,3.714-.5.568-3.55,3.508-4.773,4.68l-.618.367a21.142,21.142,0,0,0-.434-7.457,5.116,5.116,0,0,0-3.643-3.654,2.5,2.5,0,0,0-2.392.572c-1.031,1.167-.405,3.066.009,4.322.079.24.186.563.208.685-.034.26-.286,1.163-.51,1.963-.671,2.4-1.685,6.02-1.557,8.1.042.679.146,3.145.238,5.321.072,1.729.135,3.222.156,3.566s.029,1.009.038,1.72c.01.811.02,1.649.051,2.2-.219.713-2.453,3.47-4.437,5.661a.828.828,0,1,0,1.228,1.112c3.284-3.626,4.921-5.917,4.866-6.808-.031-.509-.042-1.4-.052-2.187-.009-.732-.018-1.423-.041-1.8-.02-.328-.085-1.885-.155-3.534-.092-2.183-.2-4.658-.239-5.353-.111-1.8.9-5.4,1.5-7.547a10.6,10.6,0,0,0,.572-2.489,4.986,4.986,0,0,0-.292-1.123c-.241-.731-.743-2.252-.345-2.7a1.253,1.253,0,0,1,.944-.022,3.46,3.46,0,0,1,2.279,2.511c.821,2.546.388,6.742.229,8.013-1.806,1.138-2.192,1.942-2.185,2.425a.828.828,0,0,0,.828.816h.012a.828.828,0,0,0,.8-.657,5.125,5.125,0,0,1,1.738-1.372l2.134-1.268a.822.822,0,0,0,.15-.114c.175-.167,4.276-4.1,4.937-4.844.346-.391,2-2.134,3.453-3.673,1.249-1.319,2.327-2.457,2.531-2.688.427-.483,4.742-4.718,5.385-5.14l.236-.156c1.149-.763,1.432-.848,1.783-.538a.882.882,0,0,1,.258.821l-11.97,15.083a.828.828,0,1,0,1.3,1.03l12.082-15.224s0-.009.008-.013a.127.127,0,0,0,.011-.013,3.865,3.865,0,0,1,1.782-1.414.442.442,0,0,1,.364.091,1.09,1.09,0,0,1,.5.772,2.384,2.384,0,0,1-.562,1.507c-.006.007-.008.015-.013.022s-.023.024-.032.038l-11.429,16.241a.828.828,0,0,0,1.355.953l11.189-15.9a1.065,1.065,0,0,1,.662.38c.116.152.211,1.028-.516,2.5-.778,1.58-2.454,4.258-2.525,4.371L3977,1663.441a.828.828,0,0,0,1.39.9l7.778-12.01a.454.454,0,0,1,.568-.029c.434.263.141,1.205-.163,1.774-.173.324-.465.968-.835,1.783a36.036,36.036,0,0,1-2.718,5.313,19.544,19.544,0,0,0-2.271,4.234c-.432.954-.879,1.941-1.338,2.834-1.385,2.7-4.961,8.071-7.155,9.168a5.382,5.382,0,0,0-2.413,1.977.828.828,0,1,0,1.427.84,3.839,3.839,0,0,1,1.727-1.335c2.883-1.441,6.79-7.756,7.887-9.893.477-.929.932-1.935,1.373-2.907a20.1,20.1,0,0,1,2-3.821,31.289,31.289,0,0,0,2.985-5.726c.344-.756.64-1.41.788-1.687.906-1.7.734-3.258-.44-3.97a2.4,2.4,0,0,0-.417-.2c.555-.928,1.227-2.091,1.659-2.968C3989.748,1645.871,3989.857,1644.261,3989.132,1643.408Z" transform="translate(-3936.61 -1627.634)" fill="#238366"/>
      <path id="Path_1140" data-name="Path 1140" d="M3887.349,1813.916a3.105,3.105,0,1,1,3.105-3.105A3.109,3.109,0,0,1,3887.349,1813.916Zm0-4.555a1.449,1.449,0,1,0,1.449,1.449A1.451,1.451,0,0,0,3887.349,1809.361Z" transform="translate(-3882.588 -1767.128)" fill="#238366"/>
      <path id="Path_1141" data-name="Path 1141" d="M3903.549,1635.377a2.9,2.9,0,1,1,2.9-2.9A2.9,2.9,0,0,1,3903.549,1635.377Zm0-4.141a1.242,1.242,0,1,0,1.242,1.242A1.244,1.244,0,0,0,3903.549,1631.236Z" transform="translate(-3896.096 -1620.471)" fill="#238366"/>
      <path id="Path_1142" data-name="Path 1142" d="M4075.677,1602.291a3.933,3.933,0,1,1,3.934-3.933A3.938,3.938,0,0,1,4075.677,1602.291Zm0-6.211a2.277,2.277,0,1,0,2.277,2.277A2.28,2.28,0,0,0,4075.677,1596.08Z" transform="translate(-4036.964 -1591.526)" fill="#238366"/>
      <path id="Path_1143" data-name="Path 1143" d="M3907.2,1593.166a3.85,3.85,0,0,0-.2-1.8,3.385,3.385,0,0,1-.185-.8c-.2-1.916-1.213-3.111-2.589-3.042a2.388,2.388,0,0,0-.458.066c-.06-1.08-.155-2.419-.288-3.388-.281-2.037-1.093-3.432-2.171-3.732a2.756,2.756,0,0,0-1.283-.054,3.27,3.27,0,0,0-.681-1.451,2.766,2.766,0,0,0-2.03-.941,2.1,2.1,0,0,0-1.556.564,3.55,3.55,0,0,0-.9,1.536,2.427,2.427,0,0,0-.788-.24c-1.809-.236-2.454,1.32-2.921,2.456l-.1.253c-.4.954-1.987,7.882-2.076,8.57,0,.026,0,.05,0,.076a5.571,5.571,0,0,0-1.522,5.205,4.338,4.338,0,0,0-2.776,5.62,3.3,3.3,0,0,0-.389.425,17.714,17.714,0,0,0-2.5-2.309,5.179,5.179,0,0,0-5.157-.932,2.591,2.591,0,0,0-1.733,1.853c-.2,1.549,1.45,2.715,2.543,3.486.22.156.518.366.608.45.118.238.414,1.124.676,1.91.787,2.361,1.977,5.93,3.246,7.578.377.489,1.619,2.167,2.881,3.874a3.943,3.943,0,0,0,2.384,3.2c.013.021.024.043.04.063.206.268.589.82.995,1.4.482.694.98,1.412,1.315,1.848a6.639,6.639,0,0,1,.628,2.45.828.828,0,0,0,.824.753c.025,0,.051,0,.076,0a.828.828,0,0,0,.75-.9,7.771,7.771,0,0,0-.965-3.311c-.31-.4-.819-1.136-1.267-1.782l-.192-.276a3.952,3.952,0,0,0,1.919-.923l.02.018a3.033,3.033,0,0,0,2.144.966.828.828,0,1,0,0-1.656c-.409,0-.6-.159-1.046-.55a6.753,6.753,0,0,0-.744-.6.828.828,0,0,0-1.13.2,2.254,2.254,0,0,1-1.841.943,2.277,2.277,0,0,1-1.462-4.022.828.828,0,0,0-.045-1.3,1.858,1.858,0,0,1-.069-2.961.828.828,0,0,0-.219-1.419,2.685,2.685,0,0,1-1.283-3.982.828.828,0,0,0-.057-.985,1.635,1.635,0,0,1-.385-1.06,1.657,1.657,0,0,1,.865-1.456.828.828,0,0,0,.322-1.14,2.684,2.684,0,0,1,2.151-4.019.828.828,0,0,0,.706-1.153,3.934,3.934,0,0,1,3.616-5.482c.043,0,.085,0,.128.006l.089.006a.828.828,0,0,0,.862-.684,2.69,2.69,0,1,1,5.219,1.263.828.828,0,0,0,.133.748.82.82,0,0,0,.687.325l.129-.007a3.7,3.7,0,0,1,2.656,1.115.828.828,0,0,0,.766.229,4.341,4.341,0,0,1,5.273,4.246.828.828,0,1,0,1.656,0A6.005,6.005,0,0,0,3907.2,1593.166Zm-21.842,18.381a3.511,3.511,0,0,0,.24,4.077,3.928,3.928,0,0,0-.342.548c-.911-1.23-1.693-2.282-1.983-2.66-1.1-1.426-2.281-4.972-2.987-7.091a10.583,10.583,0,0,0-.921-2.382,4.666,4.666,0,0,0-.979-.806c-.577-.407-1.928-1.361-1.857-1.909a1.486,1.486,0,0,1,.911-.613,3.557,3.557,0,0,1,3.319.773,11.417,11.417,0,0,1,2.828,2.838c0,.065-.01.131-.01.2a3.316,3.316,0,0,0,.431,1.633,4.346,4.346,0,0,0,1.351,5.4Zm7.159-21.923a5.54,5.54,0,0,0-1.622.359c.488-2.2,1.442-6.2,1.675-6.754l.108-.261c.525-1.275.71-1.5,1.176-1.444a.885.885,0,0,1,.68.55l-.186,5.279A4.334,4.334,0,0,0,3892.516,1589.625Zm3.509-2.868.168-4.785h0a3.83,3.83,0,0,1,.683-2.167.446.446,0,0,1,.354-.13,1.086,1.086,0,0,1,.849.358,2.384,2.384,0,0,1,.379,1.563c0,.01,0,.019,0,.029s-.007.043-.006.065l.022,5.447a4.316,4.316,0,0,0-1.857-.422A4.36,4.36,0,0,0,3896.025,1586.757Zm4.111,1.761-.026-6.4a1.067,1.067,0,0,1,.751-.053c.182.061.75.734.975,2.363.241,1.749.353,4.919.358,5.037l.009,2.22a5.318,5.318,0,0,0-1.247-.352c.005-.089.008-.179.008-.269A4.317,4.317,0,0,0,3900.136,1588.518Zm3.724,4.03c0-.014,0-.027,0-.041l-.013-2.966a.453.453,0,0,1,.456-.368h.02c.5,0,.773.928.839,1.561a5,5,0,0,0,.26,1.151,2.2,2.2,0,0,1,.143.728,6.012,6.012,0,0,0-1.084-.1A5.827,5.827,0,0,0,3903.859,1592.548Z" transform="translate(-3874.87 -1578.018)" fill="#238366"/>
    </g>
  </g>
</svg>
