<svg xmlns="http://www.w3.org/2000/svg" width="48" height="48" viewBox="0 0 48 48">
  <g id="Group_457" data-name="Group 457" transform="translate(-116 -20)">
    <g id="Group_304" data-name="Group 304">
      <path id="Path_993" data-name="Path 993" d="M140,64a19.939,19.939,0,0,0,15-6.816v-2.5a5.868,5.868,0,0,0-3.679-5.445l-4.744-1.909a4.248,4.248,0,0,1-2.664-3.942c1.864-1.846,2.609-5.062,2.609-8.216,0-3.6-1.957-7.174-6.522-7.174s-6.522,3.572-6.522,7.174c0,3.153.744,6.369,2.609,8.216a4.248,4.248,0,0,1-2.664,3.942l-4.744,1.909A5.868,5.868,0,0,0,125,54.686v2.5A19.939,19.939,0,0,0,140,64Z" fill="#238366"/>
    </g>
    <path id="Path_994" data-name="Path 994" d="M140,68a24,24,0,1,1,24-24A24.028,24.028,0,0,1,140,68Zm0-46a22,22,0,1,0,22,22A22.025,22.025,0,0,0,140,22Z" fill="#238366"/>
  </g>
</svg>
