<svg xmlns="http://www.w3.org/2000/svg" width="39.75" height="53" viewBox="0 0 39.75 53">
  <g id="Group_468" data-name="Group 468" transform="translate(0 0)">
    <g id="Group_467" data-name="Group 467">
      <g id="Group_465" data-name="Group 465" transform="translate(0 0)">
        <path id="Path_1108" data-name="Path 1108" d="M654.045-476.9a2.633,2.633,0,0,0-1.8-.693H644.1c-.017,0-.032-.005-.049-.005h-5.049a4.216,4.216,0,0,0-1.024-2.011,4.11,4.11,0,0,0-3.061-1.3h0a4.092,4.092,0,0,0-4.088,3.312H617.555a2.468,2.468,0,0,0-1.756.725,2.47,2.47,0,0,0-.729,1.76V-430.4a2.488,2.488,0,0,0,2.484,2.485h34.781a2.458,2.458,0,0,0,2.484-2.484v-44.719A2.412,2.412,0,0,0,654.045-476.9Zm-22.47.957a.828.828,0,0,0,.828-.828,2.448,2.448,0,0,1,2.517-2.484h0a2.428,2.428,0,0,1,1.845.769,2.55,2.55,0,0,1,.668,1.715.828.828,0,0,0,.828.828h.012c.014,0,.026,0,.04,0h4.913v4.964H626.665v-4.969ZM653.165-430.4a.81.81,0,0,1-.828.828H617.556a.82.82,0,0,1-.828-.828v-44.719a.824.824,0,0,1,.242-.588.823.823,0,0,1,.586-.241h7.453v5.8a.828.828,0,0,0,.828.828h18.219a.828.828,0,0,0,.828-.828v-5.792h7.358a.982.982,0,0,1,.675.25.764.764,0,0,1,.248.572Z" transform="translate(-615.071 480.916)" fill="#78d8bb"/>
        <path id="Path_1109" data-name="Path 1109" d="M672.18-434.044h-1.656a.828.828,0,0,0-.828.828.828.828,0,0,0,.828.828h.828v36.437h-26.5v-36.437h.828a.828.828,0,0,0,.828-.828.828.828,0,0,0-.828-.828h-1.656a.828.828,0,0,0-.828.828v38.094a.828.828,0,0,0,.828.828H672.18a.828.828,0,0,0,.828-.828v-38.094A.828.828,0,0,0,672.18-434.044Z" transform="translate(-638.227 442.325)" fill="#78d8bb"/>
        <path id="Path_1110" data-name="Path 1110" d="M728.4-376.136h9.109a.828.828,0,0,0,.828-.828.828.828,0,0,0-.828-.828H728.4a.828.828,0,0,0-.828.828A.828.828,0,0,0,728.4-376.136Z" transform="translate(-707.696 396.01)" fill="#78d8bb"/>
        <path id="Path_1111" data-name="Path 1111" d="M728.4-348.011h6.625a.828.828,0,0,0,.828-.828.828.828,0,0,0-.828-.828H728.4a.828.828,0,0,0-.828.828A.828.828,0,0,0,728.4-348.011Z" transform="translate(-707.696 372.854)" fill="#78d8bb"/>
        <path id="Path_1112" data-name="Path 1112" d="M669.945-371.8a.828.828,0,0,0,.585.243h.037a.829.829,0,0,0,.6-.3l4.385-5.245a.828.828,0,0,0-.1-1.167.829.829,0,0,0-1.167.1l-3.8,4.55-2.428-2.428a.828.828,0,0,0-1.171,0,.828.828,0,0,0,0,1.171Z" transform="translate(-657.524 396.556)" fill="#78d8bb"/>
      </g>
      <g id="Group_466" data-name="Group 466" transform="translate(9.109 29.695)">
        <path id="Path_1113" data-name="Path 1113" d="M737.508-310.511H728.4a.828.828,0,0,1-.828-.828.828.828,0,0,1,.828-.828h9.109a.828.828,0,0,1,.828.828A.828.828,0,0,1,737.508-310.511Z" transform="translate(-716.805 312.284)" fill="#78d8bb"/>
        <path id="Path_1114" data-name="Path 1114" d="M735.024-282.386H728.4a.828.828,0,0,1-.828-.828.828.828,0,0,1,.828-.828h6.625a.828.828,0,0,1,.828.828A.828.828,0,0,1,735.024-282.386Z" transform="translate(-716.805 289.128)" fill="#78d8bb"/>
        <path id="Path_1115" data-name="Path 1115" d="M670.53-305.927a.828.828,0,0,1-.585-.243l-3.068-3.069a.828.828,0,0,1,0-1.171.828.828,0,0,1,1.171,0l2.428,2.428,3.8-4.55a.829.829,0,0,1,1.167-.1.828.828,0,0,1,.1,1.167l-4.385,5.245a.829.829,0,0,1-.6.3Z" transform="translate(-666.634 312.828)" fill="#78d8bb"/>
      </g>
    </g>
  </g>
</svg>
