<svg xmlns="http://www.w3.org/2000/svg" width="52.999" height="53" viewBox="0 0 52.999 53">
  <g id="Group_464" data-name="Group 464" transform="translate(0 0)">
    <path id="Path_1106" data-name="Path 1106" d="M260.763-460.4a9.93,9.93,0,0,0-13.683.4l-22.064,22.1c-1.2,1.2-1.822,3.151-2.543,5.409-.887,2.777-1.892,5.925-4.2,8.236l-1.045,1.047h0l-4.976,4.984a5.023,5.023,0,0,0,0,6.914,4.889,4.889,0,0,0,3.453,1.373,4.888,4.888,0,0,0,3.453-1.373l6.021-6.03c2.312-2.316,5.455-3.316,8.228-4.2,2.239-.713,4.173-1.329,5.36-2.517l22.251-22.286a9.69,9.69,0,0,0,2.853-7.078A9.7,9.7,0,0,0,260.763-460.4Zm-42.776,47.914a3.224,3.224,0,0,1-2.281.887,3.225,3.225,0,0,1-2.282-.887,3.41,3.41,0,0,1,0-4.572l4.39-4.4,4.564,4.571Zm41.86-35.033L237.6-425.233c-.9.9-2.657,1.462-4.69,2.109-2.807.894-6.3,2.006-8.9,4.607l-.46.46-4.564-4.571.461-.462c2.591-2.6,3.708-6.092,4.605-8.9.656-2.053,1.222-3.825,2.138-4.742l22.064-22.1a8.4,8.4,0,0,1,5.947-2.459,7.929,7.929,0,0,1,5.435,2.1,8.054,8.054,0,0,1,2.582,5.792A8.046,8.046,0,0,1,259.847-447.519Z" transform="translate(-210.874 462.942)" fill="#238366"/>
    <path id="Path_1107" data-name="Path 1107" d="M368.781-432a.853.853,0,0,0-1.172,0l-13.762,13.784a.829.829,0,0,0,0,1.171l6.881,6.892a.828.828,0,0,0,.586.243.828.828,0,0,0,.586-.243l13.762-13.783a.829.829,0,0,0,0-1.171Zm-7.467,20.089-5.711-5.72L368.2-430.242l5.711,5.72Z" transform="translate(-328.384 437.659)" fill="#238366"/>
  </g>
</svg>
