<svg xmlns="http://www.w3.org/2000/svg" width="53" height="52.999" viewBox="0 0 53 52.999">
  <g id="Group_486" data-name="Group 486" transform="translate(-3874.869 -658.006)">
    <g id="Group_485" data-name="Group 485" transform="translate(3874.869 658.006)">
      <path id="Path_1144" data-name="Path 1144" d="M3901.368,658.006a26.5,26.5,0,1,0,26.5,26.5A26.53,26.53,0,0,0,3901.368,658.006Zm0,1.656a24.748,24.748,0,0,1,16.959,6.713l-35.09,35.09a24.825,24.825,0,0,1,18.13-41.8Zm0,49.687a24.747,24.747,0,0,1-16.959-6.713l35.09-35.09a24.825,24.825,0,0,1-18.131,41.8Z" transform="translate(-3874.869 -658.006)" fill="#78d8bb"/>
    </g>
    <path id="Path_1145" data-name="Path 1145" d="M3935.586,726.079a.828.828,0,0,0-.972-.653l-8.384,1.651a.817.817,0,0,0-.138.042,5.054,5.054,0,0,0-.658.109l-2.266.677c-.161-.012-.265-.013-.292-.013-.313,0-.659-.253-1.48-.877l-.469-.355a35.233,35.233,0,0,0-3.479-2.121c-.728-.408-1.415-.794-1.8-1.051a6.675,6.675,0,0,0-4.914-.446,15.829,15.829,0,0,0-4.24,2.68,35.952,35.952,0,0,0-3.7.438,12.885,12.885,0,0,1-4.529.358h-.008l-.007,0-4.449-1.027-3.382-1.651a.828.828,0,0,0-.727,1.488l2.852,1.392c-1.61,5.941-4.439,16.334-4.7,17.115a1.2,1.2,0,0,0,.124,1.018c.634,1.039,3.235,1.579,4.729,1.809a.828.828,0,0,0,.828-.38l.919-1.47a2.6,2.6,0,0,0,.328.3,2.647,2.647,0,0,0,2.734.236,2.313,2.313,0,0,0,.153.49,4.015,4.015,0,0,0,2.816,2.259,3.207,3.207,0,0,0,1.955-.167,3.5,3.5,0,0,0,.99,1.648,3.373,3.373,0,0,0,3.5.973,2.248,2.248,0,0,0,1.366,1.323,3.649,3.649,0,0,0,1.161.194,4.244,4.244,0,0,0,2.453-.879,2.092,2.092,0,0,0,.741.632,2.276,2.276,0,0,0,1.041.24,3.382,3.382,0,0,0,1.068-.189,2.992,2.992,0,0,0,1.681-1.631,4.469,4.469,0,0,0,2.71-.562,3.171,3.171,0,0,0,1.252-1.774,3.129,3.129,0,0,0,2.718-.775,2.816,2.816,0,0,0,.966-2.177,4.376,4.376,0,0,0,.751-.147,4.92,4.92,0,0,0,2.453,2.38,5.781,5.781,0,0,0,2.388.525,4.412,4.412,0,0,0,1.962-.425c3.473-1.737,4.07-6.509,1.825-14.59a7.531,7.531,0,0,0-3.218-4.717l4.7-.925A.828.828,0,0,0,3935.586,726.079Zm-24.33-1.464a5.046,5.046,0,0,1,3.472.253c.438.292,1.12.674,1.908,1.117a34.307,34.307,0,0,1,3.3,2l.46.348a4.1,4.1,0,0,0,2.483,1.215,5.341,5.341,0,0,1,5.134,4.25c1.052,4.561.925,8.474.51,9.081a1.634,1.634,0,0,1-1.16.663,2.146,2.146,0,0,1-.7-.06,3.221,3.221,0,0,0-.4-3.816c-.722-.722-10.518-9.122-11.969-10.211a3.461,3.461,0,0,0-4.45-.027,11.361,11.361,0,0,0-2.366,3.092,4.428,4.428,0,0,1-2.762,1.326,1.147,1.147,0,0,1-1.036-.645,4.169,4.169,0,0,1,.712-1.154,18.192,18.192,0,0,0,1.029-1.5,7,7,0,0,0,.815-1.744,2.611,2.611,0,0,1,.535-.981A13.663,13.663,0,0,1,3911.256,724.614Zm-18.841,20.32a11.01,11.01,0,0,1-2.912-.861c.627-2.13,3.757-13.667,4.61-16.812l3.088.712a62.2,62.2,0,0,1-.98,8.907,29.191,29.191,0,0,1-1.66,4.335,4.166,4.166,0,0,0-.636,1.322.856.856,0,0,0-.056.072Zm3.351-1.151a.616.616,0,0,1-.285-.433,1.525,1.525,0,0,1,.212-.827,6.56,6.56,0,0,1,1.061.262,1.356,1.356,0,0,1,.671.7C3896.986,743.8,3896.278,744.168,3895.766,743.783Zm5.11,2.7a2.383,2.383,0,0,1-1.707-1.332,1.981,1.981,0,0,1-.026-.966l1.952-1.952a2.1,2.1,0,0,1,1.67-.812,2.463,2.463,0,0,1,1.352.812c.741.741.892,1.051-.8,3.024l-.312.359A2.751,2.751,0,0,1,3900.876,746.486Zm3.714,1.917c-.872-.872-.55-1.444-.411-1.614l.042-.048c.18-.2.36-.408.533-.61.754-.861,2.114-2.4,2.722-3.008a1.944,1.944,0,0,1,2.932.162,1.269,1.269,0,0,1,.3,1.678l-3.753,3.753A1.722,1.722,0,0,1,3904.59,748.4Zm4.219,1.9a.829.829,0,0,1-.441-.66l3.553-3.553a.6.6,0,0,1,.932-.007,1.035,1.035,0,0,1,.267,1.371s-.005.01-.009.015-.009.009-.012.015a12.833,12.833,0,0,1-1.294,1.621C3910.346,750.562,3909.438,750.509,3908.81,750.3Zm5.417,0c-.744.248-.98-.008-1.053-.187,0-.01-.01-.019-.013-.03a12.9,12.9,0,0,0,.825-.995l.863.6A1.258,1.258,0,0,1,3914.226,750.3Zm8.811-7.015c-.013,0-.025,0-.038,0l-6.241-5.071a.828.828,0,0,0-1.044,1.285l6.665,5.415c.008.007.017.011.026.017s.006.018.008.028a1.253,1.253,0,0,1-.472,1c-.55.55-1.573.273-1.837.188l-6.2-4.135a.828.828,0,1,0-.918,1.378l5.861,3.907a1.621,1.621,0,0,1-.619,1,3.526,3.526,0,0,1-2.152.23c-.007-.005-.012-.012-.02-.017l-1.227-.859a2.712,2.712,0,0,0-.8-2.745,2.261,2.261,0,0,0-1.476-.707,3.044,3.044,0,0,0-.97-2.089,3.573,3.573,0,0,0-5.274-.162c-.065.065-.137.138-.214.22a3.792,3.792,0,0,0-.8-1.106,4.005,4.005,0,0,0-2.317-1.285,3.658,3.658,0,0,0-3.047,1.285l-1.26,1.26a2.732,2.732,0,0,0-1.387-1.111c-.289-.1-.555-.169-.793-.224a30.033,30.033,0,0,0,1.328-3.655,60.881,60.881,0,0,0,1.033-9.1,18.873,18.873,0,0,0,4.273-.448c.531-.106,1.218-.195,1.855-.263a3.754,3.754,0,0,0-.327.786,5.474,5.474,0,0,1-.653,1.384c-.313.522-.646.973-.94,1.371-.727.984-1.414,1.913-.816,2.96a2.8,2.8,0,0,0,2.625,1.479,5.735,5.735,0,0,0,4.076-2.218,10.969,10.969,0,0,1,1.816-2.477,1.845,1.845,0,0,1,2.538-.026c1.356,1.017,11.119,9.383,11.792,10.057a1.562,1.562,0,0,1,0,1.974A2.6,2.6,0,0,1,3923.037,743.284Zm8.824-10.149c1.355,4.879,2.287,11.037-.97,12.666a3.591,3.591,0,0,1-2.917-.123,3.776,3.776,0,0,1-.77-.475c.06,0,.119,0,.179,0a3.285,3.285,0,0,0,2.428-1.286c1.069-1.337.735-6.485-.189-10.488a6.7,6.7,0,0,0-3.451-4.663C3927.185,728.6,3930.557,728.439,3931.861,733.136Z" transform="translate(-10.632 -53.326)" fill="#78d8bb"/>
  </g>
</svg>
