<svg xmlns="http://www.w3.org/2000/svg" width="53" height="53" viewBox="0 0 53 53">
  <g id="Group_482" data-name="Group 482" transform="translate(-4498 -198)">
    <g id="Group_481" data-name="Group 481" transform="translate(4498 198)">
      <path id="Path_1132" data-name="Path 1132" d="M4529.514,347.326a.828.828,0,0,0-.828.828v24.134h-3.065v-15.3a.828.828,0,1,0-1.656,0v15.3H4520.9V348.154a.828.828,0,1,0-1.656,0v24.963a.828.828,0,0,0,.828.828h9.442a.828.828,0,0,0,.828-.828V348.154A.828.828,0,0,0,4529.514,347.326Z" transform="translate(-4515.49 -320.945)" fill="#78d8bb"/>
      <path id="Path_1133" data-name="Path 1133" d="M4511.5,262.691a6.186,6.186,0,0,0,.54-8.581.819.819,0,0,0-.089-.1,6.189,6.189,0,0,0-9.3,0,.849.849,0,0,0-.075.083,6.187,6.187,0,0,0,.528,8.593,5.3,5.3,0,0,0-5.1,5.283v12.121a.828.828,0,0,0,1.656,0V267.973a3.64,3.64,0,0,1,3.636-3.636h.784l2.543,3.711a.828.828,0,0,0,1.366,0l2.544-3.711h.783a3.64,3.64,0,0,1,3.637,3.636v12.121a.828.828,0,0,0,1.656,0V267.973A5.3,5.3,0,0,0,4511.5,262.691Zm-1.546-8.268a8.106,8.106,0,0,1-5.307,0,4.528,4.528,0,0,1,5.307,0Zm-7.212,3.7a4.527,4.527,0,0,1,.7-2.419,9.458,9.458,0,0,0,7.715,0,4.557,4.557,0,1,1-8.417,2.419Zm4.559,7.993-1.218-1.778h2.438Z" transform="translate(-4498 -242.383)" fill="#78d8bb"/>
      <path id="Path_1134" data-name="Path 1134" d="M4724.095,347.09a.828.828,0,0,0-.828.828v24.176h-3.073V356.77a.828.828,0,1,0-1.656,0v15.324h-3.073V347.918a.828.828,0,1,0-1.656,0v25a.828.828,0,0,0,.828.828h9.458a.828.828,0,0,0,.828-.828v-25A.828.828,0,0,0,4724.095,347.09Z" transform="translate(-4675.682 -320.751)" fill="#78d8bb"/>
      <path id="Path_1135" data-name="Path 1135" d="M4706.05,262.314a6.2,6.2,0,0,0,.543-8.6.866.866,0,0,0-.089-.1,6.2,6.2,0,0,0-9.315,0,.736.736,0,0,0-.08.087,6.2,6.2,0,0,0,.535,8.6,5.3,5.3,0,0,0-5.114,5.29v12.141a.828.828,0,0,0,1.656,0V267.6a3.648,3.648,0,0,1,3.644-3.644h.785l2.548,3.717a.828.828,0,0,0,1.366,0l2.548-3.717h.785a3.648,3.648,0,0,1,3.644,3.644v12.141a.828.828,0,0,0,1.656,0V267.6A5.3,5.3,0,0,0,4706.05,262.314Zm-1.542-8.283a8.118,8.118,0,0,1-5.321,0,4.535,4.535,0,0,1,5.321,0Zm-7.229,3.705a4.534,4.534,0,0,1,.7-2.425,9.47,9.47,0,0,0,7.728,0,4.565,4.565,0,1,1-8.432,2.425Zm4.568,8.009-1.223-1.784h2.446Z" transform="translate(-4658.164 -242.058)" fill="#78d8bb"/>
      <path id="Path_1136" data-name="Path 1136" d="M4599.755,236.437a.827.827,0,0,0,1.171,0l2.691-2.691a.828.828,0,0,0,0-1.171l-2.691-2.691a.828.828,0,1,0-1.171,1.171l1.277,1.278h-18.36l1.237-1.238a.828.828,0,0,0-1.171-1.171l-2.691,2.691a.828.828,0,0,0,0,1.171l2.691,2.692a.828.828,0,0,0,1.171-1.171l-1.317-1.318h18.44l-1.277,1.278A.827.827,0,0,0,4599.755,236.437Z" transform="translate(-4565.353 -224.051)" fill="#78d8bb"/>
      <path id="Path_1137" data-name="Path 1137" d="M4609.57,201.07l.243-.242V203.8a.828.828,0,0,0,1.656,0v-4.969a.828.828,0,0,0-1.414-.585L4608.4,199.9a.828.828,0,1,0,1.171,1.171Z" transform="translate(-4588.696 -198)" fill="#78d8bb"/>
      <path id="Path_1138" data-name="Path 1138" d="M4637.109,211.379a.828.828,0,0,0,.828-.828v-1.656c0-.763.428-1.035.829-1.035s.828.272.828,1.035v1.656a.828.828,0,0,0,1.656,0v-1.656c0-.763.428-1.035.829-1.035s.827.272.827,1.035v1.656a.828.828,0,0,0,1.656,0v-1.656a2.505,2.505,0,0,0-2.483-2.691,2.462,2.462,0,0,1-3.312,0,2.477,2.477,0,0,0-1.229.329.824.824,0,0,0-1.255.706v3.312A.828.828,0,0,0,4637.109,211.379Z" transform="translate(-4611.851 -204.754)" fill="#78d8bb"/>
    </g>
  </g>
</svg>
