<svg xmlns="http://www.w3.org/2000/svg" width="38.306" height="53.139" viewBox="0 0 38.306 53.139">
  <g id="Group_479" data-name="Group 479" transform="translate(0 0)">
    <g id="Group_470" data-name="Group 470" transform="translate(0 0)">
      <g id="Group_469" data-name="Group 469" transform="translate(0 0)">
        <path id="Path_1116" data-name="Path 1116" d="M2343.606-451.117c1.336-4.524,3.572-12.1,3.572-16.1,0-8.131-2.488-21.771-19.153-21.771-6.811,0-11.94,2.427-15.244,7.215-3.231,4.683-3.91,10.5-3.91,14.556,0,3.954,2.009,10.416,3.338,14.691.482,1.55.863,2.775.975,3.337,0,.009.006.017.008.026.774,3.518,2.49,8.3,3.339,9.145,2.182,2.182,7.661,4.17,11.494,4.17,3.464,0,9.036-1.712,11.493-4.17.98-.98,2.285-4.457,3.081-7.518a.848.848,0,0,0,.041-.138c.01-.05.025-.113.039-.175q.035-.14.069-.278C2342.918-448.786,2343.23-449.843,2343.606-451.117Zm-.773-3.271a9.156,9.156,0,0,0-2.59-4.053,42.5,42.5,0,0,0,4.327-2.527C2344.064-458.773,2343.427-456.452,2342.833-454.389Zm-25.248-4.99c-2.949-1.262-6.2-3-6.518-3.682-.01-.024-.023-.045-.034-.067a27.812,27.812,0,0,1-.434-2.854,12.426,12.426,0,0,0,2.618,2.106.83.83,0,0,0,.767.029.829.829,0,0,0,.463-.612,32.022,32.022,0,0,1,2.105-7.183,21.216,21.216,0,0,1,4.016-4.878c1.166,1.2,3.886,3.818,6.257,4.834a47.358,47.358,0,0,0,8.926,2.239.832.832,0,0,0,.667-.19.83.83,0,0,0,.29-.63,13.971,13.971,0,0,0-.932-4.671c-.078-.195-.158-.384-.239-.567a24.294,24.294,0,0,1,4.608,2.822c2.351,1.959,5.081,6.277,5.125,8.107,0,.009,0,.018,0,.027q-.069.451-.154.925c-.01.021-.023.04-.032.062-.324.685-3.648,2.676-6.665,4.181-.877-.27-1.83-.637-2.838-1.029-2.367-.92-5.049-1.964-7.56-1.964-2.765,0-5.942,1.25-8.5,2.255C2318.828-459.842,2318.165-459.583,2317.585-459.379Zm10.44-27.945c13.734,0,17.158,9.868,17.466,18.72a20.955,20.955,0,0,0-4.283-5.355,31.8,31.8,0,0,0-7.2-4.059.829.829,0,0,0-.946.238.831.831,0,0,0-.067.973,17.582,17.582,0,0,1,1.242,2.486,12.119,12.119,0,0,1,.742,3.06,40.8,40.8,0,0,1-7.5-1.95c-2.718-1.164-6.222-4.992-6.257-5.031a.83.83,0,0,0-1.161-.066c-.147.129-3.629,3.193-5,5.925a29.213,29.213,0,0,0-2.014,6.392,7.574,7.574,0,0,1-2.47-3.006C2310.947-475.647,2313.637-487.324,2328.025-487.324Zm-16.4,26.805a35.653,35.653,0,0,0,4.125,2.15,8.886,8.886,0,0,0-2.453,3.749C2312.754-456.4,2312.14-458.475,2311.627-460.519Zm26.718,19.33c-1.927,1.928-6.846,3.683-10.319,3.683-3.349,0-8.461-1.824-10.316-3.68-.532-.584-2.163-5.029-2.891-8.279,0-.015,0-.03,0-.046-.021-.1-.05-.226-.083-.358a11.063,11.063,0,0,1-.272-2.076c0-2.3,1.7-5.2,3.359-5.756.683-.228,1.478-.541,2.32-.872,2.423-.953,5.438-2.139,7.887-2.139,2.2,0,4.618.941,6.958,1.851,1.159.451,2.254.877,3.284,1.171,1.667.476,3.438,3.663,3.384,6.089a14.9,14.9,0,0,1-.424,2.73c-.1.362-.172.659-.216.875,0,.005,0,.01,0,.016C2340.279-445.15,2339.087-441.932,2338.344-441.189Z" transform="translate(-2308.872 488.985)" fill="#78d8bb"/>
        <path id="Path_1117" data-name="Path 1117" d="M2437.4-357.6a.825.825,0,0,0,.371.088.83.83,0,0,0,.743-.459,2.615,2.615,0,0,1,2.311-1.286,3.913,3.913,0,0,1,2.826,1.413.83.83,0,0,0,1.162.166.83.83,0,0,0,.166-1.162,5.539,5.539,0,0,0-4.154-2.077,4.292,4.292,0,0,0-3.8,2.2A.83.83,0,0,0,2437.4-357.6Z" transform="translate(-2414.255 383.601)" fill="#78d8bb"/>
        <path id="Path_1118" data-name="Path 1118" d="M2357.375-357.963a.83.83,0,0,0,.74.453.823.823,0,0,0,.371-.088.83.83,0,0,0,.372-1.114,4.293,4.293,0,0,0-3.8-2.2,5.54,5.54,0,0,0-4.154,2.077.83.83,0,0,0,.166,1.162.83.83,0,0,0,1.162-.166,3.914,3.914,0,0,1,2.826-1.413A2.635,2.635,0,0,1,2357.375-357.963Z" transform="translate(-2343.324 383.601)" fill="#78d8bb"/>
        <path id="Path_1119" data-name="Path 1119" d="M2371.263-343.688a.834.834,0,0,0-.833.833.834.834,0,0,0,.833.833.834.834,0,0,0,.833-.833A.834.834,0,0,0,2371.263-343.688Z" transform="translate(-2359.527 369.425)" fill="#78d8bb"/>
        <path id="Path_1120" data-name="Path 1120" d="M2455-343.688a.834.834,0,0,0-.832.833.834.834,0,0,0,.832.833.834.834,0,0,0,.833-.833A.834.834,0,0,0,2455-343.688Z" transform="translate(-2428.432 369.425)" fill="#78d8bb"/>
        <path id="Path_1121" data-name="Path 1121" d="M2403.749-292.538a21.383,21.383,0,0,0-2.766-.341,21.385,21.385,0,0,0-2.766.341.83.83,0,0,0-.668.966.831.831,0,0,0,.816.682.846.846,0,0,0,.15-.013,20.015,20.015,0,0,1,2.469-.314,20.058,20.058,0,0,1,2.469.314.831.831,0,0,0,.965-.669A.831.831,0,0,0,2403.749-292.538Z" transform="translate(-2381.829 327.616)" fill="#78d8bb"/>
      </g>
    </g>
  </g>
</svg>
