<svg xmlns="http://www.w3.org/2000/svg" xmlns:xlink="http://www.w3.org/1999/xlink" width="113.418" height="97.137" viewBox="0 0 113.418 97.137"><defs><style>.a_history-notifications-empty{opacity:0.6;fill:url(#a);}.b_history-notifications-empty,.f_history-notifications-empty{fill:none;stroke-linecap:round;}.b_history-notifications-empty{stroke:#0052a5;stroke-width:2px;}.c_history-notifications-empty,.d_history-notifications-empty{fill:#0052a5;}.c_history-notifications-empty{opacity:0.1;}.e_history-notifications-empty{fill:#ff5721;}.f_history-notifications-empty{stroke:#fff;stroke-linejoin:round;stroke-width:3px; }</style><linearGradient id="a" x1="0.5" x2="0.5" y2="1" gradientUnits="objectBoundingBox"><stop offset="0" stop-color="#e5edf6"/><stop offset="0.241" stop-color="#ebf1f8"/><stop offset="1" stop-color="#fff"/></linearGradient></defs><g transform="translate(-131 -157.768)"><path class="a_history-notifications-empty" d="M-7326.326,19122.16c11.561-30.463,70.231-47.445,88.576-24.244s20.826,55.412,0,73.818-60.8,14.385-83.3,1.6S-7337.886,19152.619-7326.326,19122.16Z" transform="translate(7467.464 -18929.344)"/><g transform="translate(85.708 0.541) rotate(14)"><line class="b_history-notifications-empty" x2="2.908" y2="3.397" transform="translate(164.103 196.083)"/><line class="b_history-notifications-empty" x2="3.153" y2="0.245" transform="translate(167.99 186.869)"/><line class="b_history-notifications-empty" x1="0.244" y2="3.154" transform="translate(154.398 199.471)"/></g><g transform="translate(155.014 187.941) rotate(-21)"><path class="c_history-notifications-empty" d="M48.507,39.138a21.146,21.146,0,0,1-3.873-4.2,17.146,17.146,0,0,1-2.083-6.9V20.955c.021-7.817-6.223-14.425-14.566-15.416V3.689a2.065,2.065,0,0,0-4.12,0V5.568C15.6,6.629,9.452,13.2,9.469,20.955v7.084a17.146,17.146,0,0,1-2.083,6.9,21.11,21.11,0,0,1-3.811,4.2,1.393,1.393,0,0,0-.525,1.076v1.95A1.492,1.492,0,0,0,4.593,43.6h42.9a1.491,1.491,0,0,0,1.543-1.434v-1.95A1.393,1.393,0,0,0,48.507,39.138Z" transform="translate(-3.05 -1.775)"/><path class="d_history-notifications-empty" d="M48.507,39.138a21.146,21.146,0,0,1-3.873-4.2,17.146,17.146,0,0,1-2.083-6.9V20.955c.021-7.817-6.223-14.425-14.566-15.416V3.689a2.065,2.065,0,0,0-4.12,0V5.568C15.6,6.629,9.452,13.2,9.469,20.955v7.084a17.146,17.146,0,0,1-2.083,6.9,21.11,21.11,0,0,1-3.811,4.2,1.393,1.393,0,0,0-.525,1.076v1.95A1.492,1.492,0,0,0,4.593,43.6h42.9a1.491,1.491,0,0,0,1.543-1.434v-1.95A1.393,1.393,0,0,0,48.507,39.138ZM6.259,40.73a23.614,23.614,0,0,0,3.765-4.3,19.338,19.338,0,0,0,2.546-8.389V20.955a12.354,12.354,0,0,1,6.6-11.207,14.373,14.373,0,0,1,13.748,0,12.354,12.354,0,0,1,6.6,11.207v7.084a19.338,19.338,0,0,0,2.546,8.389,23.614,23.614,0,0,0,3.765,4.3Z" transform="translate(-3.05 -1.775)"/><path class="e_history-notifications-empty" d="M19.455,35.27A4.029,4.029,0,0,0,23.436,32H15.32a4.042,4.042,0,0,0,4.135,3.27Z" transform="translate(3.613 11.345)"/></g><path class="f_history-notifications-empty" d="M-.4,6.811A14.647,14.647,0,0,1,.879,2.557,13.463,13.463,0,0,1,3.809-.777" transform="translate(174.069 190.5)"/></g></svg>
