<svg xmlns="http://www.w3.org/2000/svg" xmlns:xlink="http://www.w3.org/1999/xlink" width="312.291" height="136.25" viewBox="0 0 312.291 136.25">
    <defs>
        <style>
            .how-it-works-a,
            .how-it-works-b,
            .how-it-works-c,
            .how-it-works-d,
            .how-it-works-g,
            .how-it-works-h,
            .how-it-works-i,
            .how-it-works-v{fill:none;stroke-miterlimit:10;stroke-width:0.5px;}
            .how-it-works-a,
            .how-it-works-b,
            .how-it-works-c,
            .how-it-works-d,
            .how-it-works-g,
            .how-it-works-h,
            .how-it-works-i{stroke:rgba(0,82,165,0.5);}
            .how-it-works-b{opacity:0.757;}
            .how-it-works-c{opacity:0.513;}
            .how-it-works-d{opacity:0.27;}
            .how-it-works-e,.u{fill:#0052a5;}
            .how-it-works-f{fill:#438ad1;}
            .how-it-works-g{opacity:0.733;}
            .how-it-works-h{opacity:0.467;}
            .how-it-works-i{opacity:0.2;}
            .how-it-works-j{fill:#4d4d4d;stroke:#4d4d4d;stroke-linejoin:round;stroke-width:3px;}
            .how-it-works-j,
            .how-it-works-v{stroke-linecap:round;}
            .how-it-works-k{fill:#fbd3b9;}
            .how-it-works-l{fill:#d6b6a0;}
            .how-it-works-m{opacity:0.13;}
            .how-it-works-n{fill:#e5edf6;}
            .how-it-works-o{opacity:0.14;}
            .how-it-works-p{fill:#757575;}
            .how-it-works-q{fill:#a04a48;}
            .how-it-works-r{fill:#fbf0b8;}
            .how-it-works-s{fill:#fff;}
            .how-it-works-t{fill:#d5233f;}
            .how-it-works-t,
            .how-it-works-u{font-size:10px;font-family:OpenSans-Bold, Open Sans;font-weight:700;letter-spacing:0.11em;}
            .how-it-works-v{stroke:#050505;}
            .how-it-works-w{filter:url(#c);}
            .how-it-works-x{filter:url(#a);}
        </style>
        <filter id="a" x="54.623" y="22.25" width="116" height="33" filterUnits="userSpaceOnUse">
            <feOffset dx="2" dy="2" input="SourceAlpha"/>
            <feGaussianBlur stdDeviation="1" result="b"/>
            <feFlood flood-color="#0052a5" flood-opacity="0.2"/>
            <feComposite operator="in" in2="b"/>
            <feComposite in="SourceGraphic"/>
        </filter>
        <filter id="c" x="137.623" y="86.19" width="115" height="34.06" filterUnits="userSpaceOnUse">
            <feOffset dx="2" dy="2" input="SourceAlpha"/>
            <feGaussianBlur stdDeviation="1" result="d"/>
            <feFlood flood-color="#0052a5" flood-opacity="0.2"/>
            <feComposite operator="in" in2="d"/>
            <feComposite in="SourceGraphic"/>
        </filter>
    </defs>
    <g transform="translate(-39.377 10.25)">
        <circle class="how-it-works-a" cx="13" cy="13" r="13" transform="translate(95.5 53.5)"/>
        <circle class="how-it-works-b" cx="22.667" cy="22.667" r="22.667" transform="translate(85.833 43.833)"/>
        <circle class="how-it-works-c" cx="32.333" cy="32.333" r="32.333" transform="translate(76.167 34.167)"/>
        <circle class="how-it-works-d" cx="42" cy="42" r="42" transform="translate(66.5 24.5)"/>
        <rect class="how-it-works-e" width="10.981" height="18.065" rx="1" transform="translate(108.638 59.45) rotate(43)"/>
        <rect class="how-it-works-f" width="9.645" height="16.327" rx="1" transform="translate(108.69 60.373) rotate(43)"/>
        <circle class="how-it-works-a" cx="16.56" cy="16.56" r="16.56" transform="translate(231.94 26.94)"/>
        <circle class="how-it-works-g" cx="28.873" cy="28.873" r="28.873" transform="translate(219.627 14.627)"/>
        <circle class="how-it-works-h" cx="41.187" cy="41.187" r="41.187" transform="translate(207.313 2.313)"/>
        <circle class="how-it-works-i" cx="53.5" cy="53.5" r="53.5" transform="translate(195 -10)"/>
        <path class="how-it-works-j" d="M241.5,41.5l7,25,10-3-7-26Z"/>
        <path class="how-it-works-k" d="M250,75s-7-8-5-18c.809-4.043,5.694-9.941,8.764-11.226C258,44,258,47,257,48a3.1,3.1,0,0,1-2,1s3-1,4,0a1.875,1.875,0,0,1,0,3,3.1,3.1,0,0,1-2,1s2.368-.265,3,1c1,2-2,3-2,3a2.054,2.054,0,0,1,2,3c-.632,1.9-2-1-4,1s0,7.394,0,11C256,78,252,76,250,75Z"/>
        <path class="how-it-works-k" d="M313,40.87s-2.408,5.956-.872,7.582,5.247,2.4,5.247,2.4S316,63.87,305,61.87s-9.581-4.946-9.581-4.946a36.176,36.176,0,0,0,.534-8.165C295.637,44.3,306,40.87,306,40.87Z"/>
        <path class="how-it-works-l" d="M313.185,41.094s-2.871,6.581-.871,7.581c.3,2.183-1.276,3.287-6.853,5.936-8.041,3.82-9.7,0-9.7,0s.162-1.721.381-5.628c.251-4.465,10.046-7.888,10.046-7.888Z"/>
        <path class="how-it-works-m" d="M250,75c2,1,6,3,6-3,0-3.606-2-9,0-11s3.368.9,4-1a6.107,6.107,0,0,1-1.794-.336c-.942-.333-2.716-1-3.658.831-.545,1.058-.277,4.49-.222,5.764s1.386,5.82-.72,7.261A7.464,7.464,0,0,1,250,75Z"/>
        <path class="how-it-works-k" d="M245,62s-1-8-2-10-3-4-1-4,3,1,4,3a9.965,9.965,0,0,1,1,4Z"/>
        <path class="how-it-works-f" d="M56.229,60.5A51.812,51.812,0,0,1,75.42,68c8.43,5.711,7.381,15.5,4.429,19.5s-2.952,16-3.937,25c-.691,6.32.8,9.435,3.116,13.5H39.377a103.631,103.631,0,0,1,5.534-19C53.444,84.576,42.451,58.5,56.229,60.5Z"/>
        <path class="how-it-works-m" d="M53,74s-4.406-3.907-4,3a10.289,10.289,0,0,1-1,3s.882,6.608,1,7c3,10,8,16,15,20,2.068,1.182,7.566-1.88,12.831-5.632.2-.144.607-.436.607-.436L78,96s-5.056-3.472-8-2c-4,2-8-15-9-24S53,64,53,74Z"/>
        <path class="how-it-works-k" d="M46.5,69.5S46,75,49,85s8,16,15,20c3.684,2.105,18.257-9.257,23-14,7-7,13-9,13-9l-8-4S73.688,90.156,70,92c-4,2-8-15-9-24S46.5,59.5,46.5,69.5Z"/>
        <path class="how-it-works-k" d="M74.829,67.726S66.5,60.5,69.5,58.5,73,61,77,56c2.742-3.428,4.285-13.278,3-21-.589-3.541-.834-6.834-3.5-8.5-8-5-25-5-23,16,1.709,17.947,8,21,10,23S73.159,74.953,74.829,67.726Z"/>
        <path class="how-it-works-l" d="M58.486,48.69A74.731,74.731,0,0,0,66,55a30.747,30.747,0,0,0,5.7,3A16.64,16.64,0,0,1,65,56c-4-2,2,5,0,6-1.753.876-3.72,1.236-5,0-1.325-1.28-.218-7.1-1-8A4.093,4.093,0,0,1,58.486,48.69Z"/>
        <path class="how-it-works-m" d="M98.878,69.656a6,6,0,0,1,2.289-1.573c3.666-1-3.653,7.347.916,6.966,3.9-.326,7.808-2.361,10.036-3.166C113.292,71.46,110,74.314,110,75c0,2.985-5.25,3-8,3C97.417,78,95.731,72.721,98.878,69.656Z"/>
        <path class="how-it-works-k" d="M90,80s6.5-10.126,10-11c4-1-3.985,7.383,1,7,3.516-.27,7.031-1.711,9.518-2.66l.376-.143s1.573-2.11,2.106-2.2c.606-.1,1,1.541,1,2,0,3-7,10-10,10-5,0-11,3-11,3Z"/>
        <path class="how-it-works-n" d="M317.424,50.635s-6.061,11.9-14.436,9.8-7.942-5.876-11.083-5.876-9.127,4.033-11.221,7.174c-3.9,5.843-12.437,29.327-15.384,26.969-5.235-4.188-8.979-16.788-8.979-16.788l-12.083,4.877s12.163,27.091,18.444,31.278S277,99.277,278.934,95.417c3.141-6.281,6.319-13.634,6.319-13.634s-.526,18.74-.844,26.061c-.28,6.442-1.058,13.234-1.72,18.156h41.735l2.643-49.858s9.685,8.644,12.039,17.274c3.14,11.515-13.62,32.584-13.62,32.584s9.461-.036,15.627-.036c4.465-9.011,10.555-22.881,10.555-31.5,0-13.61-15.561-36.634-20.958-39.419A59.724,59.724,0,0,0,317.424,50.635Z"/>
        <path class="how-it-works-k" d="M295.881,51.916c5.16.323,10.635-.451,17.423-7.025,6.781-7.911,6.737-9.589,6.737-9.589a34.691,34.691,0,0,0,2-5c1.131-3.39,2.305-6.854,0-8-2.263-1.124-1.956,2.245-1.956,2.245s0-12.432-6.781-12.432-19.213-2.26-22.6,7.912S289.4,50.286,295.881,51.916Z"/>
        <path class="how-it-works-o" d="M298,29s-4,8-3,10,5,1,5,1-4,0-4-2S298,29,298,29Z"/>
        <path class="how-it-works-p" d="M301.063,25.048c-.043-.878,4.175-1.153,6.326-.543,2.258.641,2.627,1.791,2.75,2.288a6.2,6.2,0,0,0-5.128-1.829C302.763,25.381,301.149,25.46,301.063,25.048Z"/>
        <path class="how-it-works-q" d="M294,44h8a4.38,4.38,0,0,0,3-1s-.9,3-6,3C293,46,294,44,294,44Z"/>
        <path class="how-it-works-r" d="M59,39s5.2-2.057,12-4c7-2,9-5,9-5a13.337,13.337,0,0,0-7-9c-7.642-3.821-15.478-.557-22,5-4.786,4.254-7,12-8,20s-2.676,11.047-1,12,2.056,1.266,7.607,2.854S64,61,64,61s-5-8-6-14A12.56,12.56,0,0,1,59,39Z"/>
        <path class="how-it-works-k" d="M60,39s-1-3-3-1-1.812,9.326.094,9.663S60,47,60,46Z"/>
        <path d="M79,38a5.878,5.878,0,0,0-5,0c-2.854,1.187-3,2-3,2s3-2,5-2S79,39,79,38Z"/>
        <path class="how-it-works-k" d="M80,38.73s2,6,2,8-1,2-2,2-2,0-2-1v-2"/>
        <g class="how-it-works-x" transform="matrix(1, 0, 0, 1, 39.38, -10.25)">
            <path class="how-it-works-s" d="M205,19.22v4.56A6.214,6.214,0,0,1,198.78,30H116.85l-5.78,10-5.78-10h-4.07A6.214,6.214,0,0,1,95,23.78V19.22A6.214,6.214,0,0,1,101.22,13h97.56A6.214,6.214,0,0,1,205,19.22Z" transform="translate(-39.38 10.25)"/>
        </g>
        <text class="how-it-works-t" transform="translate(100.367 13.974)">
            <tspan x="0" y="11">D7297H678DF39F</tspan>
        </text>
        <g class="how-it-works-w" transform="matrix(1, 0, 0, 1, 39.38, -10.25)">
            <path class="how-it-works-s" d="M287,94.19v4.62a6.188,6.188,0,0,1-6.19,6.19H184.19A6.188,6.188,0,0,1,178,98.81V94.19A6.188,6.188,0,0,1,184.19,88h62.49l6.39-11.06L259.46,88h21.35A6.188,6.188,0,0,1,287,94.19Z" transform="translate(-39.38 10.25)"/>
        </g>
        <text class="how-it-works-u" transform="translate(185.367 88.974)">
            <tspan x="0" y="11">0B1U59AV01ZR6</tspan>
        </text>
        <path class="how-it-works-p" d="M317,30s.827-.054,2-2c1.956-3.245,4-3,4-3s1.5-14.5-1.5-15.5S311,4,300,6s-15.5,11.051-9.5,12.776,11,2.724,17,.724,6-5,7,1A45.328,45.328,0,0,0,317,30Z"/>
        <path class="how-it-works-k" d="M318.47,28.136S319.586,24,322.173,24s.862,6.9,0,8.621S317,38.656,317,35.208"/>
        <path class="how-it-works-l" d="M319.553,29.149s1.672-2.772,2.336-1.994-.456,5.773-1.957,6.381-.721-.057-.664-.779-1.329-1.557-.608-1.5,1.444.114,1.5-.608A2.528,2.528,0,0,0,319.553,29.149Z"/>
        <path class="how-it-works-l" d="M58.636,42.268s-.6-2.5-1.288-2.07-1.042,4.478-.053,5.3.56.13.69-.43,1.38-.859.82-.989-1.119-.261-.989-.82A2.007,2.007,0,0,1,58.636,42.268Z"/>
        <path class="how-it-works-m" d="M108.175,77.205a18.82,18.82,0,0,0,3.935-1.441,8.846,8.846,0,0,0,1.33-1.025s.032.774-1.968,1.774A5.287,5.287,0,0,1,108.175,77.205Z"/>
        <path class="how-it-works-m" d="M106.9,79.284a18.881,18.881,0,0,0,3.935-1.441,8.812,8.812,0,0,0,1.33-1.026s.033.774-1.967,1.774A5.3,5.3,0,0,1,106.9,79.284Z"/>
        <path class="how-it-works-m" d="M105.62,81.268a14.642,14.642,0,0,0,2.808-.908,6.239,6.239,0,0,0,.949-.645s.024.487-1.4,1.117A4.226,4.226,0,0,1,105.62,81.268Z"/>
        <path class="how-it-works-s" d="M295.395,52.323c5.16.324,10.634-.451,17.423-7.025,6.781-7.911-24.346-16.145-24.179-11.183C288.929,42.784,291.276,51.287,295.395,52.323Z"/>
        <ellipse cx="0.56" cy="0.698" rx="0.56" ry="0.698" transform="translate(75.218 40.277)"/>
        <path d="M76.426,39.976h0Z"/>
        <path class="how-it-works-s" d="M63.72,52.05c-.12.15-.23.27-.33.38l.32-.38Z"/>
        <path class="how-it-works-s" d="M73.66,58.46c-4.16.04-10.57-5.68-10.57-5.68a14.614,14.614,0,0,1-4.93-5.04c.3.29,3.44,3.4,5.55,4.31l-.32.38c.1-.11.21-.23.33-.38h-.01L67.9,47.1s-6.49-2.73-8.12-8.59c.17.34,3.02,5.81,8.76,7.83A36.358,36.358,0,0,0,82,45.35C83.04,47.29,77.82,58.42,73.66,58.46Z"/>
        <path class="how-it-works-s" d="M63.72,52.05c-.12.15-.23.27-.33.38l.32-.38Z"/>
        <path class="how-it-works-s" d="M313.149,41.272c-.222-.213-.438-.442-.725-.685,1.858-.141,7.161-4.877,7.161-4.877S314.9,41.02,313.149,41.272Z"/>
        <path class="how-it-works-s" d="M307.241,36.855c-.221-.212-.438-.442-.724-.684C309.14,35.993,317,30,317,30S309.487,36.855,307.241,36.855Z"/>
        <path class="how-it-works-p" d="M296.64,24.322c.172-.861-4-1.972-6.178-1.465-.463.142-1.106.242-1.4.691,0,0,.317-.927,3.668-.091C294.9,24.2,296.495,24.717,296.64,24.322Z"/>
        <ellipse class="how-it-works-e" cx="0.778" cy="0.624" rx="0.778" ry="0.624" transform="matrix(0.236, -0.972, 0.972, 0.236, 291.626, 27.626)"/>
        <ellipse class="how-it-works-e" cx="0.778" cy="0.624" rx="0.778" ry="0.624" transform="translate(303.761 29.374) rotate(-73.024)"/>
        <path class="how-it-works-v" d="M305.381,28.19"/>
        <path class="how-it-works-v" d="M302.628,27.9"/>
        <path class="how-it-works-e" d="M324.436,125.775"/>
        <path class="how-it-works-e" d="M324.663,125.964"/>
        <path class="how-it-works-e" d="M341.206,125.775"/>
    </g>
</svg>
