<svg xmlns="http://www.w3.org/2000/svg" width="77.307" height="110.428" viewBox="0 0 77.307 110.428"><defs><style>.a_how-it-works-image{fill:#f4e4ef;}.b_how-it-works-image{fill:#325a74;}.c_how-it-works-image{fill:#fbd3b9;}.d_how-it-works-image{opacity:0.13;}.e_how-it-works-image{fill:#c4c4c4;}.f_how-it-works-image{fill:#2757a4;}.g_how-it-works-image{fill:#919191;}.h_how-it-works-image{opacity:0.2;}.i_how-it-works-image{fill:#feccb5;}.j_how-it-works-image{fill:#fff;}.k_how-it-works-image{fill:#e73755;}</style></defs><g transform="translate(-1617.217 -15411.205)"><path class="a_how-it-works-image" d="M35.314,95.371s-2.244-3.766-1.923-5.129,1.2-2,9.7-5.369S57.673,78.7,59.837,77.9s2.965.16,3.526,1.042,2.084,4.488,2.084,4.488S41.484,95.131,35.314,95.371Z" transform="translate(1612.33 15407.831)"/><path class="b_how-it-works-image" d="M37.878,107.151a80.566,80.566,0,0,1-3.606-7.373c-.641-1.924-1.122-3.606,2.805-5.449s23.56-9.7,26.365-10.819,5.129-3.366,7.613,2.484S82.194,113.8,82.194,113.8Z" transform="translate(1612.33 15407.831)"/><path class="c_how-it-works-image" d="M60.317,78.622a31.233,31.233,0,0,1,1.2-12.582c2.084-6.571,3.366-9.216.962-16.829s-3.606-9.136-3.526-14.505c.059-3.927.08-6.812-1.122-7.453-.825-.44-4.808-.481-4.969,4.568s-29.811,44.4-29.811,44.4,7.533,6.01,9.3,8.254,2.965,4.087,2.965,4.087Z" transform="translate(1612.33 15407.831)"/><path class="d_how-it-works-image" d="M23.053,76.218l1.2.988s18.655,1.09,23.32.935c4.808-.16,6.812-3.847,6.812-7.373,0-2.54-1.229-20.061-1.069-35.287a34.263,34.263,0,0,1,.748-7.266s-2.244,2.564-2.324,8.9C51.685,41.6,23.053,76.218,23.053,76.218Z" transform="translate(1612.33 15407.831)"/><path class="e_how-it-works-image" d="M47.317,76.138H17.861a5.413,5.413,0,0,1-5.413-5.413V8.787a5.413,5.413,0,0,1,5.413-5.413H47.317A5.413,5.413,0,0,1,52.73,8.787V70.725A5.413,5.413,0,0,1,47.317,76.138Z" transform="translate(1612.33 15407.831)"/><path class="f_how-it-works-image" d="M49.614,66.521H15.671a1.583,1.583,0,0,1-1.583-1.583V9.658a1.583,1.583,0,0,1,1.583-1.583H49.614A1.583,1.583,0,0,1,51.2,9.658V64.939A1.582,1.582,0,0,1,49.614,66.521Z" transform="translate(1612.33 15407.831)"/><circle class="g_how-it-works-image" cx="2.564" cy="2.564" r="2.564" transform="translate(1642.408 15476.704)"/><path class="g_how-it-works-image" d="M38.569,6.365H28.418a.588.588,0,0,1-.588-.588h0a.588.588,0,0,1,.588-.588H38.569a.588.588,0,0,1,.588.588h0A.588.588,0,0,1,38.569,6.365Z" transform="translate(1612.33 15407.831)"/><circle class="g_how-it-works-image" cx="0.591" cy="0.591" r="0.591" transform="translate(1638.308 15413.017)"/><path class="h_how-it-works-image" d="M12.314,35.669s-1.282,1.122-.8,2.324,3.125,3.446,3.766,4.888.721,4.007-.24,5.289a23.467,23.467,0,0,1-1.923,2.244s4.007,3.526,3.366,5.77A9.671,9.671,0,0,1,14,60.111s1.122,1.763.561,3.045a4.634,4.634,0,0,1-2.484,1.923l.4,1.2s1.282,1.523,2.564,1.442S18,65.239,17.685,63.636a4.443,4.443,0,0,0-.882-2.164,8.945,8.945,0,0,0,1.763-5.449,8.876,8.876,0,0,0-2.725-5.61,7.723,7.723,0,0,0,1.683-5.129A8.789,8.789,0,0,0,14,39.033c-1.442-1.2-1.6-1.442-1.6-1.683S12.314,35.669,12.314,35.669Z" transform="translate(1612.33 15407.831)"/><path class="c_how-it-works-image" d="M14.959,60.591S16.4,65.239,13.6,65.8A6.361,6.361,0,0,1,6.7,62.755c-1.363-2.4.561-5.85.561-5.85S4.22,53.78,5.022,50.334s2.484-3.045,2.484-3.045S3.259,43.2,5.743,39.035a8.548,8.548,0,0,1,6.251-4.408s-6.732-2.4-6.01-7.773c.666-4.956,6.464-2.564,6.464-2.564V39.6s4.274,3.366,3.312,6.732S13.6,50.335,13.6,50.335s4.007,3.446,3.286,6.571S14.959,60.591,14.959,60.591Z" transform="translate(1612.33 15407.831)"/><path class="i_how-it-works-image" d="M7.88,43.308a3.865,3.865,0,0,0,.347,3.553c.935,1.149,2.03,2.4,2.885,1.683a4.737,4.737,0,0,0,1.736-2.725c.08-.908.427-1.656-1.2-2.618S8.922,41.973,7.88,43.308Z" transform="translate(1612.33 15407.831)"/><path class="i_how-it-works-image" d="M8.628,53.219a3.4,3.4,0,0,0,.214,3.713c1.122,1.309,1.923,1.736,2.645,1.629a2.022,2.022,0,0,0,1.843-1.71c.374-1.336.481-2.377-1.149-3.553S9.322,52.23,8.628,53.219Z" transform="translate(1612.33 15407.831)"/><path class="i_how-it-works-image" d="M8.147,59.9a3.95,3.95,0,0,0,.4,3.019c.721.988,2.244,1.79,2.591,1.469a4.007,4.007,0,0,0,1.175-2.271,1.681,1.681,0,0,0-.721-1.9,8.217,8.217,0,0,0-2.057-1.336C9.082,58.774,8.548,58.989,8.147,59.9Z" transform="translate(1612.33 15407.831)"/><path class="i_how-it-works-image" d="M58.447,27.975s-1.977-.08-2.19,1.656-.748,4.194.748,5.236,1.576,1.2,1.9,1.1.187-2.458.08-4.888S59.034,28.349,58.447,27.975Z" transform="translate(1612.33 15407.831)"/><path class="d_how-it-works-image" d="M11.994,34.627s-2.217-.588-2-2.124c.155-1.116,2.276-.8,2.2-4.287-.08-3.847-1.189-4.327-1.189-4.327a3.073,3.073,0,0,1,1.442.4c.641.4.053,10.5.053,10.5Z" transform="translate(1612.33 15407.831)"/><path class="d_how-it-works-image" d="M13.6,65.8c2.8-.561,1.362-5.209,1.362-5.209s1.2-.561,1.923-3.686S13.6,50.334,13.6,50.334s1.2-.641,2.164-4.007S12.447,39.6,12.447,39.6V36.817l-.494,3.019s3.486,3.206,3.326,5.583A6.334,6.334,0,0,1,14.05,49a5.713,5.713,0,0,1-1.282,1.282,16.382,16.382,0,0,1,2.671,3.473c.748,1.589,1.122,3.1-.16,4.969a4.835,4.835,0,0,1-1.229,1.389,14.835,14.835,0,0,1,.641,2.832A3.647,3.647,0,0,1,13.6,65.8Z" transform="translate(1612.33 15407.831)"/><g transform="translate(1612.33 15407.831)"><path class="j_how-it-works-image" d="M43.015,31.315H37.921V25.77a2.058,2.058,0,0,0-2.058-2.059H30.3a2.059,2.059,0,0,0-2.059,2.059v4.809l2.377-1.869V26.6a.409.409,0,0,1,.409-.41h4.1a.408.408,0,0,1,.408.41v7.057h.005v.037h6.64a.41.41,0,0,1,.409.408v4.1a.409.409,0,0,1-.409.409H34.582V37.9l-2.929,1.922,2.929,1.921V40.99h8.433a2.059,2.059,0,0,0,2.059-2.058V33.373A2.059,2.059,0,0,0,43.015,31.315Z"/><path class="k_how-it-works-image" d="M35.553,45.484a.407.407,0,0,1-.408.409h-4.1a.409.409,0,0,1-.409-.409V38.425h0v-.036H23.99a.41.41,0,0,1-.409-.409v-4.1a.409.409,0,0,1,.409-.41H31.6v.71l2.929-1.921L31.6,30.334v.757H23.163A2.058,2.058,0,0,0,21.1,33.149v5.559a2.059,2.059,0,0,0,2.059,2.058h5.094v5.546a2.057,2.057,0,0,0,2.057,2.058h5.559a2.059,2.059,0,0,0,2.059-2.058V41.5l-2.378,1.87v2.111Z"/></g></g></svg>
