<svg xmlns="http://www.w3.org/2000/svg" width="38.536" height="39.58" viewBox="0 0 38.536 39.58"><defs><style>.a_i-am-sick-icon-6{fill:none;stroke:#0052a5;stroke-linecap:round;stroke-linejoin:round;stroke-miterlimit:10;stroke-width:2px;}</style></defs><g transform="translate(-53.663 -189.812)"><path class="a_i-am-sick-icon-6" d="M37.422,46.08C18.632,46.08,3.6,30.422,3.6,11.214A2.764,2.764,0,0,1,6.314,8.5h6.681a2.764,2.764,0,0,1,2.714,2.714,19.046,19.046,0,0,0,1.044,6.89,3.011,3.011,0,0,1-.626,2.714L12.16,24.785a28.944,28.944,0,0,0,11.9,12.109l3.967-3.967a2.338,2.338,0,0,1,2.714-.626,18.623,18.623,0,0,0,6.681,1.044,2.764,2.764,0,0,1,2.714,2.714v6.89a7.3,7.3,0,0,1-.626,2.505A2.743,2.743,0,0,1,37.422,46.08Z" transform="translate(51.063 182.312)"/></g></svg>