<svg xmlns="http://www.w3.org/2000/svg" width="70" height="70" viewBox="0 0 70 70"><defs><style>.a_icon-rejestracja{fill:#0052a5;}.b_icon-rejestracja{fill:none;fill-rule:evenodd;}</style></defs><g transform="translate(6 4)"><path class="a_icon-rejestracja" d="M27.446,1a1.159,1.159,0,0,1,.788.305l17.49,16.063a1.12,1.12,0,0,1,.366.827V30.9l.553-.54v0l2.079-2.044a5.9,5.9,0,0,1,8.24,0,5.651,5.651,0,0,1,0,8.1l-2.079,2.047-.247.243-8.547,8.4V61.44a1.144,1.144,0,0,1-1.155,1.135H1.155A1.145,1.145,0,0,1,0,61.44V2.135A1.144,1.144,0,0,1,1.155,1Zm-.454,2.27H2.307V60.305H43.779V49.362l-3.107,3.053a1.163,1.163,0,0,1-.817.331H32.988a1.16,1.16,0,0,1-.833-.349,1.12,1.12,0,0,1-.322-.83l.258-6.493a1.121,1.121,0,0,1,.338-.759L43.782,33.162l0-.011V18.688L26.992,3.27ZM28.36,50.478a1.135,1.135,0,1,1,0,2.27H8.547a1.135,1.135,0,1,1,0-2.27Zm19.1-17.717L34.384,45.607l-.192,4.871h5.186L52.434,37.649l-4.977-4.887Zm-19.1,8.886a1.135,1.135,0,1,1,0,2.27H8.547a1.135,1.135,0,1,1,0-2.27ZM55.33,29.914a3.648,3.648,0,0,0-4.975,0L49.09,31.157l4.977,4.888L55.33,34.8a3.412,3.412,0,0,0,0-4.888Zm-26.97,2.9a1.135,1.135,0,1,1,0,2.27H8.547a1.135,1.135,0,1,1,0-2.27Zm6.249-8.832a1.135,1.135,0,1,1,0,2.27H8.547a1.135,1.135,0,1,1,0-2.27ZM19.673,15.152a1.135,1.135,0,1,1,0,2.27H8.547a1.135,1.135,0,1,1,0-2.27Z" transform="translate(0 -1)"/></g><path class="b_icon-rejestracja" d="M0,0H70V70H0Z"/></svg>