<svg xmlns="http://www.w3.org/2000/svg" width="25.328" height="25.486" viewBox="0 0 25.328 25.486"><defs><style>.a-icon-vaccine,.b{fill:none;stroke:#0052a5;stroke-linecap:round;stroke-width:1.1px;fill-rule:evenodd;}.a-icon-vaccine{stroke-linejoin:round;}</style></defs><g transform="translate(0.778 0.55)"><path class="a-icon-vaccine" d="M10.084,36.424l-1,1L6.4,34.793l1-1.053" transform="translate(-3.295 -16.424)"/><path class="b" d="M4.868,38.44.5,42.808" transform="translate(-0.5 -18.651)"/><path class="a-icon-vaccine" d="M17.9,5.045l5.2,5.147L11.4,22.011,6.2,16.863ZM16.1,7.314l2.947,2.947M14.254,9.156,17.2,12.1m-4.789-1.053L15.359,14m-4.842-1.105,3,2.947M8.675,14.787l3,2.947M16.464,3.524l8.211,8.158m2.526-5L21.307.84,20.1,2.1,22.043,4,19.517,6.577l1.948,1.947L24.043,6l1.9,1.895Z" transform="translate(-3.201 -0.84)"/></g></svg>
