<svg xmlns="http://www.w3.org/2000/svg" width="28" height="25" viewBox="0 0 28 25"><defs><style>.a_icon-no-data{fill:#0052a5;}</style></defs><g transform="translate(0 0)"><path class="a_icon-no-data" d="M28,25H0L14,0,28,25ZM14,3.794,3.187,23.1H24.813Z"/><path class="a_icon-no-data" d="M1.006,10a.942.942,0,0,1-.743-.3A1.242,1.242,0,0,1,0,8.859a1.254,1.254,0,0,1,.257-.853.956.956,0,0,1,.749-.289.93.93,0,0,1,.734.3A1.248,1.248,0,0,1,2,8.859a1.243,1.243,0,0,1-.263.835A.916.916,0,0,1,1.006,10Zm.7-3.438H.314L.023,0H2L1.709,6.561Z" transform="translate(13 11)"/></g></svg>
