<svg xmlns="http://www.w3.org/2000/svg" width="70" height="70" viewBox="0 0 70 70"><defs><style>.a_icon-tlumacz{fill:none;fill-rule:evenodd;}.b_icon-tlumacz{fill:#0052a5;}</style></defs><path class="a_icon-tlumacz" d="M0,0H70V70H0Z"/><g transform="translate(2 2)"><path class="b_icon-tlumacz" d="M47.9,32.877a7.286,7.286,0,0,1,7.022,6.049h9.3a2.423,2.423,0,0,1,2.421,2.42V53.182a2.406,2.406,0,0,1-.921,1.885V64.36a2.423,2.423,0,0,1-2.421,2.42H32.63a2.424,2.424,0,0,1-2.421-2.42V55.323a2.416,2.416,0,0,1-1.316-2.141V41.346a1.044,1.044,0,0,1,.012-.156,2.394,2.394,0,0,1,2.41-2.262h9.769A6.785,6.785,0,0,1,47.9,32.878ZM63.5,55.6H32.419V64.36a.219.219,0,0,0,.211.21H63.292a.219.219,0,0,0,.211-.21Zm-13.634.815a1.1,1.1,0,1,1,0,2.209H45.79a1.1,1.1,0,1,1,0-2.209ZM64.214,41.136H31.285c-.068.005-.134.038-.182.3V53.172a1.149,1.149,0,0,1,.211-.042h33.11V41.346a.218.218,0,0,0-.211-.21Zm-38.685-8.39a41.333,41.333,0,0,1,8.788.815,1.1,1.1,0,1,1-.479,2.157,41.618,41.618,0,0,0-8.62-.763C15.7,34.955,9,37.134,5.284,41.438a12.717,12.717,0,0,0-3.07,8.4h21.2a1.1,1.1,0,1,1,0,2.209H1.178a1.1,1.1,0,0,1-1.092-.938,14.727,14.727,0,0,1,3.527-11.12C7.808,35.135,15.2,32.7,25.529,32.746ZM47.9,35.086a4.625,4.625,0,0,0-4.559,3.577H52.6A5.119,5.119,0,0,0,47.9,35.086ZM25.26,0A15.177,15.177,0,1,1,10.205,15.176,15.133,15.133,0,0,1,25.26,0Zm0,2.209A12.967,12.967,0,1,0,38.1,15.176,12.92,12.92,0,0,0,25.26,2.209Z" transform="translate(0)"/></g></svg>