<svg xmlns="http://www.w3.org/2000/svg" width="25.096" height="23.365" viewBox="0 0 25.096 23.365"><defs><style>.a-icon-map-pl{fill:none;stroke:#0052a5;stroke-linecap:round;stroke-width:1.1px;fill-rule:evenodd;}.b-icon-map-pl{fill:#0052a5;}</style></defs><g transform="translate(-0.412 -0.538)"><g transform="translate(0.962 1.088)"><path class="a-icon-map-pl" d="M13.814,1.585c-.586.426-1.81.639-2.183.266A2.664,2.664,0,0,1,11.1.414c-.053-.373.16-.426-1.757-.16a6.23,6.23,0,0,0-2.982.905c-.852.479-1.81.639-3.354,1.438-1.171.692-1.651.905-1.7,1.651s.426,1.651,0,2.236c-.426.532-.479,1.544,0,1.7s.532.586.479,1.225c-.053.532.053,2.023.053,2.449s.745,1.651.586,2.076-.16.532-.213.639c-.053.16,2.769,1.438,3.035,1.651s.8.852,1.171.958c.373.16.426.319,1.012.319s1.225.16,2.236,1.225c1.065,1.118,1.491.852,1.81,1.118.319.319.426,1.171.958,1.225s.692-.106,1.065.319c.426.426,1.171.373,1.97.373.852,0,1.118-.373,1.6-.426a2.516,2.516,0,0,1,2.023.16,5.509,5.509,0,0,0,2.5.852c.8.053.373-.266.266-.852a2.97,2.97,0,0,1,.532-2.289,16.528,16.528,0,0,1,1.651-2.076c.373-.266,1.171-.532.852-1.491-.319-.905-1.7-2.609-1.651-3.78s.373-1.544.053-1.917c-.266-.426.053-.692.373-1.757a6.813,6.813,0,0,0-.16-3.248c-.16-1.225-.16-1.97-.852-2.449s-.426-.745-.958-.852-1.491.639-3.248.319c-1.81-.319-3.727-.213-4.046-.479-.266-.16-.586.106-.586.106Z" transform="translate(-0.962 -0.088)"/><circle class="b-icon-map-pl" cx="1" cy="1" r="1" transform="translate(10.046 14.086)"/><circle class="b-icon-map-pl" cx="1.5" cy="1.5" r="1.5" transform="translate(5.621 3.883)"/><circle class="b-icon-map-pl" cx="2" cy="2" r="2" transform="translate(12.97 3.546)"/><circle class="b-icon-map-pl" cx="2" cy="2" r="2" transform="translate(14.918 14.206)"/><circle class="b-icon-map-pl" cx="1" cy="1" r="1" transform="translate(10.535 8.444)"/><circle class="b-icon-map-pl" cx="1" cy="1" r="1" transform="translate(16.891 9.927)"/><circle class="b-icon-map-pl" cx="2" cy="2" r="2" transform="translate(4.18 9.825)"/></g></g></svg>
