<svg xmlns="http://www.w3.org/2000/svg" width="25.1" height="32.643" viewBox="0 0 25.1 32.643"><defs><style>.a-icon-death{fill:none;stroke:#0052a5;stroke-linecap:round;stroke-linejoin:round;stroke-width:1.1px;}</style></defs><g transform="translate(-8.95 -3.45)"><g transform="translate(9.5 4)"><g transform="translate(0)"><path class="a-icon-death" d="M15.694,7A100.791,100.791,0,0,0,23.58,19.343,97.262,97.262,0,0,0,34.071,30.314l-3.291,4.8C25.774,29.217,22,24.691,19.466,21.606A50.01,50.01,0,0,1,13.5,12.143S14.254,10.429,15.694,7Z" transform="translate(-10.071 -4.257)"/><line class="a-icon-death" x1="5.486" y2="9.6" transform="translate(12.343 3.429)"/><path class="a-icon-death" d="M30,20.746a21.631,21.631,0,0,0,3.017-4.457,11.159,11.159,0,0,0,1.509-4.114A17.353,17.353,0,0,0,33.017,7.1" transform="translate(-15.257 -4.289)"/><path class="a-icon-death" d="M16.866,28a60.41,60.41,0,0,1-5.074,5.829C10.351,35.2,8.5,37.394,8.5,37.394S9.6,39.04,11.791,42.4c4.937-5.829,7.68-9.394,8.366-10.629" transform="translate(-8.5 -10.857)"/><path class="a-icon-death" d="M16.7,5.743A6.332,6.332,0,0,1,22.049,3a11.293,11.293,0,0,1,6.857,2.743" transform="translate(-11.077 -3)"/><path class="a-icon-death" d="M19.1,10.057C20.677,8.686,21.98,8,23.146,8s2.606.686,4.457,2.057" transform="translate(-11.831 -4.571)"/></g></g></g></svg>
