<svg xmlns="http://www.w3.org/2000/svg" width="25.113" height="24.163" viewBox="0 0 25.113 24.163"><defs><style>.a-icon-recover{fill:none;stroke:#0052a5;stroke-linecap:round;stroke-width:1.1px;}.a-icon-recover,.b{fill-rule:evenodd;}.b{fill:#0052a5;}</style></defs><g transform="translate(-0.284 -0.29)"><g transform="translate(0.84 0.84)"><path class="a-icon-recover" d="M7.7,30.266a8.482,8.482,0,0,0-1.713-3.475c-.832-1.224-4.258-4.063-4.6-4.846A33.552,33.552,0,0,1,.9,14.31c.147-.979.636-.979,1.468-.1a12.067,12.067,0,0,0,2.056,6.363c1.126,1.468,1.958,1.958,2.545,1.615a15.256,15.256,0,0,1-2.1-2.741c-.489-.832-.245-1.37.587-1.615l4.356,4.209s1.175,5.678.881,8.272m4.258-.049c-.245-2.594.881-8.272.881-8.272l4.356-4.209c.832.245,1.076.832.587,1.615a16.552,16.552,0,0,1-2.055,2.741c.587.392,1.37-.147,2.545-1.615s1.811-3.573,2.056-6.363c.832-.881,1.322-.881,1.468.1a33.353,33.353,0,0,1-.489,7.636c-.343.783-3.769,3.622-4.6,4.846a7.884,7.884,0,0,0-1.713,3.475" transform="translate(-0.84 -7.311)"/><path class="b" d="M23.257,12.407h2.5V6.24h-2.5Z" transform="translate(-12.285 -3.597)"/><path class="b" d="M19.5,12.517h6.167v-2.5H19.5Z" transform="translate(-10.366 -5.527)"/><path class="a-icon-recover" d="M19.884.84a5.727,5.727,0,1,1-5.727,5.727A5.727,5.727,0,0,1,19.884.84Z" transform="translate(-7.639 -0.84)"/></g></g></svg>
