<svg xmlns="http://www.w3.org/2000/svg" width="24" height="24" viewBox="0 0 24 24"><defs><style>.a{fill:#0052a5;}</style></defs><g transform="translate(-37.94 -331)"><path class="a" d="M25.523,12.7a.475.475,0,0,0-.477.477V14.5H23.4a9.233,9.233,0,0,0-2.437-5.616l1.272-1.272.954.954a.458.458,0,0,0,.318.159.378.378,0,0,0,.318-.159.453.453,0,0,0,0-.689l-2.6-2.6a.5.5,0,0,0-.689.053.453.453,0,0,0,0,.689l.954.954L20.172,8.3a9.05,9.05,0,0,0-5.616-2.384V3.954h1.325a.475.475,0,0,0,.477-.477c0-.265-.106-.477-.371-.477H12.331a.477.477,0,0,0,0,.954h1.377V5.861A9.311,9.311,0,0,0,8.093,8.245L6.609,6.762l.9-.9a.487.487,0,0,0-.689-.689l-2.6,2.6a.453.453,0,0,0,0,.689.458.458,0,0,0,.318.159.378.378,0,0,0,.318-.159L5.868,7.4,7.351,8.881A8.887,8.887,0,0,0,4.967,14.5H2.954V13.172a.477.477,0,0,0-.954,0v3.656a.477.477,0,1,0,.954,0V15.45H4.967A8.837,8.837,0,0,0,7.3,21.172L5.974,22.5l-.954-.954a.452.452,0,0,0-.689,0,.453.453,0,0,0,0,.689l2.6,2.6a.458.458,0,0,0,.318.159.378.378,0,0,0,.318-.159.453.453,0,0,0,0-.689l-.954-.954,1.325-1.325A9.24,9.24,0,0,0,13.709,24.3v1.748H12.331a.477.477,0,0,0,0,.954h3.656a.477.477,0,0,0,0-.954H14.662V24.3a9.314,9.314,0,0,0,5.775-2.384l1.113,1.113-1.007,1.007a.453.453,0,0,0,0,.689.458.458,0,0,0,.318.159.378.378,0,0,0,.318-.159l2.6-2.6a.487.487,0,0,0-.689-.689l-.9.9-1.113-1.113A8.976,8.976,0,0,0,23.4,15.45h1.642v1.377a.477.477,0,0,0,.954,0V13.172A.512.512,0,0,0,25.523,12.7Zm-5.351,8.159c-.053,0-.053.053-.106.053l-.053.053a8.315,8.315,0,0,1-11.656,0c0-.053-.053-.106-.106-.159s-.106-.053-.159-.106A8.189,8.189,0,0,1,8.2,9.252c.053,0,.053-.053.106-.106s.053-.053.053-.106a8.243,8.243,0,0,1,13.987,5.934A7.6,7.6,0,0,1,20.172,20.854Z" transform="translate(35.94 328)"/><circle class="a" cx="1.642" cy="1.642" r="1.642" transform="translate(48.378 341.309)"/><path class="a" d="M19.03,18.061a1.43,1.43,0,1,0-1.43-1.43A1.459,1.459,0,0,0,19.03,18.061Z" transform="translate(28.605 322.136)"/><circle class="a" cx="1.43" cy="1.43" r="1.43" transform="translate(51.185 337.283)"/><circle class="a" cx="1.43" cy="1.43" r="1.43" transform="translate(53.623 341.574)"/><circle class="a" cx="1.43" cy="1.43" r="1.43" transform="translate(43.662 341.574)"/><path class="a" d="M19.03,31.5a1.43,1.43,0,1,0,1.43,1.43A1.425,1.425,0,0,0,19.03,31.5Z" transform="translate(28.605 314.472)"/><circle class="a" cx="1.43" cy="1.43" r="1.43" transform="translate(51.185 345.918)"/></g></svg>