<svg xmlns="http://www.w3.org/2000/svg" width="25.207" height="25.365" viewBox="0 0 25.207 25.365">
    <defs>
        <style>
            .a-icon-szczepienie,
            .b-icon-szczepienie{fill:none;stroke:#0052a5;stroke-linecap:round;fill-rule:evenodd;}
            .a-icon-szczepienie{stroke-linejoin:round;}
        </style>
    </defs>
    <g transform="translate(-0.793 -0.34)">
        <g transform="translate(1.5 0.84)">
            <path class="a-icon-szczepienie" d="M10.084,36.424l-1,1L6.4,34.793l1-1.053" transform="translate(-3.295 -16.424)"/>
            <path class="b-icon-szczepienie" d="M4.868,38.44.5,42.808" transform="translate(-0.5 -18.651)"/>
            <path class="a-icon-szczepienie" d="M17.9,5.045l5.2,5.147L11.4,22.011,6.2,16.863ZM16.1,7.314l2.947,2.947M14.254,9.156,17.2,12.1m-4.789-1.053L15.359,14m-4.842-1.105,3,2.947M8.675,14.787l3,2.947M16.464,3.524l8.211,8.158m2.526-5L21.307.84,20.1,2.1,22.043,4,19.517,6.577l1.948,1.947L24.043,6l1.9,1.895Z" transform="translate(-3.201 -0.84)"/>
        </g>
    </g>
</svg>
