<svg xmlns="http://www.w3.org/2000/svg" xmlns:xlink="http://www.w3.org/1999/xlink" width="113.418" height="97.137" viewBox="0 0 113.418 97.137">
    <defs>
        <style>
            .icon-statistics-no-data-a{opacity:0.6;fill:url(#icon-statistics-no-data-a);}
            .icon-statistics-no-data-b{fill:#e5edf6;}
            .icon-statistics-no-data-c{fill:#0052a5;}
            .icon-statistics-no-data-d{fill:#ff5721;}
            .icon-statistics-no-data-e{fill:none;stroke:#0052a5;stroke-linecap:round;stroke-width:2px;}
        </style><linearGradient id="icon-statistics-no-data-a" x1="0.5" x2="0.5" y2="1" gradientUnits="objectBoundingBox"><stop offset="0" stop-color="#e5edf6"/><stop offset="0.241" stop-color="#ebf1f8"/><stop offset="1" stop-color="#fff"/></linearGradient></defs><g transform="translate(-130.792 -550.863)"><path class="icon-statistics-no-data-a" d="M-7326.326,19122.16c11.561-30.463,70.231-47.445,88.576-24.244s20.826,55.412,0,73.818-60.8,14.385-83.3,1.6S-7337.886,19152.619-7326.326,19122.16Z" transform="translate(7467.256 -18536.248)"/><g transform="translate(-5987.184 -19073)"><rect class="icon-statistics-no-data-b" width="9" height="13" transform="translate(6152 19678)"/><rect class="icon-statistics-no-data-b" width="9" height="24" transform="translate(6170 19668)"/><rect class="icon-statistics-no-data-b" width="9" height="39" transform="translate(6188 19652)"/><g transform="translate(-1 -123)"><g transform="translate(6134.399 19753)"><g transform="translate(13.601 20.722)"><path class="icon-statistics-no-data-c" d="M67.827,186.1h-2.5V149.724a3.074,3.074,0,0,0-3.07-3.07h-5.6a3.074,3.074,0,0,0-3.07,3.07V186.1h-6.36V166.2a3.074,3.074,0,0,0-3.07-3.07h-5.6a3.074,3.074,0,0,0-3.07,3.07V186.1H29.123v-10.3a3.074,3.074,0,0,0-3.07-3.07h-5.6a3.074,3.074,0,0,0-3.07,3.07v10.3h-2.64a1.142,1.142,0,1,0,0,2.284H67.827a1.142,1.142,0,0,0,0-2.284Zm-40.989,0H19.667v-10.3a.787.787,0,0,1,.786-.786h5.6a.787.787,0,0,1,.786.786Zm18.1,0H37.767V166.2a.787.787,0,0,1,.786-.786h5.6a.787.787,0,0,1,.786.786Zm18.1,0H55.867V149.724a.787.787,0,0,1,.786-.786h5.6a.787.787,0,0,1,.786.786V186.1Z" transform="translate(-13.601 -146.654)"/></g></g><path class="icon-statistics-no-data-d" d="M2.776-.028v-.75a3.324,3.324,0,0,1,.415-1.692A5.442,5.442,0,0,1,4.711-4a6.358,6.358,0,0,0,1.4-1.236A1.79,1.79,0,0,0,6.454-6.3a1.152,1.152,0,0,0-.486-1A2.319,2.319,0,0,0,4.61-7.646a7.8,7.8,0,0,0-3.465.993L.041-8.871a9.652,9.652,0,0,1,4.792-1.266,5.1,5.1,0,0,1,3.318,1A3.275,3.275,0,0,1,9.381-6.46a3.557,3.557,0,0,1-.507,1.925A7.219,7.219,0,0,1,6.95-2.712,5.943,5.943,0,0,0,5.719-1.618a1.7,1.7,0,0,0-.258.983v.608ZM2.452,3.437A1.7,1.7,0,0,1,2.908,2.15a1.849,1.849,0,0,1,1.327-.436,1.8,1.8,0,0,1,1.3.446A1.694,1.694,0,0,1,6,3.437,1.694,1.694,0,0,1,5.532,4.7a1.764,1.764,0,0,1-1.3.461,1.817,1.817,0,0,1-1.317-.451A1.687,1.687,0,0,1,2.452,3.437Z" transform="translate(6152.481 19788.512)"/></g></g><g transform="matrix(-0.07, -0.998, 0.998, -0.07, -8.389, 755.84)"><line class="icon-statistics-no-data-e" x2="2.908" y2="3.397" transform="translate(164.103 196.083)"/><line class="icon-statistics-no-data-e" x2="3.153" y2="0.245" transform="translate(167.99 186.869)"/><line class="icon-statistics-no-data-e" x1="0.244" y2="3.154" transform="translate(154.398 199.471)"/></g></g></svg>
