<svg xmlns="http://www.w3.org/2000/svg" width="70" height="70" viewBox="0 0 70 70"><defs><style>.a_icon-tlumaczenie_sukces{fill:#0052a5;}.b_icon-tlumaczenie_sukces{fill:none;fill-rule:evenodd;}</style></defs><g transform="translate(2 1)"><path class="a_icon-tlumaczenie_sukces" d="M33.579,0a5.476,5.476,0,0,1,5.5,5.44v7.424a1.113,1.113,0,0,1-2.225,0V9.209H2.225v49h34.63V49.394a1.112,1.112,0,0,1,2.224,0V62.119a5.476,5.476,0,0,1-5.5,5.442H5.5A5.478,5.478,0,0,1,0,62.119V5.44A5.476,5.476,0,0,1,5.5,0Zm3.276,60.408H2.225v1.711A3.261,3.261,0,0,0,5.5,65.36H33.579a3.261,3.261,0,0,0,3.274-3.24V60.408ZM23.4,61.856a1.1,1.1,0,1,1,0,2.2H15.684a1.1,1.1,0,1,1,0-2.2ZM60.805,16.268A4.463,4.463,0,0,1,65.288,20.7V39.237a4.463,4.463,0,0,1-4.483,4.434H39.581L34.11,49.363a1.121,1.121,0,0,1-1.217.262,1.1,1.1,0,0,1-.7-1.022V43.671H28.856a4.463,4.463,0,0,1-4.483-4.434V20.7a4.463,4.463,0,0,1,4.483-4.434Zm0,2.2H28.856A2.248,2.248,0,0,0,26.6,20.7V39.237a2.248,2.248,0,0,0,2.257,2.233H33.3a1.107,1.107,0,0,1,1.113,1.1v3.278L38.3,41.812a1.114,1.114,0,0,1,.805-.342h21.7a2.248,2.248,0,0,0,2.257-2.233V20.7a2.248,2.248,0,0,0-2.257-2.233ZM33.579,2.2H5.5A3.259,3.259,0,0,0,2.225,5.439V7.006h34.63V5.44A3.262,3.262,0,0,0,33.581,2.2ZM20.744,3.63a1.1,1.1,0,1,1,0,2.2H18.333a1.1,1.1,0,1,1,0-2.2Z"/></g><path class="b_icon-tlumaczenie_sukces" d="M0,0H70V70H0Z"/><path class="a_icon-tlumaczenie_sukces" d="M14.479,7.27,9.621,11.979,7.192,9.625a.876.876,0,0,0-1.214,0,.816.816,0,0,0,0,1.178l3.037,2.942a.875.875,0,0,0,1.213,0l5.464-5.3a.815.815,0,0,0,0-1.176.878.878,0,0,0-1.213,0Z" transform="translate(37.485 19.827)"/></svg>