<svg xmlns="http://www.w3.org/2000/svg" width="112.516" height="118.761" viewBox="0 0 112.516 118.761"><defs><style>.a_interoperability{fill:none;stroke:#0075e2;stroke-linecap:round;stroke-linejoin:round;stroke-miterlimit:10;stroke-width:2px;}</style></defs><g transform="translate(-33.622 -30.158)"><g transform="translate(35.033 31.522)"><path class="a_interoperability" d="M151.8,127.127s27.553-23.617,29.949-25.5,9.07-5.476,10.782-4.792.513,4.792.513,4.792,4.963-2.054,6.845,0-2.4,5.99-2.4,5.99,5.305-2.225,7.017-1.027-2.4,5.819-2.4,5.819,5.819-2.4,7.017-1.54.342,3.765.342,3.765L185,137.566s6.161,5.476,10.61,9.07,26.184,17.627,28.066,17.114.513-6.332.513-6.332,3.594,1.54,5.819,0-.856-5.647-.856-5.647a9.053,9.053,0,0,0,5.819-.856c2.567-1.54-2.4-5.476-2.4-5.476s3.423.171,4.792-1.369,0-4.107,0-4.107-9.584-6.5-11.979-8.214-17.456-15.06-17.456-15.06" transform="translate(-131.606 -92.215)"/><path class="a_interoperability" d="M253.249,88.052S249.485,84.7,248.8,83.5" transform="translate(-195.406 -83.5)"/><path class="a_interoperability" d="M162.222,140.674l10.61-10.508" transform="translate(-119.438 -84.815)"/><path class="a_interoperability" d="M231.995,246.7l-26.9,37.239s-1.882,3.765,0,5.134,6.161,0,6.161,0-4.107,3.252-1.54,4.963,6.161-1.711,6.161-1.711-2.738,4.963-1.2,5.99,6.161-1.711,6.161-1.711-2.054,5.647.856,6.161,4.963-.513,8.728-6.674S255,261.178,255,261.178" transform="translate(-166.108 -190.841)"/><line class="a_interoperability" y1="29.504" x2="22.384" transform="translate(83.959 1.711)"/><path class="a_interoperability" d="M397.4,207.5c.821-.856,5.442-6.5,5.442-6.5" transform="translate(-293.144 -160.783)"/><path class="a_interoperability" d="M153.327,216.388S129.881,195,126.459,191.06a112.106,112.106,0,0,0-10.268-9.584s-1.54-1.2-2.567,0,0,6.332,0,6.332-2.738-3.936-4.45-2.909,0,6.161,0,6.161-2.738-3.08-4.45-1.711,0,6.5,0,6.5-2.567-2.7-3.936-1.54c-1.369,1.2-.171,11.466,8.9,22.076s16.771,19,19.681,21.392,6.537,5.305,6.537,5.305" transform="translate(-97.742 -147.592)"/><line class="a_interoperability" x1="9.755" y1="5.682" transform="translate(60.548 110.348)"/><path class="a_interoperability" d="M324.85,330.834a206.256,206.256,0,0,0,20.031,8.474c4.792,1.711,6.264,2.225,6.264,2.225" transform="matrix(0.891, 0.454, -0.454, 0.891, -124.851, -440.542)"/><line class="a_interoperability" x1="3.423" y2="2.978" transform="translate(0 53.668)"/><line class="a_interoperability" x1="21.871" y2="30.941" transform="translate(0 80.126)"/></g></g></svg>
