<?xml version="1.0" encoding="utf-8"?>
<!-- Generator: Adobe Illustrator 24.0.1, SVG Export Plug-In . SVG Version: 6.00 Build 0)  -->
<svg version="1.1" id="Warstwa_1" xmlns="http://www.w3.org/2000/svg" xmlns:xlink="http://www.w3.org/1999/xlink" x="0px" y="0px"
	 viewBox="0 0 25 25" style="enable-background:new 0 0 25 25;" xml:space="preserve">
<style type="text/css">
	.st0{fill:none;stroke:#FFFFFF;stroke-width:1.26;stroke-miterlimit:10;}
</style>
<path class="st0" d="M7.7,21.5c0.6-1.2,0.4-2.6-0.6-3.6c-1-1-2.4-1.2-3.6-0.6c-0.4-0.7-0.7-1.4-0.9-2.2c1.2-0.4,2.1-1.6,2.1-3
	s-0.9-2.5-2.1-3C2.8,8.4,3.2,7.7,3.5,7c1.2,0.6,2.6,0.4,3.6-0.6S8.3,4,7.7,2.8c0.7-0.4,1.4-0.7,2.2-0.9c0.4,1.2,1.6,2.1,3,2.1
	s2.5-0.9,3-2.1c0.8,0.2,1.5,0.5,2.2,0.9c-0.6,1.2-0.4,2.6,0.6,3.6c1,1,2.4,1.2,3.6,0.6c0.4,0.7,0.7,1.4,0.9,2.2
	c-1.2,0.4-2.1,1.6-2.1,3s0.9,2.5,2.1,3c-0.2,0.8-0.5,1.5-0.9,2.2c-1.2-0.6-2.6-0.4-3.6,0.6c-1,1-1.2,2.4-0.6,3.6
	c-0.7,0.4-1.4,0.7-2.2,0.9c-0.4-1.2-1.6-2.1-3-2.1s-2.5,0.9-3,2.1C9.2,22.2,8.4,21.9,7.7,21.5z M12.9,16.6c2.4,0,4.4-2,4.4-4.4
	s-2-4.4-4.4-4.4s-4.4,2-4.4,4.4S10.5,16.6,12.9,16.6z"/>
</svg>
