<svg id="ikona_wirus" data-name="ikona / wirus" xmlns="http://www.w3.org/2000/svg" width="17.845" height="17.845" viewBox="0 0 17.845 17.845">
  <path id="Path_521" data-name="Path 521" d="M19.49,10.209a.353.353,0,0,0-.355.355v.985H17.915A6.865,6.865,0,0,0,16.1,7.373l.945-.945.709.709a.34.34,0,0,0,.236.118.281.281,0,0,0,.236-.118.336.336,0,0,0,0-.512L16.3,4.694a.371.371,0,0,0-.512.039.336.336,0,0,0,0,.512l.709.709-.985.985a6.729,6.729,0,0,0-4.176-1.773V3.709h.985a.353.353,0,0,0,.355-.355c0-.2-.079-.355-.276-.355H9.682a.355.355,0,0,0,0,.709h1.024V5.127A6.923,6.923,0,0,0,6.53,6.9l-1.1-1.1.67-.67a.362.362,0,0,0-.512-.512l-1.93,1.93a.336.336,0,0,0,0,.512.34.34,0,0,0,.236.118.281.281,0,0,0,.236-.118l.748-.788,1.1,1.1a6.607,6.607,0,0,0-1.773,4.176h-1.5v-.985a.355.355,0,1,0-.709,0v2.718a.355.355,0,1,0,.709,0V12.257h1.5a6.57,6.57,0,0,0,1.733,4.254l-.985.985-.709-.709a.362.362,0,0,0-.512.512l1.93,1.93a.34.34,0,0,0,.236.118.281.281,0,0,0,.236-.118.336.336,0,0,0,0-.512l-.709-.709.985-.985a6.87,6.87,0,0,0,4.294,1.812v1.3H9.682a.355.355,0,0,0,0,.709H12.4a.355.355,0,0,0,0-.709h-.985v-1.3a6.925,6.925,0,0,0,4.294-1.773l.827.827-.748.748a.336.336,0,0,0,0,.512.34.34,0,0,0,.236.118.281.281,0,0,0,.236-.118l1.93-1.93a.362.362,0,0,0-.512-.512l-.67.67-.827-.827a6.674,6.674,0,0,0,1.733-4.294h1.221v1.024a.355.355,0,0,0,.709,0V10.563A.381.381,0,0,0,19.49,10.209Zm-3.979,6.066c-.039,0-.039.039-.079.039l-.039.039a6.182,6.182,0,0,1-8.666,0c0-.039-.039-.079-.079-.118s-.079-.039-.118-.079a6.089,6.089,0,0,1,.079-8.509c.039,0,.039-.039.079-.079s.039-.039.039-.079a6.129,6.129,0,0,1,10.4,4.412A5.648,5.648,0,0,1,15.512,16.275Z" transform="translate(-2 -3)" fill="#fff"/>
  <circle id="Ellipse_93" data-name="Ellipse 93" cx="1.221" cy="1.221" r="1.221" transform="translate(7.76 7.664)" fill="#fff"/>
  <path id="Path_522" data-name="Path 522" d="M18.664,17.327A1.064,1.064,0,1,0,17.6,16.264,1.085,1.085,0,0,0,18.664,17.327Z" transform="translate(-11.455 -10.49)" fill="#fff"/>
  <circle id="Ellipse_94" data-name="Ellipse 94" cx="1.064" cy="1.064" r="1.064" transform="translate(9.848 4.67)" fill="#fff"/>
  <circle id="Ellipse_95" data-name="Ellipse 95" cx="1.064" cy="1.064" r="1.064" transform="translate(11.66 7.861)" fill="#fff"/>
  <circle id="Ellipse_96" data-name="Ellipse 96" cx="1.064" cy="1.064" r="1.064" transform="translate(4.254 7.861)" fill="#fff"/>
  <path id="Path_523" data-name="Path 523" d="M18.664,31.5a1.064,1.064,0,1,0,1.064,1.064A1.059,1.059,0,0,0,18.664,31.5Z" transform="translate(-11.455 -20.369)" fill="#fff"/>
  <circle id="Ellipse_97" data-name="Ellipse 97" cx="1.064" cy="1.064" r="1.064" transform="translate(9.848 11.092)" fill="#fff"/>
</svg>
