<svg xmlns="http://www.w3.org/2000/svg" width="36" height="36" viewBox="0 0 36 36">
    <defs>
        <style>
            .a_notifications{fill:#0052a5;}.b_notifications,.c_notifications{fill:none;}.b_notifications{fill-rule:evenodd;}
        </style>
    </defs>
    <g transform="translate(2 1)">
        <path class="a_notifications"
              d="M16.092,0a2.672,2.672,0,0,1,2.636,2.7V6.391a.533.533,0,1,1-1.066,0V4.575H1.066v24.34h16.6V24.536a.533.533,0,1,1,1.066,0v6.321a2.673,2.673,0,0,1-2.635,2.7H2.634A2.673,2.673,0,0,1,0,30.858V2.7A2.673,2.673,0,0,1,2.636,0Zm1.57,30.008H1.066v.85a1.592,1.592,0,0,0,1.569,1.61H16.092a1.592,1.592,0,0,0,1.569-1.61v-.85Zm-6.45.719a.547.547,0,0,1,0,1.094h-3.7a.547.547,0,0,1,0-1.094ZM29.14,8.081a2.178,2.178,0,0,1,2.148,2.2v9.208a2.178,2.178,0,0,1-2.148,2.2H18.968l-2.622,2.828a.529.529,0,0,1-.387.169.52.52,0,0,1-.2-.039.546.546,0,0,1-.336-.508v-2.45h-1.6a2.178,2.178,0,0,1-2.148-2.2V10.284a2.178,2.178,0,0,1,2.148-2.2Zm0,1.094H13.828a1.1,1.1,0,0,0-1.082,1.109v9.208A1.1,1.1,0,0,0,13.828,20.6H15.96a.54.54,0,0,1,.533.547v1.629l1.861-2.005a.525.525,0,0,1,.386-.17h10.4a1.1,1.1,0,0,0,1.082-1.109V10.284A1.1,1.1,0,0,0,29.14,9.174ZM16.092,1.094H2.634A1.591,1.591,0,0,0,1.066,2.7V3.48h16.6V2.7a1.592,1.592,0,0,0-1.569-1.61ZM9.941,1.8a.547.547,0,0,1,0,1.094H8.786a.547.547,0,0,1,0-1.094Z"/>
    </g>
    <path class="b_notifications" d="M0,0H36V36H0Z"/>
    <path class="c_notifications"
          d="M14.479,7.27,9.621,11.979,7.192,9.625a.876.876,0,0,0-1.214,0,.816.816,0,0,0,0,1.178l3.037,2.942a.875.875,0,0,0,1.213,0l5.464-5.3a.815.815,0,0,0,0-1.176.878.878,0,0,0-1.213,0Z"
          transform="translate(12.91 5.343)"/>
</svg>
