<svg xmlns="http://www.w3.org/2000/svg" width="70" height="70" viewBox="0 0 70 70"><defs><style>.a_pismo{fill:#0052a5;}.b_pismo{fill:none;fill-rule:evenodd;}</style></defs><g transform="translate(11 5.328)"><path class="a_pismo" d="M26.861,1a1.134,1.134,0,0,1,.771.3L44.749,17.015a1.1,1.1,0,0,1,.358.809V30.25l.541-.529v0l2.035-2a5.776,5.776,0,0,1,8.065,0,5.528,5.528,0,0,1,0,7.924l-2.035,2-.242.238L45.107,46.1V60.136a1.12,1.12,0,0,1-1.13,1.11H1.13A1.12,1.12,0,0,1,0,60.136V2.11A1.12,1.12,0,0,1,1.13,1Zm-.444,2.221H2.258V59.026H42.846V48.318L39.8,51.306a1.138,1.138,0,0,1-.8.324h-6.72a1.135,1.135,0,0,1-.815-.341,1.1,1.1,0,0,1-.315-.812l.253-6.353a1.1,1.1,0,0,1,.331-.743l11.11-10.913,0-.011V18.307L26.417,3.221ZM27.756,49.41a1.111,1.111,0,1,1,0,2.221H8.365a1.111,1.111,0,1,1,0-2.221ZM46.447,32.076l-12.8,12.569-.188,4.766h5.076L51.317,36.859l-4.871-4.781ZM27.756,40.77a1.111,1.111,0,1,1,0,2.221H8.365a1.111,1.111,0,1,1,0-2.221Zm26.4-11.48a3.571,3.571,0,0,0-4.869,0l-1.238,1.216,4.871,4.783,1.235-1.216a3.338,3.338,0,0,0,0-4.783Zm-26.4,2.838a1.111,1.111,0,1,1,0,2.221H8.365a1.111,1.111,0,1,1,0-2.221Zm6.116-8.641a1.111,1.111,0,1,1,0,2.221H8.365a1.111,1.111,0,1,1,0-2.221Zm-14.618-8.64a1.111,1.111,0,1,1,0,2.221H8.365a1.111,1.111,0,1,1,0-2.221Z" transform="translate(0 -1)"/></g><path class="b_pismo" d="M0,0H70V70H0Z"/></svg>
