<svg xmlns="http://www.w3.org/2000/svg" xmlns:xlink="http://www.w3.org/1999/xlink" width="66.64" height="83.078" viewBox="0 0 66.64 83.078">
  <defs>
    <clipPath id="clip-path">
      <path id="Path_677" data-name="Path 677" d="M516.225,559.783l28.03-9.863L532.45,532.427a2.706,2.706,0,0,0-3.742-.728l-19.7,13.319a2.712,2.712,0,0,0-.725,3.747Z" transform="translate(-507.824 -531.242)" fill="none"/>
    </clipPath>
  </defs>
  <g id="Group_1070" data-name="Group 1070" transform="translate(7393.052 -19403.988)">
    <path id="Path_663" data-name="Path 663" d="M516.662,530.893l-22.51,4.587a3.843,3.843,0,0,1-4.517-2.992l-9.522-46.756a3.841,3.841,0,0,1,2.986-4.521l22.51-4.587a3.842,3.842,0,0,1,4.517,2.991l9.524,46.753A3.844,3.844,0,0,1,516.662,530.893Z" transform="translate(-7870.588 18927.439)" fill="#0052a5"/>
    <path id="Path_664" data-name="Path 664" d="M517.781,527.192l-26.112,5.32a1.153,1.153,0,0,1-1.355-.9l-9.233-45.326a1.151,1.151,0,0,1,.9-1.356l26.112-5.32a1.152,1.152,0,0,1,1.355.9l9.234,45.326A1.152,1.152,0,0,1,517.781,527.192Z" transform="translate(-7870.591 18927.432)" fill="#e5edf6"/>
    <path id="Path_665" data-name="Path 665" d="M497.574,480.528l-5.584,1.154a.509.509,0,0,1-.6-.4v0h0a.516.516,0,0,1,.4-.61l5.584-1.154a.508.508,0,0,1,.6.4v0h0a.514.514,0,0,1-.4.609Z" transform="translate(-7870.621 18927.432)" fill="#e5edf6"/>
    <path id="Path_666" data-name="Path 666" d="M490.724,481.417a.516.516,0,1,0-.4.61h0A.516.516,0,0,0,490.724,481.417Z" transform="translate(-7870.616 18927.428)" fill="#e5edf6"/>
    <path id="Path_668" data-name="Path 668" d="M507.757,531.757l-4.986,1.016a.509.509,0,0,1-.605-.386v-.018l-.1-.488a.507.507,0,0,1,.384-.605h.018l4.986-1.016a.506.506,0,0,1,.6.385h0v.019l.1.489A.518.518,0,0,1,507.757,531.757Z" transform="translate(-7870.651 18927.287)" fill="#e5edf6"/>
    <path id="Path_669" data-name="Path 669" d="M488.37,517.564a4.581,4.581,0,0,0,.859-3.473c-.325-1.6-1.975-3.167-3.343-4.316l4.121,20.231a3.128,3.128,0,0,0,1.333-1.11c.649-1.229-.026-2.984-.409-4a4.055,4.055,0,0,0,.915-2.983C491.463,520.227,490.24,518.884,488.37,517.564Z" transform="translate(-7870.605 18927.346)" fill="#0052a5"/>
    <path id="Path_671" data-name="Path 671" d="M531.739,537.375l-19.753,7.095s-4.85-4.627-6.781-5.779c-1.911-1.137-4.354-2.38-6.856-4.022l18.308-3.729a3.844,3.844,0,0,0,2.991-4.521l-6.007-29.492c-.333-1.634.34-3.512,1.933-3.837,1.951-.4,2.692,2.073,2.915,3.182,1.454,7.139,6.524,14.381,7.091,17.161.96,4.714-.79,9.454.47,15.633C526.681,532.2,527.815,532.7,531.739,537.375ZM487.257,516.68a3.775,3.775,0,0,0,.951-3.579c-.348-1.709-2.242-3.338-3.429-4.27l-2.314-11.367a6.461,6.461,0,0,0-2.358-.165c-1.331.322-2.393.8-2.578,2.621a3.527,3.527,0,0,0,.639,1.883c1.322,2.078,4.188,2.514,5.7,3.5-2.507,1.312-4.765,3.748-4.188,6.581.371,1.822,2.721,3.671,2.721,3.671a3.019,3.019,0,0,0-1.238,3.421,5.539,5.539,0,0,0,2.725,3.69,2.922,2.922,0,0,0-.718,2.807c.306,1.5,3.506,3.689,5.684,3.245,2.7-.55,1.732-3.581,1.224-4.73a3.63,3.63,0,0,0,.778-2.9c-.355-1.722-1.581-3.132-3.6-4.407Z" transform="translate(-7870.581 18927.393)" fill="#fbd3b9"/>
    <path id="Path_672" data-name="Path 672" d="M519.35,499.133a25.173,25.173,0,0,1-.754-2.84,5.75,5.75,0,0,0-1.076-2.5,1.29,1.29,0,0,0-1.489,1.613C516.826,498.63,517.6,499.372,519.35,499.133Z" transform="translate(-7870.691 18927.391)" fill="#ffccb5"/>
    <path id="Path_676" data-name="Path 676" d="M480.955,497.284c.382.06,1.1.079,1.551.162l2.314,11.368-.783-1.19a3.273,3.273,0,0,1-.642-1.155l-.161-.789c.085-.038.352-.2.652-.356a17.97,17.97,0,0,0-1.775-.849c-1.1-.664.632-1.254.208-3.628A13.6,13.6,0,0,0,480.955,497.284Zm24.991,41.88c2.352-7.768,12.763-.323,13.716-12.751a3.844,3.844,0,0,1-2.992,4.521l-18.308,3.729c2.5,1.643,4.945,2.886,6.856,4.023a7,7,0,0,1,.728.474Z" transform="translate(-7870.591 18927.381)" fill="#dab7a1"/>
    <g id="Group_1069" data-name="Group 1069" transform="translate(-7362.844 19458.525)">
      <g id="Group_1068" data-name="Group 1068" transform="translate(0)" clip-path="url(#clip-path)">
        <path id="Path_684" data-name="Path 684" d="M499.628,438.937A62.681,62.681,0,0,1,547.743,461.3a60.119,60.119,0,0,1,14.131,38.817c0,33.788-27.869,61.179-62.246,61.179s-62.246-27.392-62.246-61.179S465.251,438.937,499.628,438.937Z" transform="translate(-507.622 -530.979)" fill="#0052a5"/>
      </g>
    </g>
    <g id="Group_874" data-name="Group 874" transform="translate(-7382.608 19421.639)">
      <path id="Path_724" data-name="Path 724" d="M11.007,0A11.008,11.008,0,1,1,0,11.008,11.007,11.007,0,0,1,11.007,0Z" transform="translate(0.996 0.998)" fill="#00a553" stroke="#fff" stroke-width="1.2"/>
    </g>
    <path id="Path_685" data-name="Path 685" d="M493.906,508.375l5.863,3.384,5.366-10.573" transform="translate(-7870.628 18927.369)" fill="none" stroke="#fff" stroke-linecap="round" stroke-linejoin="round" stroke-width="1.2"/>
  </g>
</svg>
