<svg xmlns="http://www.w3.org/2000/svg" xmlns:xlink="http://www.w3.org/1999/xlink" width="66.831" height="114.772" viewBox="0 0 66.831 114.772"><defs><style>.a_reka-nieaktywny,.i_reka-nieaktywny{fill:none;}.b_reka-nieaktywny{fill:#0052a5;}.c_reka-nieaktywny{fill:#e5edf6;}.d_reka-nieaktywny{fill:#fbd3b9;}.e_reka-nieaktywny{fill:#ffccb5;}.f_reka-nieaktywny{fill:#dab7a1;}.g_reka-nieaktywny{clip-path:url(#a);}.h_reka-nieaktywny{fill:#d5233f;}.i_reka-nieaktywny{stroke:#fff;stroke-width:1.2px;}.j_reka-nieaktywny{fill:#fff;}</style><clipPath id="a"><path class="a_reka-nieaktywny" d="M516.249,559.865l28.111-9.891L532.521,532.43a2.713,2.713,0,0,0-3.753-.73L509.01,545.057a2.72,2.72,0,0,0-.727,3.758Z" transform="translate(-507.824 -531.242)"/></clipPath></defs><g transform="translate(-274 -110.871)"><path class="b_reka-nieaktywny" d="M516.767,531.048l-22.575,4.6a3.854,3.854,0,0,1-4.53-3l-9.549-46.89a3.852,3.852,0,0,1,2.995-4.534l22.575-4.6a3.853,3.853,0,0,1,4.53,3l9.551,46.887A3.855,3.855,0,0,1,516.767,531.048Z" transform="translate(-203.529 -333.777)"/><path class="c_reka-nieaktywny" d="M517.887,527.328,491.7,532.663a1.156,1.156,0,0,1-1.359-.9l-9.26-45.456a1.155,1.155,0,0,1,.9-1.36l26.187-5.335a1.156,1.156,0,0,1,1.359.9l9.26,45.456A1.155,1.155,0,0,1,517.887,527.328Z" transform="translate(-203.529 -333.773)"/><path class="c_reka-nieaktywny" d="M497.592,480.531l-5.6,1.157a.51.51,0,0,1-.6-.4v0h0a.518.518,0,0,1,.4-.612l5.6-1.157a.509.509,0,0,1,.6.4v0h0a.515.515,0,0,1-.4.611Z" transform="translate(-203.529 -333.605)"/><path class="c_reka-nieaktywny" d="M490.727,481.418a.518.518,0,1,0-.4.612h0A.517.517,0,0,0,490.727,481.418Z" transform="translate(-203.529 -333.613)"/><path class="c_reka-nieaktywny" d="M507.773,531.761l-5,1.019a.51.51,0,0,1-.607-.387v-.018l-.1-.49a.508.508,0,0,1,.385-.607h.018l5-1.019a.508.508,0,0,1,.606.386h0v.019l.1.49A.52.52,0,0,1,507.773,531.761Z" transform="translate(-203.529 -333.91)"/><path class="b_reka-nieaktywny" d="M488.377,517.586a4.594,4.594,0,0,0,.861-3.483c-.326-1.6-1.981-3.176-3.353-4.328l4.133,20.289a3.137,3.137,0,0,0,1.337-1.113c.651-1.232-.026-2.993-.41-4.014a4.068,4.068,0,0,0,.918-2.992C491.479,520.257,490.253,518.91,488.377,517.586Z" transform="translate(-203.529 -333.855)"/><path class="d_reka-nieaktywny" d="M531.9,537.5l-19.81,7.115s-4.864-4.64-6.8-5.795c-1.917-1.14-4.366-2.387-6.876-4.034l18.361-3.74a3.855,3.855,0,0,0,3-4.534l-6.024-29.576c-.334-1.639.341-3.522,1.939-3.848,1.957-.4,2.7,2.079,2.923,3.191,1.458,7.159,6.543,14.422,7.111,17.21.963,4.728-.792,9.481.471,15.678C526.822,532.316,527.96,532.81,531.9,537.5Zm-44.61-20.754a3.786,3.786,0,0,0,.954-3.589c-.349-1.714-2.249-3.348-3.439-4.282l-2.321-11.4a6.478,6.478,0,0,0-2.365-.165c-1.335.323-2.4.8-2.585,2.628a3.538,3.538,0,0,0,.641,1.888c1.326,2.084,4.2,2.521,5.714,3.507-2.514,1.316-4.779,3.759-4.2,6.6.372,1.827,2.729,3.682,2.729,3.682a3.027,3.027,0,0,0-1.241,3.431,5.555,5.555,0,0,0,2.733,3.7,2.93,2.93,0,0,0-.72,2.815c.307,1.507,3.516,3.7,5.7,3.254,2.709-.552,1.737-3.591,1.228-4.743a3.641,3.641,0,0,0,.78-2.906c-.356-1.727-1.585-3.141-3.608-4.42Z" transform="translate(-203.529 -333.879)"/><path class="e_reka-nieaktywny" d="M519.36,499.148a25.245,25.245,0,0,1-.756-2.848,5.768,5.768,0,0,0-1.079-2.507,1.294,1.294,0,0,0-1.493,1.618C516.828,498.644,517.606,499.388,519.36,499.148Z" transform="translate(-203.529 -333.699)"/><path class="f_reka-nieaktywny" d="M480.955,497.284c.383.06,1.107.079,1.555.163l2.321,11.4-.785-1.193a3.285,3.285,0,0,1-.644-1.158l-.161-.791c.085-.038.353-.2.654-.357a18.03,18.03,0,0,0-1.78-.851c-1.1-.666.634-1.258.209-3.638A13.64,13.64,0,0,0,480.955,497.284Zm25.063,42c2.359-7.79,12.8-.324,13.755-12.788a3.855,3.855,0,0,1-3,4.534l-18.361,3.74c2.51,1.647,4.959,2.894,6.876,4.034a7.026,7.026,0,0,1,.73.475Z" transform="translate(-203.529 -333.863)"/><g transform="translate(304.295 197.02)"><g class="g_reka-nieaktywny"><path class="b_reka-nieaktywny" d="M499.807,438.937a62.862,62.862,0,0,1,48.253,22.426,60.291,60.291,0,0,1,14.172,38.928c0,33.885-27.949,61.354-62.425,61.354s-62.425-27.47-62.425-61.354S465.331,438.937,499.807,438.937Z" transform="translate(-507.824 -531.242)"/></g></g><path class="b_reka-nieaktywny" d="M524.653,444.094" transform="translate(-203.529 -333.223)"/><g transform="translate(284.474 160.486)"><circle class="h_reka-nieaktywny" cx="11.039" cy="11.039" r="11.039" transform="translate(1 1)"/><circle class="i_reka-nieaktywny" cx="12.039" cy="12.039" r="12.039"/><path class="j_reka-nieaktywny" d="M2.628,8.587H.483L.035,0H3.076ZM0,11.593a1.473,1.473,0,0,1,.4-1.116A1.6,1.6,0,0,1,1.547,10.1a1.558,1.558,0,0,1,1.129.387,1.47,1.47,0,0,1,.4,1.107,1.469,1.469,0,0,1-.4,1.094,1.53,1.53,0,0,1-1.125.4A1.576,1.576,0,0,1,.4,12.7,1.463,1.463,0,0,1,0,11.593Z" transform="translate(9.013 6.737) rotate(-13)"/></g></g></svg>
