<svg id="Group_289" data-name="Group 289" xmlns="http://www.w3.org/2000/svg" width="92.424" height="62.317" viewBox="0 0 92.424 62.317">
  <g id="Group_287" data-name="Group 287" transform="translate(25.458)">
    <path id="Path_81" data-name="Path 81" d="M167.452-37.031l-2.762,1.595-2.762,1.6v-1.327H147.806a.078.078,0,0,0-.053.025.079.079,0,0,0-.025.053v8.512a.08.08,0,0,0,.025.054.077.077,0,0,0,.053.024h12.616v12.616a.079.079,0,0,0,.024.054.081.081,0,0,0,.054.024h8.512a.077.077,0,0,0,.053-.024.078.078,0,0,0,.025-.054v-4.371l3.727-3.032v7.4a3.794,3.794,0,0,1-1.117,2.689,3.794,3.794,0,0,1-2.688,1.116H160.5a3.8,3.8,0,0,1-2.689-1.116,3.793,3.793,0,0,1-1.116-2.689v-8.889h-8.889a3.794,3.794,0,0,1-2.689-1.116A3.8,3.8,0,0,1,144-26.577v-8.512a3.792,3.792,0,0,1,1.116-2.688,3.794,3.794,0,0,1,2.689-1.116h14.122V-40.22l2.762,1.595Z" transform="translate(-144.001 51.588)" fill="#fff" fill-rule="evenodd"/>
    <path id="Path_82" data-name="Path 82" d="M168.676-51.29v-7.223a3.794,3.794,0,0,1,1.116-2.689,3.794,3.794,0,0,1,2.689-1.116h8.512a3.792,3.792,0,0,1,2.688,1.116,3.8,3.8,0,0,1,1.117,2.689v8.889h8.889a3.793,3.793,0,0,1,2.688,1.116,3.792,3.792,0,0,1,1.116,2.688v8.512a3.793,3.793,0,0,1-1.116,2.689,3.793,3.793,0,0,1-2.688,1.116H179.533v1.326l-2.762-1.595-2.762-1.595,2.762-1.6,2.762-1.595v1.326h14.154a.078.078,0,0,0,.054-.024.08.08,0,0,0,.025-.054V-45.82a.079.079,0,0,0-.025-.053.079.079,0,0,0-.054-.025H181.071V-58.513a.08.08,0,0,0-.025-.054.077.077,0,0,0-.054-.024h-8.512a.079.079,0,0,0-.054.024.081.081,0,0,0-.024.054v4.61Z" transform="translate(-155.983 62.318)" fill="#fff" fill-rule="evenodd"/>
  </g>
  <g id="Group_288" data-name="Group 288" transform="translate(0 45.522)">
    <path id="Path_83" data-name="Path 83" d="M97.688,37.645a3.236,3.236,0,0,0,.607,1.631,3.531,3.531,0,0,0,2.834.983A6.1,6.1,0,0,0,103.081,40a1.853,1.853,0,0,0,1.423-1.847,1.362,1.362,0,0,0-.7-1.221,7.578,7.578,0,0,0-2.21-.745l-1.724-.379a10.723,10.723,0,0,1-3.491-1.22,3.881,3.881,0,0,1-1.61-3.446,4.575,4.575,0,0,1,1.575-3.553,6.712,6.712,0,0,1,4.625-1.415,7.09,7.09,0,0,1,4.346,1.334A4.741,4.741,0,0,1,107.2,31.38h-3.2a2.279,2.279,0,0,0-1.285-2.042,4.4,4.4,0,0,0-1.982-.4,3.769,3.769,0,0,0-2.1.519,1.641,1.641,0,0,0-.787,1.448,1.365,1.365,0,0,0,.775,1.274,9.635,9.635,0,0,0,2.115.659l2.794.659a7.116,7.116,0,0,1,2.754,1.155,3.9,3.9,0,0,1,1.423,3.252,4.569,4.569,0,0,1-1.687,3.624,7.12,7.12,0,0,1-4.765,1.441,7.79,7.79,0,0,1-4.946-1.42,4.7,4.7,0,0,1-1.8-3.9Z" transform="translate(-94.513 -26.174)" fill="#fff"/>
    <path id="Path_84" data-name="Path 84" d="M128.13,39.487a4.877,4.877,0,0,0,1.23-.27.926.926,0,0,0,.664-.875,1.032,1.032,0,0,0-.51-1,3.208,3.208,0,0,0-1.494-.276,1.964,1.964,0,0,0-1.566.54,2.227,2.227,0,0,0-.437,1.08h-2.971a4.5,4.5,0,0,1,.868-2.538q1.226-1.555,4.209-1.555a7.509,7.509,0,0,1,3.449.766,2.941,2.941,0,0,1,1.508,2.895v5.4q0,.563.022,1.361a1.706,1.706,0,0,0,.183.821,1.115,1.115,0,0,0,.454.356v.453h-3.348a3.426,3.426,0,0,1-.194-.669c-.037-.209-.065-.447-.086-.713a6.387,6.387,0,0,1-1.477,1.178,4.469,4.469,0,0,1-2.26.572,3.9,3.9,0,0,1-2.656-.913,3.245,3.245,0,0,1-1.048-2.586,3.353,3.353,0,0,1,1.687-3.144,7.528,7.528,0,0,1,2.72-.756Zm1.882,1.436a3.36,3.36,0,0,1-.6.3,5.1,5.1,0,0,1-.826.211l-.7.13a4.6,4.6,0,0,0-1.415.421,1.406,1.406,0,0,0-.727,1.307,1.366,1.366,0,0,0,.444,1.139,1.689,1.689,0,0,0,1.081.351,3.214,3.214,0,0,0,1.859-.583,2.471,2.471,0,0,0,.883-2.128Z" transform="translate(-108.185 -30.263)" fill="#fff"/>
    <path id="Path_85" data-name="Path 85" d="M151.865,26.778q.238.015.648.049v2.506q-.259-.033-.869-.049a1,1,0,0,0-.843.27.981.981,0,0,0-.232.632v.994h2.02v2.171h-2.02v9.494h-3.057V33.351h-1.728V31.18h1.685v-.756a3.975,3.975,0,0,1,.637-2.6q.67-1.059,3.229-1.059C151.531,26.762,151.708,26.767,151.865,26.778Z" transform="translate(-119.41 -26.46)" fill="#fff"/>
    <path id="Path_86" data-name="Path 86" d="M169.251,35.083a4.784,4.784,0,0,1,2.034,1.741,5.782,5.782,0,0,1,.938,2.434,15.02,15.02,0,0,1,.1,2.336H163.75a2.824,2.824,0,0,0,1.231,2.485,3.131,3.131,0,0,0,1.7.442,2.392,2.392,0,0,0,2.343-1.35h3.143a3.848,3.848,0,0,1-1.142,2.128,5.722,5.722,0,0,1-4.429,1.718,6.419,6.419,0,0,1-4.147-1.449q-1.8-1.448-1.8-4.713a6.374,6.374,0,0,1,1.622-4.692,5.676,5.676,0,0,1,4.209-1.632A6.7,6.7,0,0,1,169.251,35.083Zm-4.605,2.659a3.2,3.2,0,0,0-.82,1.822h5.3a2.573,2.573,0,0,0-.82-1.86,2.7,2.7,0,0,0-1.826-.634A2.441,2.441,0,0,0,164.646,37.741Z" transform="translate(-126.628 -30.232)" fill="#fff"/>
    <path id="Path_87" data-name="Path 87" d="M188.518,37.645a3.231,3.231,0,0,0,.607,1.631,3.532,3.532,0,0,0,2.834.983A6.1,6.1,0,0,0,193.91,40a1.853,1.853,0,0,0,1.423-1.847,1.362,1.362,0,0,0-.7-1.221,7.577,7.577,0,0,0-2.21-.745l-1.724-.379a10.719,10.719,0,0,1-3.491-1.22,3.881,3.881,0,0,1-1.61-3.446,4.575,4.575,0,0,1,1.575-3.553,6.71,6.71,0,0,1,4.625-1.415,7.09,7.09,0,0,1,4.346,1.334,4.74,4.74,0,0,1,1.886,3.872h-3.2a2.278,2.278,0,0,0-1.284-2.042,4.406,4.406,0,0,0-1.982-.4,3.773,3.773,0,0,0-2.1.519,1.641,1.641,0,0,0-.786,1.448,1.364,1.364,0,0,0,.775,1.274,9.652,9.652,0,0,0,2.116.659l2.793.659a7.113,7.113,0,0,1,2.754,1.155A3.9,3.9,0,0,1,198.54,37.9a4.568,4.568,0,0,1-1.687,3.624,7.118,7.118,0,0,1-4.765,1.441,7.791,7.791,0,0,1-4.946-1.42,4.7,4.7,0,0,1-1.8-3.9Z" transform="translate(-138.618 -26.174)" fill="#fff"/>
    <path id="Path_88" data-name="Path 88" d="M218.96,39.487a4.866,4.866,0,0,0,1.229-.27.926.926,0,0,0,.664-.875,1.033,1.033,0,0,0-.509-1,3.208,3.208,0,0,0-1.494-.276,1.963,1.963,0,0,0-1.566.54,2.232,2.232,0,0,0-.438,1.08h-2.97a4.5,4.5,0,0,1,.867-2.538q1.226-1.555,4.21-1.555a7.509,7.509,0,0,1,3.449.766,2.941,2.941,0,0,1,1.508,2.895v5.4q0,.563.022,1.361a1.707,1.707,0,0,0,.183.821,1.108,1.108,0,0,0,.454.356v.453H221.22a3.425,3.425,0,0,1-.194-.669q-.054-.314-.086-.713a6.386,6.386,0,0,1-1.477,1.178,4.469,4.469,0,0,1-2.259.572,3.9,3.9,0,0,1-2.657-.913,3.247,3.247,0,0,1-1.048-2.586,3.353,3.353,0,0,1,1.687-3.144,7.528,7.528,0,0,1,2.72-.756Zm1.882,1.436a3.376,3.376,0,0,1-.6.3,5.093,5.093,0,0,1-.827.211l-.7.13a4.587,4.587,0,0,0-1.415.421,1.4,1.4,0,0,0-.727,1.307,1.366,1.366,0,0,0,.444,1.139,1.687,1.687,0,0,0,1.081.351,3.216,3.216,0,0,0,1.859-.583,2.472,2.472,0,0,0,.883-2.128Z" transform="translate(-152.289 -30.263)" fill="#fff"/>
    <path id="Path_89" data-name="Path 89" d="M242.7,26.778q.237.015.648.049v2.506q-.259-.033-.87-.049a1,1,0,0,0-.842.27.982.982,0,0,0-.233.632v.994h2.02v2.171H241.4v9.494h-3.056V33.351h-1.728V31.18H238.3v-.756a3.978,3.978,0,0,1,.637-2.6q.67-1.059,3.23-1.059C242.362,26.762,242.538,26.767,242.7,26.778Z" transform="translate(-163.516 -26.46)" fill="#fff"/>
    <path id="Path_90" data-name="Path 90" d="M260.08,35.083a4.787,4.787,0,0,1,2.034,1.741,5.781,5.781,0,0,1,.938,2.434,15.02,15.02,0,0,1,.1,2.336h-8.574a2.825,2.825,0,0,0,1.232,2.485,3.13,3.13,0,0,0,1.7.442,2.391,2.391,0,0,0,2.343-1.35h3.143a3.847,3.847,0,0,1-1.141,2.128,5.722,5.722,0,0,1-4.429,1.718,6.418,6.418,0,0,1-4.147-1.449q-1.8-1.448-1.8-4.713a6.376,6.376,0,0,1,1.622-4.692,5.677,5.677,0,0,1,4.21-1.632A6.7,6.7,0,0,1,260.08,35.083Zm-4.606,2.659a3.2,3.2,0,0,0-.819,1.822h5.3a2.571,2.571,0,0,0-.819-1.86,2.7,2.7,0,0,0-1.826-.634A2.442,2.442,0,0,0,255.474,37.741Z" transform="translate(-170.733 -30.232)" fill="#fff"/>
  </g>
</svg>
