<svg xmlns="http://www.w3.org/2000/svg" width="102" height="113.436" viewBox="0 0 102 113.436">
    <defs>
        <style>
            .a_sick-approve{fill:#e5edf6;}
            .b_sick-approve{opacity:0.13;}
            .c_sick-approve{fill:#2757a4;}
            .d_sick-approve{fill:#fff;}
            .e_sick-approve{fill:#b7b7b7;}
            .f_sick-approve{fill:none;stroke:#b7b7b7;stroke-miterlimit:10;stroke-width:2.873px;}
            .g_sick-approve{fill:#d5233f;}
        </style>
    </defs>
    <g transform="translate(-256 -184.564)">
        <circle class="a_sick-approve" cx="51" cy="51" r="51" transform="translate(256 196)"/>
        <g transform="translate(270.115 186)">
            <path class="b_sick-approve" d="M76.919,15.23H58.7V10.448a1.326,1.326,0,0,0-1.326-1.326h-14.5a1.326,1.326,0,0,0-1.326,1.326V15.23H7.265a2.777,2.777,0,0,0-2.777,2.777v90.1a2.777,2.777,0,0,0,2.777,2.777H76.919A2.777,2.777,0,0,0,79.7,108.11v-90.1A2.776,2.776,0,0,0,76.919,15.23Z" transform="translate(-3.34 -3.095)"/>
            <path class="c_sick-approve" d="M75.919,109.1H6.265a2.777,2.777,0,0,1-2.777-2.777v-90.1a2.777,2.777,0,0,1,2.777-2.777H75.919A2.777,2.777,0,0,1,78.7,16.219v90.1A2.777,2.777,0,0,1,75.919,109.1Z" transform="translate(-3.488 -2.455)"/>
            <path class="d_sick-approve" d="M72.544,105.159H8.819A2.558,2.558,0,0,1,6.261,102.6V19.041a2.558,2.558,0,0,1,2.558-2.558H72.544A2.558,2.558,0,0,1,75.1,19.041V102.6A2.558,2.558,0,0,1,72.544,105.159Z" transform="translate(-3.077 -2.005)"/>
            <path class="e_sick-approve" d="M52.385,20.743H24.557A3.362,3.362,0,0,1,21.2,17.382v-5.85A3.362,3.362,0,0,1,24.557,8.17H52.385a3.362,3.362,0,0,1,3.361,3.362v5.85A3.363,3.363,0,0,1,52.385,20.743Z" transform="translate(-0.866 -3.236)"/>
            <path class="f_sick-approve" d="M47.528,16.444H28.19a2.862,2.862,0,0,1-2.862-2.862V6.734A2.862,2.862,0,0,1,28.19,3.872H47.528A2.862,2.862,0,0,1,50.39,6.734v6.847A2.861,2.861,0,0,1,47.528,16.444Z" transform="translate(-0.255 -3.872)"/>
        </g>
        <g transform="translate(285.354 221.727)">
            <path class="g_sick-approve" d="M46.739,21.44a.9.9,0,0,0-.907.907v2.519H42.709a17.56,17.56,0,0,0-4.635-10.681l2.418-2.418,1.814,1.814a.871.871,0,0,0,.6.3.718.718,0,0,0,.6-.3.861.861,0,0,0,0-1.31L38.577,7.333a.949.949,0,0,0-1.31.1.861.861,0,0,0,0,1.31l1.814,1.814-2.519,2.519A17.212,17.212,0,0,0,25.881,8.542V4.814H28.4a.9.9,0,0,0,.907-.907c0-.5-.2-.907-.705-.907H21.649a.907.907,0,0,0,0,1.814h2.62V8.441a17.709,17.709,0,0,0-10.681,4.534l-2.821-2.821,1.713-1.713a.861.861,0,0,0,0-1.31.861.861,0,0,0-1.31,0L6.232,12.069a.861.861,0,0,0,0,1.31.871.871,0,0,0,.6.3.718.718,0,0,0,.6-.3l1.915-2.015,2.821,2.821A16.9,16.9,0,0,0,7.643,24.866H3.814V22.347a.907.907,0,0,0-1.814,0V29.3a.907.907,0,1,0,1.814,0V26.68H7.643a16.807,16.807,0,0,0,4.434,10.883L9.557,40.081,7.744,38.267a.859.859,0,0,0-1.31,0,.861.861,0,0,0,0,1.31l4.937,4.937a.871.871,0,0,0,.6.3.718.718,0,0,0,.6-.3.861.861,0,0,0,0-1.31l-1.814-1.814,2.519-2.519a17.574,17.574,0,0,0,10.983,4.635v3.325h-2.62a.907.907,0,0,0,0,1.814H28.6a.907.907,0,0,0,0-1.814H26.083V43.507a17.714,17.714,0,0,0,10.983-4.534l2.116,2.116L37.267,43a.861.861,0,0,0,0,1.31.871.871,0,0,0,.6.3.718.718,0,0,0,.6-.3l4.937-4.937a.926.926,0,0,0-1.31-1.31l-1.713,1.713-2.116-2.116A17.071,17.071,0,0,0,42.709,26.68h3.124V29.3a.907.907,0,0,0,1.814,0V22.347A.974.974,0,0,0,46.739,21.44ZM36.562,36.958c-.1,0-.1.1-.2.1l-.1.1a15.814,15.814,0,0,1-22.168,0c0-.1-.1-.2-.2-.3s-.2-.1-.3-.2a15.574,15.574,0,0,1,.2-21.765c.1,0,.1-.1.2-.2s.1-.1.1-.2a15.677,15.677,0,0,1,26.6,11.286A14.447,14.447,0,0,1,36.562,36.958Z" transform="translate(-2 -3)"/>
            <circle class="g_sick-approve" cx="3.124" cy="3.124" r="3.124" transform="translate(19.851 19.607)"/>
            <path class="g_sick-approve" d="M20.321,20.641A2.721,2.721,0,1,0,17.6,17.921,2.775,2.775,0,0,0,20.321,20.641Z" transform="translate(-1.881 -3.15)"/>
            <circle class="g_sick-approve" cx="2.721" cy="2.721" r="2.721" transform="translate(25.191 11.949)"/>
            <circle class="g_sick-approve" cx="2.721" cy="2.721" r="2.721" transform="translate(29.826 20.111)"/>
            <circle class="g_sick-approve" cx="2.721" cy="2.721" r="2.721" transform="translate(10.882 20.111)"/>
            <path class="g_sick-approve" d="M20.321,31.5a2.721,2.721,0,1,0,2.721,2.721A2.709,2.709,0,0,0,20.321,31.5Z" transform="translate(-1.881 -3.025)"/>
            <circle class="g_sick-approve" cx="2.721" cy="2.721" r="2.721" transform="translate(25.191 28.373)"/>
        </g>
    </g>
</svg>
