<svg xmlns="http://www.w3.org/2000/svg" width="65" height="64" viewBox="0 0 65 64"><defs><style>.a_stop-covid-logo{fill:#0052a5;}.b_stop-covid-logo{fill:#d4213d;}.c_stop-covid-logo{fill:#fff;}</style></defs><rect class="a_stop-covid-logo" width="65" height="64" rx="13"/><g transform="translate(10.499 9.736)"><path class="b_stop-covid-logo" d="M27.658,27.934l-2.991,1.717-2.991,1.717v-1.44H6.443v9.305H20.069V52.86h9.305V48.1l3.988-3.268V52.8a3.93,3.93,0,0,1-1.219,2.88,4.156,4.156,0,0,1-2.88,1.219H20.125a3.93,3.93,0,0,1-2.88-1.219,4.156,4.156,0,0,1-1.219-2.88V43.277H6.5a3.93,3.93,0,0,1-2.88-1.219A4.156,4.156,0,0,1,2.4,39.178V30.039a3.93,3.93,0,0,1,1.219-2.88A4.156,4.156,0,0,1,6.5,25.94H21.731V24.5l2.991,1.717Z" transform="translate(-2.4 -12.045)"/><path class="c_stop-covid-logo" d="M27,14.253V6.5a3.93,3.93,0,0,1,1.219-2.88A4.156,4.156,0,0,1,31.1,2.4h9.195a3.93,3.93,0,0,1,2.88,1.219A4.156,4.156,0,0,1,44.392,6.5v9.582h9.582a3.93,3.93,0,0,1,2.88,1.219,4.156,4.156,0,0,1,1.219,2.88v9.139a3.93,3.93,0,0,1-1.219,2.88,4.262,4.262,0,0,1-2.88,1.219H38.743v1.44l-2.991-1.717-2.991-1.717,2.991-1.717,2.991-1.717v1.44H54.03V20.125H40.349V6.443H31.043v5.04Z" transform="translate(-13.374 -2.4)"/></g></svg>
