<svg xmlns="http://www.w3.org/2000/svg" width="71.568" height="95.953" viewBox="0 0 71.568 95.953"><defs><style>.a_telefon-reka{fill:#f4e4ef;}.b_telefon-reka{fill:#325a74;}.c_telefon-reka{fill:#fbd3b9;}.d_telefon-reka{opacity:0.13;}.d_telefon-reka,.h_telefon-reka{isolation:isolate;}.e_telefon-reka{fill:#c4c4c4;}.f_telefon-reka{fill:#2757a4;}.g_telefon-reka{fill:#919191;}.h_telefon-reka{opacity:0.2;}.i_telefon-reka{fill:#feccb5;}.j_telefon-reka{fill:#fff;}.k_telefon-reka{fill:#e73755;}</style></defs><g transform="translate(0 0)"><path class="a_telefon-reka" d="M384.98,549.159s-2.244-3.766-1.923-5.129,1.2-2,9.7-5.369,14.582-6.173,16.746-6.973,2.965.16,3.526,1.042,2.084,4.488,2.084,4.488S391.15,548.919,384.98,549.159Z" transform="translate(-354.554 -457.162)"/><g transform="translate(-354.554 -457.162)"><path class="b_telefon-reka" d="M383.791,553.115c-.543-1.739-.666-3.3,2.952-5,3.927-1.843,23.56-9.7,26.365-10.819s5.129-3.366,7.613,2.484c1.06,2.5,3.244,7.928,5.4,13.333C415.553,553.1,386.4,553.1,383.791,553.115Z"/></g><path class="c_telefon-reka" d="M409.983,532.41a31.214,31.214,0,0,1,1.2-12.582c2.084-6.571,3.366-9.216.962-16.829s-3.606-9.136-3.526-14.505c.059-3.927.08-6.812-1.122-7.453-.825-.44-4.808-.481-4.969,4.568s-29.811,44.4-29.811,44.4,7.533,6.01,9.3,8.254,2.965,4.087,2.965,4.087Z" transform="translate(-354.554 -457.162)"/><path class="d_telefon-reka" d="M372.719,530.006l1.2.988s18.655,1.09,23.32.935c4.808-.16,6.812-3.847,6.812-7.373,0-2.54-1.229-20.061-1.069-35.287A34.187,34.187,0,0,1,403.73,482s-2.244,2.564-2.324,8.9C401.351,495.388,372.719,530.006,372.719,530.006Z" transform="translate(-354.554 -457.162)"/><path class="e_telefon-reka" d="M396.983,529.926H367.527a5.412,5.412,0,0,1-5.413-5.413h0V462.575a5.413,5.413,0,0,1,5.413-5.413h29.456a5.414,5.414,0,0,1,5.413,5.413v61.938a5.413,5.413,0,0,1-5.413,5.413Z" transform="translate(-354.554 -457.162)"/><path class="f_telefon-reka" d="M399.28,520.309H365.337a1.583,1.583,0,0,1-1.583-1.583h0v-55.28a1.583,1.583,0,0,1,1.583-1.583H399.28a1.584,1.584,0,0,1,1.586,1.58v55.284a1.582,1.582,0,0,1-1.582,1.582Z" transform="translate(-354.554 -457.162)"/><circle class="g_telefon-reka" cx="2.564" cy="2.564" r="2.564" transform="translate(25.19 65.5)"/><path class="g_telefon-reka" d="M388.235,460.153H378.084a.588.588,0,0,1-.588-.588h0a.588.588,0,0,1,.588-.588h10.151a.588.588,0,0,1,.588.588h0a.588.588,0,0,1-.588.588Z" transform="translate(-354.554 -457.162)"/><circle class="g_telefon-reka" cx="0.591" cy="0.591" r="0.591" transform="translate(21.09 1.813)"/><path class="h_telefon-reka" d="M361.98,489.457s-1.282,1.122-.8,2.324,3.125,3.446,3.766,4.888.721,4.007-.24,5.289a23.627,23.627,0,0,1-1.923,2.244s4.007,3.526,3.366,5.77a9.68,9.68,0,0,1-2.483,3.927s1.122,1.763.561,3.045a4.634,4.634,0,0,1-2.484,1.923l.4,1.2s1.282,1.523,2.564,1.442,2.959-2.482,2.644-4.085a4.447,4.447,0,0,0-.882-2.164,8.014,8.014,0,0,0-.962-11.059,7.726,7.726,0,0,0,1.683-5.129,8.793,8.793,0,0,0-3.524-6.251c-1.442-1.2-1.6-1.442-1.6-1.683S361.98,489.457,361.98,489.457Z" transform="translate(-354.554 -457.162)"/><path class="c_telefon-reka" d="M364.625,514.379s1.441,4.648-1.359,5.209a6.361,6.361,0,0,1-6.9-3.045c-1.363-2.4.561-5.85.561-5.85s-3.041-3.125-2.239-6.571,2.484-3.045,2.484-3.045-4.247-4.089-1.763-8.254a8.548,8.548,0,0,1,6.251-4.408s-6.732-2.4-6.01-7.773c.666-4.956,6.464-2.564,6.464-2.564v15.31s4.274,3.366,3.312,6.732-2.16,4-2.16,4,4.007,3.446,3.286,6.571S364.625,514.379,364.625,514.379Z" transform="translate(-354.554 -457.162)"/><path class="i_telefon-reka" d="M357.546,497.1a3.863,3.863,0,0,0,.347,3.553c.935,1.149,2.03,2.4,2.885,1.683a4.74,4.74,0,0,0,1.736-2.725c.08-.908.427-1.656-1.2-2.618S358.588,495.761,357.546,497.1Z" transform="translate(-354.554 -457.162)"/><path class="i_telefon-reka" d="M358.294,507.007a3.4,3.4,0,0,0,.214,3.713c1.122,1.309,1.923,1.736,2.645,1.629a2.023,2.023,0,0,0,1.843-1.71c.374-1.336.481-2.377-1.149-3.553S358.988,506.018,358.294,507.007Z" transform="translate(-354.554 -457.162)"/><path class="i_telefon-reka" d="M357.813,513.688a3.945,3.945,0,0,0,.4,3.019c.721.988,2.244,1.79,2.591,1.469a4.006,4.006,0,0,0,1.175-2.271,1.682,1.682,0,0,0-.721-1.9,8.222,8.222,0,0,0-2.057-1.336C358.748,512.562,358.214,512.777,357.813,513.688Z" transform="translate(-354.554 -457.162)"/><path class="i_telefon-reka" d="M408.113,481.763s-1.977-.08-2.19,1.656-.748,4.194.748,5.236,1.576,1.2,1.9,1.1.187-2.458.08-4.888S408.7,482.137,408.113,481.763Z" transform="translate(-354.554 -457.162)"/><path class="d_telefon-reka" d="M361.66,488.415s-2.217-.588-2-2.124c.155-1.116,2.276-.8,2.2-4.287-.08-3.847-1.189-4.327-1.189-4.327a3.084,3.084,0,0,1,1.442.4c.641.4.053,10.5.053,10.5Z" transform="translate(-354.554 -457.162)"/><path class="d_telefon-reka" d="M363.266,519.588c2.8-.561,1.362-5.209,1.362-5.209s1.2-.561,1.923-3.686-3.285-6.571-3.285-6.571,1.2-.641,2.164-4.007-3.317-6.727-3.317-6.727v-2.783l-.494,3.019s3.486,3.206,3.326,5.583a6.334,6.334,0,0,1-1.229,3.581,5.712,5.712,0,0,1-1.282,1.282,16.387,16.387,0,0,1,2.671,3.473c.748,1.589,1.122,3.1-.16,4.969a4.85,4.85,0,0,1-1.229,1.389,14.945,14.945,0,0,1,.641,2.832A3.646,3.646,0,0,1,363.266,519.588Z" transform="translate(-354.554 -457.162)"/><g transform="translate(-354.554 -457.162)"><path class="j_telefon-reka" d="M392.681,485.1h-5.094v-5.545a2.059,2.059,0,0,0-2.057-2.059h-5.564a2.059,2.059,0,0,0-2.059,2.059h0v4.809l2.377-1.869v-2.11a.409.409,0,0,1,.408-.41h4.1a.408.408,0,0,1,.408.408v7.059h.005v.037h6.64a.411.411,0,0,1,.409.408v4.1a.409.409,0,0,1-.409.409h-7.6v-.711l-2.929,1.922,2.929,1.921v-.753h8.433a2.06,2.06,0,0,0,2.059-2.058v-5.559A2.06,2.06,0,0,0,392.681,485.1Z"/><path class="k_telefon-reka" d="M385.219,499.272a.407.407,0,0,1-.4.409h-4.1a.409.409,0,0,1-.409-.409h0v-7.059h0v-.036h-6.646a.409.409,0,0,1-.409-.409v-4.1a.409.409,0,0,1,.408-.41h7.611v.71l2.929-1.921-2.929-1.925v.757h-8.437a2.058,2.058,0,0,0-2.063,2.053V492.5a2.058,2.058,0,0,0,2.059,2.058h5.094V500.1a2.056,2.056,0,0,0,2.056,2.058h5.56a2.06,2.06,0,0,0,2.059-2.058v-4.812l-2.378,1.87v2.111Z"/></g></g></svg>
