<svg id="telefon-reka" xmlns="http://www.w3.org/2000/svg" width="48.881" height="65.536" viewBox="0 0 48.881 65.536">
  <path id="Path_537" data-name="Path 537" d="M384.36,543.526s-1.533-2.572-1.313-3.5.82-1.366,6.625-3.667,9.96-4.216,11.438-4.763,2.025.109,2.408.712,1.423,3.065,1.423,3.065S388.575,543.362,384.36,543.526Z" transform="translate(-363.579 -480.692)" fill="#f4e4ef"/>
  <g id="Group_603" data-name="Group 603" transform="translate(19.774 53.796)">
    <g id="Group_1055" data-name="Group 1055" transform="translate(0 0)">
      <g id="Group_602" data-name="Group 602">
        <path id="Path_538" data-name="Path 538" d="M383.7,547.666c-.371-1.188-.455-2.254,2.016-3.414,2.682-1.259,16.091-6.625,18.007-7.389s3.5-2.3,5.2,1.7c.724,1.705,2.216,5.415,3.688,9.106C405.394,547.654,385.486,547.654,383.7,547.666Z" transform="translate(-383.505 -535.926)" fill="#325a74"/>
      </g>
    </g>
  </g>
  <path id="Path_539" data-name="Path 539" d="M398.17,516.068a21.319,21.319,0,0,1,.82-8.594c1.423-4.488,2.3-6.295.657-11.494s-2.463-6.24-2.408-9.907c.04-2.682.055-4.653-.766-5.09-.564-.3-3.284-.328-3.394,3.12s-20.361,30.325-20.361,30.325,5.145,4.1,6.352,5.638,2.025,2.791,2.025,2.791Z" transform="translate(-360.311 -464.674)" fill="#fbd3b9"/>
  <path id="Path_540" data-name="Path 540" d="M372.719,514.789l.82.675s12.741.744,15.928.639c3.284-.109,4.653-2.628,4.653-5.036,0-1.735-.839-13.7-.73-24.1A23.349,23.349,0,0,1,393.9,482s-1.533,1.751-1.587,6.079C392.275,491.145,372.719,514.789,372.719,514.789Z" transform="translate(-360.312 -465.037)" opacity="0.13" style="isolation: isolate"/>
  <path id="Path_541" data-name="Path 541" d="M385.93,506.86H365.811a3.7,3.7,0,0,1-3.7-3.7h0v-42.3a3.7,3.7,0,0,1,3.7-3.7H385.93a3.7,3.7,0,0,1,3.7,3.7v42.3a3.7,3.7,0,0,1-3.7,3.7Z" transform="translate(-356.95 -457.162)" fill="#c4c4c4"/>
  <path id="Path_542" data-name="Path 542" d="M388.018,501.782H364.835a1.081,1.081,0,0,1-1.081-1.081h0V462.944a1.081,1.081,0,0,1,1.081-1.081h23.183a1.082,1.082,0,0,1,1.083,1.079V500.7a1.081,1.081,0,0,1-1.081,1.081Z" transform="translate(-357.47 -458.652)" fill="#0052a5"/>
  <ellipse id="Ellipse_98" data-name="Ellipse 98" cx="1.751" cy="1.751" rx="1.751" ry="1.751" transform="translate(17.205 44.737)" fill="#919191"/>
  <path id="Path_543" data-name="Path 543" d="M384.831,459.78H377.9a.4.4,0,0,1-.4-.4h0a.4.4,0,0,1,.4-.4h6.933a.4.4,0,0,1,.4.4h0a.4.4,0,0,1-.4.4Z" transform="translate(-361.826 -457.737)" fill="#919191"/>
  <ellipse id="Ellipse_99" data-name="Ellipse 99" cx="0.404" cy="0.404" rx="0.404" ry="0.404" transform="translate(14.405 1.238)" fill="#919191"/>
  <path id="Path_544" data-name="Path 544" d="M361.692,489.457s-.876.766-.546,1.587,2.134,2.354,2.572,3.339a4.175,4.175,0,0,1-.164,3.612,16.135,16.135,0,0,1-1.313,1.533s2.737,2.408,2.3,3.941a6.612,6.612,0,0,1-1.7,2.682,2.681,2.681,0,0,1,.383,2.08,3.165,3.165,0,0,1-1.7,1.313l.273.82s.876,1.04,1.751.985,2.021-1.7,1.806-2.79a3.037,3.037,0,0,0-.6-1.478,5.473,5.473,0,0,0-.657-7.553,5.277,5.277,0,0,0,1.15-3.5,6.006,6.006,0,0,0-2.407-4.269c-.985-.82-1.093-.985-1.093-1.15S361.692,489.457,361.692,489.457Z" transform="translate(-356.62 -467.4)" opacity="0.2" style="isolation: isolate"/>
  <path id="Path_545" data-name="Path 545" d="M361.432,502.689s.984,3.175-.928,3.558a4.344,4.344,0,0,1-4.713-2.08c-.931-1.639.383-4,.383-4s-2.077-2.134-1.529-4.488,1.7-2.08,1.7-2.08-2.9-2.793-1.2-5.637a5.838,5.838,0,0,1,4.269-3.011s-4.6-1.639-4.1-5.309c.455-3.385,4.415-1.751,4.415-1.751v10.457s2.919,2.3,2.262,4.6-1.475,2.734-1.475,2.734,2.737,2.354,2.244,4.488S361.432,502.689,361.432,502.689Z" transform="translate(-354.553 -463.609)" fill="#fbd3b9"/>
  <path id="Path_546" data-name="Path 546" d="M357.457,496.806a2.639,2.639,0,0,0,.237,2.427c.639.785,1.386,1.639,1.97,1.15a3.238,3.238,0,0,0,1.186-1.861c.055-.62.292-1.131-.82-1.788S358.169,495.894,357.457,496.806Z" transform="translate(-355.413 -469.531)" fill="#feccb5"/>
  <path id="Path_547" data-name="Path 547" d="M358.151,506.762a2.322,2.322,0,0,0,.146,2.536c.766.894,1.313,1.186,1.807,1.113a1.381,1.381,0,0,0,1.259-1.168,1.863,1.863,0,0,0-.785-2.427C359.464,506.013,358.625,506.087,358.151,506.762Z" transform="translate(-355.596 -472.718)" fill="#feccb5"/>
  <path id="Path_548" data-name="Path 548" d="M357.77,513.357a2.7,2.7,0,0,0,.273,2.062c.492.675,1.533,1.223,1.77,1a2.736,2.736,0,0,0,.8-1.551,1.149,1.149,0,0,0-.492-1.3,5.616,5.616,0,0,0-1.4-.912C358.408,512.588,358.043,512.735,357.77,513.357Z" transform="translate(-355.543 -474.75)" fill="#feccb5"/>
  <path id="Path_549" data-name="Path 549" d="M407.333,481.763s-1.35-.055-1.5,1.131-.511,2.865.511,3.576,1.076.82,1.3.751.128-1.679.055-3.339S407.734,482.018,407.333,481.763Z" transform="translate(-370.752 -464.96)" fill="#feccb5"/>
  <path id="Path_550" data-name="Path 550" d="M361.021,485.011s-1.514-.4-1.366-1.451c.106-.762,1.555-.546,1.5-2.928-.055-2.628-.812-2.955-.812-2.955a2.105,2.105,0,0,1,.985.273c.438.273.036,7.172.036,7.172Z" transform="translate(-356.167 -463.665)" opacity="0.13" style="isolation: isolate"/>
  <path id="Path_551" data-name="Path 551" d="M362.744,510.4c1.912-.383.93-3.558.93-3.558s.82-.383,1.313-2.518-2.244-4.488-2.244-4.488.82-.438,1.478-2.737-2.266-4.595-2.266-4.595v-1.9l-.337,2.062s2.381,2.19,2.272,3.813a4.327,4.327,0,0,1-.839,2.446,3.9,3.9,0,0,1-.876.876A11.191,11.191,0,0,1,364,502.174a3.038,3.038,0,0,1-.109,3.394,3.312,3.312,0,0,1-.839.949,10.21,10.21,0,0,1,.438,1.934A2.491,2.491,0,0,1,362.744,510.4Z" transform="translate(-356.793 -467.763)" opacity="0.13" style="isolation: isolate"/>
  <g id="Group_604" data-name="Group 604" transform="translate(-359.446 -461.665)">
    <path id="Path_552" data-name="Path 552" d="M388.035,482.712h-3.492v-3.8a1.412,1.412,0,0,0-1.41-1.412h-3.814a1.412,1.412,0,0,0-1.412,1.412h0v3.3l1.63-1.281V479.48a.28.28,0,0,1,.28-.281h2.811a.28.28,0,0,1,.28.28h0v4.838h0v.025h4.552a.281.281,0,0,1,.28.28v2.811a.28.28,0,0,1-.28.28h-5.209v-.487l-2.008,1.318,2.008,1.317v-.516h5.781a1.412,1.412,0,0,0,1.412-1.411v-3.811A1.412,1.412,0,0,0,388.035,482.712Z" transform="translate(-2.245)" fill="#fff"/>
    <path id="Path_553" data-name="Path 553" d="M380.674,494.508a.279.279,0,0,1-.278.28h-2.813a.28.28,0,0,1-.28-.28h0v-4.839h0v-.025h-4.556a.28.28,0,0,1-.28-.28v-2.811a.28.28,0,0,1,.28-.281h5.218v.487l2.008-1.317-2.008-1.32v.519H372.18a1.411,1.411,0,0,0-1.414,1.407v3.814a1.411,1.411,0,0,0,1.412,1.411h3.492v3.8a1.41,1.41,0,0,0,1.41,1.411h3.812a1.412,1.412,0,0,0,1.412-1.411v-3.3l-1.63,1.282v1.447Z" transform="translate(0 -2.083)" fill="#fff"/>
  </g>
</svg>
