<svg xmlns="http://www.w3.org/2000/svg" width="22.38" height="22.38" viewBox="0 0 22.38 22.38"><g transform="translate(-37.94 -331)"><path d="M23.935,12.041a.443.443,0,0,0-.445.445v1.235H21.959a8.61,8.61,0,0,0-2.273-5.237L20.872,7.3l.889.889a.427.427,0,0,0,.3.148.352.352,0,0,0,.3-.148.422.422,0,0,0,0-.642L19.934,5.124a.465.465,0,0,0-.642.049.422.422,0,0,0,0,.642l.889.889L18.945,7.94a8.439,8.439,0,0,0-5.237-2.223V3.889h1.235a.443.443,0,0,0,.445-.445c0-.247-.1-.445-.346-.445H11.634a.445.445,0,0,0,0,.889h1.284V5.668A8.683,8.683,0,0,0,7.681,7.891L6.3,6.508l.84-.84A.454.454,0,0,0,6.5,5.026L4.075,7.446a.422.422,0,0,0,0,.642.427.427,0,0,0,.3.148.352.352,0,0,0,.3-.148L5.606,7.1,6.99,8.484a8.287,8.287,0,0,0-2.223,5.237H2.889V12.486a.445.445,0,1,0-.889,0v3.409a.445.445,0,1,0,.889,0V14.61H4.767A8.24,8.24,0,0,0,6.94,19.945L5.705,21.181l-.889-.889a.421.421,0,0,0-.642,0,.422.422,0,0,0,0,.642l2.421,2.421a.427.427,0,0,0,.3.148.352.352,0,0,0,.3-.148.422.422,0,0,0,0-.642L6.3,21.823l1.235-1.235a8.616,8.616,0,0,0,5.385,2.273v1.63H11.634a.445.445,0,0,0,0,.889h3.409a.445.445,0,0,0,0-.889H13.807V22.86a8.685,8.685,0,0,0,5.385-2.223l1.037,1.037-.939.939a.422.422,0,0,0,0,.642.427.427,0,0,0,.3.148.352.352,0,0,0,.3-.148L22.3,20.835a.454.454,0,0,0-.642-.642l-.84.84-1.037-1.037a8.37,8.37,0,0,0,2.174-5.385h1.532v1.284a.445.445,0,0,0,.889,0V12.486A.478.478,0,0,0,23.935,12.041Zm-4.99,7.608c-.049,0-.049.049-.1.049l-.049.049a7.754,7.754,0,0,1-10.869,0c0-.049-.049-.1-.1-.148s-.1-.049-.148-.1A7.636,7.636,0,0,1,7.78,8.83c.049,0,.049-.049.1-.1s.049-.049.049-.1a7.686,7.686,0,0,1,13.043,5.533A7.083,7.083,0,0,1,18.945,19.649Z" transform="translate(35.94 328)"/><circle cx="1.532" cy="1.532" r="1.532" transform="translate(47.673 340.613)"/><path d="M18.934,17.868A1.334,1.334,0,1,0,17.6,16.534,1.361,1.361,0,0,0,18.934,17.868Z" transform="translate(28.047 321.708)"/><circle cx="1.334" cy="1.334" r="1.334" transform="translate(50.291 336.858)"/><circle cx="1.334" cy="1.334" r="1.334" transform="translate(52.564 340.86)"/><circle cx="1.334" cy="1.334" r="1.334" transform="translate(43.276 340.86)"/><path d="M18.934,31.5a1.334,1.334,0,1,0,1.334,1.334A1.328,1.328,0,0,0,18.934,31.5Z" transform="translate(28.047 313.461)"/><circle cx="1.334" cy="1.334" r="1.334" transform="translate(50.291 344.911)"/></g></svg>