<svg xmlns="http://www.w3.org/2000/svg" width="34" height="34" viewBox="0 0 34 34"><defs><style>.a_virus-high{fill:#d5233f;}</style></defs><g transform="translate(-37.94 -331)"><path class="a_virus-high" d="M35.325,16.735a.673.673,0,0,0-.675.675v1.876H32.322a13.08,13.08,0,0,0-3.453-7.956l1.8-1.8,1.351,1.351a.649.649,0,0,0,.45.225.535.535,0,0,0,.45-.225.641.641,0,0,0,0-.976L29.245,6.227a.707.707,0,0,0-.976.075.641.641,0,0,0,0,.976L29.62,8.629l-1.876,1.876a12.82,12.82,0,0,0-7.956-3.377V4.351h1.876a.673.673,0,0,0,.675-.675c0-.375-.15-.675-.525-.675H16.636a.675.675,0,0,0,0,1.351h1.951v2.7a13.191,13.191,0,0,0-7.956,3.377l-2.1-2.1L9.806,7.053a.641.641,0,0,0,0-.976.641.641,0,0,0-.976,0L5.152,9.755a.641.641,0,0,0,0,.976.649.649,0,0,0,.45.225.535.535,0,0,0,.45-.225l1.426-1.5,2.1,2.1A12.589,12.589,0,0,0,6.2,19.287H3.351V17.411a.675.675,0,0,0-1.351,0v5.179a.675.675,0,1,0,1.351,0V20.638H6.2a12.519,12.519,0,0,0,3.3,8.106L7.629,30.62,6.278,29.269a.64.64,0,0,0-.976,0,.641.641,0,0,0,0,.976L8.98,33.923a.649.649,0,0,0,.45.225.535.535,0,0,0,.45-.225.641.641,0,0,0,0-.976L8.53,31.6l1.876-1.876a13.09,13.09,0,0,0,8.181,3.453v2.477H16.636a.675.675,0,0,0,0,1.351h5.179a.675.675,0,0,0,0-1.351H19.938V33.172a13.2,13.2,0,0,0,8.181-3.377L29.7,31.371,28.269,32.8a.641.641,0,0,0,0,.976.649.649,0,0,0,.45.225.535.535,0,0,0,.45-.225l3.678-3.678a.69.69,0,1,0-.976-.976L30.6,30.4,29.02,28.819a12.716,12.716,0,0,0,3.3-8.181h2.327v1.951a.675.675,0,0,0,1.351,0V17.411A.726.726,0,0,0,35.325,16.735ZM27.744,28.294c-.075,0-.075.075-.15.075l-.075.075a11.779,11.779,0,0,1-16.512,0c0-.075-.075-.15-.15-.225s-.15-.075-.225-.15a11.6,11.6,0,0,1,.15-16.212c.075,0,.075-.075.15-.15s.075-.075.075-.15a11.677,11.677,0,0,1,19.815,8.406A10.761,10.761,0,0,1,27.744,28.294Z" transform="translate(35.94 328)"/><circle class="a_virus-high" cx="2.327" cy="2.327" r="2.327" transform="translate(52.726 345.605)"/><path class="a_virus-high" d="M19.626,19.253A2.026,2.026,0,1,0,17.6,17.226,2.067,2.067,0,0,0,19.626,19.253Z" transform="translate(32.049 324.776)"/><circle class="a_virus-high" cx="2.026" cy="2.026" r="2.026" transform="translate(56.704 339.9)"/><circle class="a_virus-high" cx="2.026" cy="2.026" r="2.026" transform="translate(60.157 345.98)"/><circle class="a_virus-high" cx="2.026" cy="2.026" r="2.026" transform="translate(46.046 345.98)"/><path class="a_virus-high" d="M19.626,31.5a2.026,2.026,0,1,0,2.026,2.026A2.018,2.018,0,0,0,19.626,31.5Z" transform="translate(32.049 320.71)"/><circle class="a_virus-high" cx="2.026" cy="2.026" r="2.026" transform="translate(56.704 352.134)"/></g></svg>
