<?xml version="1.0" encoding="utf-8"?>
<!-- Generator: Adobe Illustrator 24.1.1, SVG Export Plug-In . SVG Version: 6.00 Build 0)  -->
<svg version="1.1" id="Warstwa_1" xmlns="http://www.w3.org/2000/svg" xmlns:xlink="http://www.w3.org/1999/xlink" x="0px" y="0px"
	 width="54px" height="56px" viewBox="0 0 54 56" style="enable-background:new 0 0 54 56;" xml:space="preserve">
<style type="text/css">
	.st0{fill:#0052A5;}
</style>
<g>
	<path class="st0" d="M18.529,19.864c-0.332,0.332-0.332,0.87,0,1.202l7.156,7.156l-7.087,7.087c-0.332,0.331-0.332,0.87,0,1.201
		c0.332,0.332,0.87,0.332,1.202,0l6.322-6.322c0.009,6.994,0.004,12.725-0.031,13.387c-0.034,0.207,0.01,0.425,0.133,0.609
		c0.162,0.241,0.43,0.377,0.707,0.377c0.11,0,0.222-0.021,0.328-0.066c0.152-0.063,0.262-0.109,0.343-0.254l7.594-7.595
		c0.072-0.038,0.144-0.076,0.204-0.136c0.332-0.331,0.332-0.87,0-1.201l-7.156-7.157l7.087-7.086
		c0.16-0.159,0.249-0.375,0.249-0.601s-0.089-0.441-0.249-0.601l-7.8-7.801c-0.244-0.244-0.611-0.315-0.928-0.184
		c-0.318,0.132-0.524,0.443-0.523,0.788c0.014,4.118,0.027,8.963,0.036,13.582l-6.385-6.385
		C19.399,19.532,18.861,19.532,18.529,19.864z M27.822,30.134l5.743,5.742l-5.751,5.75c0.007-0.718,0.008-1.626,0.01-2.782
		C27.828,36.424,27.827,33.334,27.822,30.134z M33.529,20.465l-5.713,5.713c-0.009-4.616-0.021-8.991-0.029-11.456L33.529,20.465z"
		/>
	<path class="st0" d="M42.887,44.485c-4.288,4.134-9.931,6.41-15.887,6.41C14.375,50.896,4.105,40.624,4.105,28
		c0-5.822,2.187-11.37,6.158-15.622c0.32-0.343,0.302-0.881-0.041-1.201c-0.342-0.32-0.879-0.302-1.201,0.041
		C4.754,15.786,2.405,21.746,2.405,28c0,13.562,11.033,24.595,24.595,24.595c6.398,0,12.46-2.445,17.066-6.885
		c0.338-0.326,0.348-0.864,0.022-1.202C43.763,44.171,43.225,44.161,42.887,44.485z"/>
	<path class="st0" d="M27,3.405c-5.197,0-10.165,1.601-14.367,4.63c-0.381,0.274-0.467,0.806-0.192,1.187
		c0.274,0.381,0.806,0.467,1.187,0.192C17.538,6.595,22.162,5.105,27,5.105c12.624,0,22.896,10.271,22.896,22.895
		c0,4.91-1.532,9.592-4.432,13.539c-0.277,0.378-0.196,0.91,0.183,1.188c0.151,0.111,0.327,0.164,0.502,0.164
		c0.262,0,0.52-0.12,0.687-0.347c3.114-4.241,4.76-9.271,4.76-14.545C51.595,14.438,40.562,3.405,27,3.405z"/>
</g>
</svg>
