<svg xmlns="http://www.w3.org/2000/svg" width="37" height="25" viewBox="0 0 37 25"><defs><style>.a-european-union{fill:#0052b4;}.b-european-union{fill:#ffda44;}</style></defs><rect class="a-european-union" width="37" height="25" transform="translate(0 0)"/><g transform="translate(11.562 5.562)"><path class="b-european-union" d="M235.933,159.994l.369,1.136H237.5l-.966.7.369,1.136-.966-.7-.966.7.369-1.136-.966-.7h1.194Z" transform="translate(-228.996 -159.994)"/><path class="b-european-union" d="M184.238,184.232l1.064.542.844-.844-.187,1.179,1.064.542-1.179.187-.187,1.179-.542-1.064-1.179.187.844-.844Z" transform="translate(-182.206 -182.2)"/><path class="b-european-union" d="M160,235.928l1.136-.369v-1.194l.7.966,1.136-.369-.7.966.7.966-1.136-.369-.7.966V236.3Z" transform="translate(-160 -228.991)"/><path class="b-european-union" d="M184.238,288.117l.542-1.064-.844-.844,1.179.187.542-1.064.187,1.179,1.179.187-1.064.542.187,1.179-.844-.844Z" transform="translate(-182.206 -276.274)"/><path class="b-european-union" d="M235.933,313.825l-.369-1.136H234.37l.966-.7-.369-1.136.966.7.966-.7-.369,1.136.966.7H236.3Z" transform="translate(-228.996 -299.95)"/><path class="b-european-union" d="M288.123,288.117l-1.064-.542-.844.844.187-1.18-1.064-.542,1.179-.187.187-1.179.542,1.064,1.179-.187-.844.844Z" transform="translate(-276.28 -276.274)"/><path class="b-european-union" d="M313.83,235.928l-1.136.369v1.194l-.7-.966-1.136.369.7-.966-.7-.966,1.136.369.7-.966v1.194Z" transform="translate(-299.955 -228.991)"/><path class="b-european-union" d="M288.123,184.232l-.542,1.064.844.844-1.18-.187-.542,1.064-.187-1.179-1.179-.187,1.064-.542-.187-1.179.844.844Z" transform="translate(-276.28 -182.2)"/></g></svg>
