<?xml version="1.0" encoding="utf-8"?>
<!-- Generator: Adobe Illustrator 24.1.1, SVG Export Plug-In . SVG Version: 6.00 Build 0)  -->
<svg version="1.1" id="Warstwa_1" xmlns="http://www.w3.org/2000/svg" xmlns:xlink="http://www.w3.org/1999/xlink" x="0px" y="0px"
	 width="380.941px" height="85.499px" viewBox="0 0 380.941 85.499" style="enable-background:new 0 0 380.941 85.499;"
	 xml:space="preserve">
<style type="text/css">
	.protegosafe_logo_white_st0{fill-rule:evenodd;clip-rule:evenodd;fill:#FFFFFF;}
	.protegosafe_logo_white_st1{fill:#FFFFFF;}
</style>
<g>
	<g>
		<path class="protegosafe_logo_white_st0" d="M48.292,30.451l-5.369,3.1l-5.37,3.1v-2.578H10.101c-0.038,0-0.076,0.018-0.104,0.048
			c-0.029,0.029-0.048,0.066-0.048,0.104v16.547c0,0.038,0.018,0.075,0.048,0.105c0.029,0.029,0.066,0.047,0.104,0.047h24.524
			v24.524c0,0.038,0.018,0.075,0.047,0.105c0.029,0.029,0.066,0.047,0.105,0.047h16.547c0.038,0,0.075-0.017,0.104-0.047
			c0.03-0.03,0.048-0.066,0.048-0.105v-8.496l7.245-5.894v14.39c0,2.039-0.831,3.889-2.17,5.227c-1.338,1.338-3.189,2.17-5.226,2.17
			H34.777c-2.038,0-3.888-0.831-5.227-2.17c-1.339-1.338-2.17-3.189-2.17-5.227V58.169H10.101c-2.038,0-3.888-0.831-5.227-2.17
			c-1.338-1.338-2.17-3.189-2.17-5.227V34.225c0-2.038,0.831-3.888,2.17-5.226c1.338-1.339,3.189-2.17,5.227-2.17h27.451v-2.578
			l5.37,3.1L48.292,30.451z"/>
		<path class="protegosafe_logo_white_st0" d="M27.38,23.591V9.549c0-2.038,0.831-3.888,2.17-5.227c1.338-1.339,3.189-2.17,5.227-2.17h16.547
			c2.038,0,3.888,0.831,5.226,2.17c1.339,1.339,2.17,3.189,2.17,5.227v17.279h17.279c2.038,0,3.888,0.831,5.226,2.17
			c1.339,1.338,2.17,3.189,2.17,5.226v16.547c0,2.038-0.831,3.889-2.17,5.227c-1.339,1.338-3.189,2.17-5.226,2.17H48.484v2.578
			l-5.369-3.1l-5.37-3.1l5.37-3.1l5.369-3.1v2.578h27.515c0.038,0,0.075-0.018,0.104-0.047c0.029-0.03,0.048-0.067,0.048-0.105
			V34.225c0-0.038-0.018-0.075-0.048-0.104c-0.029-0.03-0.067-0.048-0.104-0.048H51.475V9.549c0-0.038-0.018-0.075-0.048-0.104
			c-0.029-0.029-0.066-0.048-0.104-0.048H34.777c-0.038,0-0.075,0.018-0.105,0.048c-0.029,0.029-0.047,0.067-0.047,0.104v8.962
			L27.38,23.591z"/>
	</g>
</g>
<g>
	<path class="protegosafe_logo_white_st1" d="M105.368,59.778h-6.586V28.249h14.402c6.103,0,9.793,3.908,9.793,10.101c0,2.853-1.582,10.054-10.056,10.054
		h-7.553V59.778z M111.472,42.959c4.918,0,4.918-3.511,4.918-4.916c0-3.075-1.713-4.348-5.796-4.348h-5.226v9.264H111.472z"/>
	<path class="protegosafe_logo_white_st1" d="M126.966,36.415h5.884v4.04h0.089c1.273-2.371,2.678-4.655,6.411-4.655c0.395,0,0.79,0.046,1.185,0.089v6.236
		c-0.527-0.089-1.185-0.089-1.757-0.089c-4.786,0-5.664,2.989-5.664,5.578v12.164h-6.148V36.415z"/>
	<path class="protegosafe_logo_white_st1" d="M154.551,60.393c-6.279,0-11.944-3.865-11.944-12.296S148.272,35.8,154.551,35.8
		c6.28,0,11.944,3.865,11.944,12.296S160.831,60.393,154.551,60.393z M154.551,40.985c-4.743,0-5.621,4.126-5.621,7.112
		s0.878,7.115,5.621,7.115s5.621-4.13,5.621-7.115S159.294,40.985,154.551,40.985z"/>
	<path class="protegosafe_logo_white_st1" d="M177.467,36.415h3.82v4.391h-3.82v12.693c0,1.359,0.043,1.888,2.548,1.888c0.395,0,0.833-0.043,1.273-0.089
		v4.655c-0.967,0.043-1.933,0.089-2.898,0.089h-0.79c-5.315,0-6.28-2.02-6.28-5.052V40.806h-3.161v-4.391h3.161v-6.322h6.148V36.415
		z"/>
	<path class="protegosafe_logo_white_st1" d="M205.105,52.927c-1.625,5.621-6.28,7.466-10.276,7.466c-6.586,0-11.637-3.161-11.637-12.779
		c0-2.81,0.965-11.813,11.197-11.813c4.611,0,10.979,2.195,10.979,12.868v1.098h-16.027c0.175,1.756,0.526,5.707,5.488,5.707
		c1.713,0,3.468-0.876,3.953-2.546H205.105z M199.045,45.769c-0.352-3.776-2.766-4.916-4.743-4.916
		c-2.898,0-4.435,1.845-4.786,4.916H199.045z"/>
	<path class="protegosafe_logo_white_st1" d="M224.939,42.783h13.174v16.994h-4.391l-0.66-3.951c-1.668,1.931-4.083,4.784-9.836,4.784
		c-7.596,0-14.49-5.446-14.49-16.508c0-8.563,4.741-16.687,15.325-16.687h0.088c9.661,0,13.481,6.279,13.832,10.626h-6.586
		c0-1.23-2.24-5.181-6.894-5.181c-4.698,0-9.046,3.247-9.046,11.327c0,8.606,4.698,10.848,9.177,10.848
		c1.45,0,6.28-0.572,7.641-6.94h-7.333V42.783z"/>
	<path class="protegosafe_logo_white_st1" d="M258.01,27.416c4.171,0,15.149,1.798,15.149,16.598s-10.979,16.598-15.149,16.598
		c-4.173,0-15.149-1.798-15.149-16.598S253.838,27.416,258.01,27.416z M258.01,55.037c3.556,0,8.563-2.195,8.563-11.023
		s-5.008-11.023-8.563-11.023c-3.558,0-8.563,2.195-8.563,11.023S254.453,55.037,258.01,55.037z"/>
</g>
<g>
	<path class="protegosafe_logo_white_st1" d="M295.36,50.074c0.043,1.756,0.922,5.092,6.674,5.092c3.118,0,6.588-0.744,6.588-4.083
		c0-2.456-2.372-3.118-5.708-3.908l-3.382-0.79c-5.093-1.183-10.011-2.328-10.011-9.264c0-3.515,1.888-9.704,12.119-9.704
		c9.661,0,12.25,6.322,12.296,10.187h-6.323c-0.175-1.405-0.703-4.741-6.456-4.741c-2.503,0-5.488,0.922-5.488,3.776
		c0,2.46,2.02,2.986,3.338,3.293l7.684,1.888c4.303,1.055,8.254,2.81,8.254,8.474c0,9.486-9.659,10.319-12.425,10.319
		c-11.506,0-13.481-6.629-13.481-10.537H295.36z"/>
	<path class="protegosafe_logo_white_st1" d="M338.631,55.212c0,2.764,0.615,3.379,1.362,3.643v0.922h-6.629c-0.354-1.098-0.44-1.448-0.572-2.767
		c-1.405,1.452-3.382,3.382-7.555,3.382c-3.511,0-7.112-1.977-7.112-6.808c0-4.566,2.896-6.894,6.808-7.462l5.531-0.837
		c0.965-0.132,2.152-0.526,2.152-1.845c0-2.589-2.46-2.721-4.04-2.721c-3.075,0-3.601,1.888-3.776,3.25h-5.928
		c0.701-7.158,5.664-8.17,10.451-8.17c3.293,0,9.307,1.012,9.307,6.765V55.212z M332.617,48.404
		c-0.615,0.483-1.627,0.88-4.173,1.273c-2.285,0.397-4.173,0.969-4.173,3.515c0,2.152,1.67,2.81,2.857,2.81
		c2.721,0,5.488-1.756,5.488-4.612V48.404z"/>
	<path class="protegosafe_logo_white_st1" d="M351.117,59.778h-6.146V40.806h-3.382v-4.391h3.382v-1.888c0-4.831,2.635-6.672,6.851-6.672
		c1.798,0,2.632,0.043,3.161,0.086v4.963h-1.713c-2.11,0-2.152,0.658-2.152,2.589v0.922h3.997v4.391h-3.997V59.778z"/>
	<path class="protegosafe_logo_white_st1" d="M378.637,52.927c-1.627,5.621-6.282,7.466-10.276,7.466c-6.586,0-11.638-3.161-11.638-12.779
		c0-2.81,0.965-11.813,11.199-11.813c4.609,0,10.977,2.195,10.977,12.868v1.098h-16.025c0.175,1.756,0.526,5.707,5.488,5.707
		c1.713,0,3.468-0.876,3.951-2.546H378.637z M372.577,45.769c-0.35-3.776-2.767-4.916-4.745-4.916c-2.896,0-4.434,1.845-4.784,4.916
		H372.577z"/>
</g>
</svg>
