<?xml version="1.0" encoding="utf-8"?>
<!-- Generator: Adobe Illustrator 19.2.0, SVG Export Plug-In . SVG Version: 6.00 Build 0)  -->
<svg version="1.1" id="Warstwa_1" xmlns="http://www.w3.org/2000/svg" xmlns:xlink="http://www.w3.org/1999/xlink" x="0px" y="0px"
	 viewBox="0 0 280.4 85.5" style="enable-background:new 0 0 280.4 85.5;" xml:space="preserve">
<style type="text/css">
	.ProteGoSafe_white_st0{fill-rule:evenodd;clip-rule:evenodd;fill:#FFFFFF;}
	.ProteGoSafe_white_st1{fill:#FFFFFF;}
</style>
<g>
	<g>
		<path class="ProteGoSafe_white_st0" d="M48.3,30.5l-5.4,3.1l-5.4,3.1v-2.6H10.1c0,0-0.1,0-0.1,0c0,0,0,0.1,0,0.1v16.5c0,0,0,0.1,0,0.1
			c0,0,0.1,0,0.1,0h24.5v24.5c0,0,0,0.1,0,0.1c0,0,0.1,0,0.1,0h16.5c0,0,0.1,0,0.1,0c0,0,0-0.1,0-0.1V67l7.2-5.9v14.4
			c0,2-0.8,3.9-2.2,5.2c-1.3,1.3-3.2,2.2-5.2,2.2H34.8c-2,0-3.9-0.8-5.2-2.2c-1.3-1.3-2.2-3.2-2.2-5.2V58.2H10.1
			c-2,0-3.9-0.8-5.2-2.2c-1.3-1.3-2.2-3.2-2.2-5.2V34.2c0-2,0.8-3.9,2.2-5.2c1.3-1.3,3.2-2.2,5.2-2.2h27.5v-2.6l5.4,3.1L48.3,30.5z"
			/>
		<path class="ProteGoSafe_white_st0" d="M27.4,23.6v-14c0-2,0.8-3.9,2.2-5.2c1.3-1.3,3.2-2.2,5.2-2.2h16.5c2,0,3.9,0.8,5.2,2.2
			c1.3,1.3,2.2,3.2,2.2,5.2v17.3H76c2,0,3.9,0.8,5.2,2.2c1.3,1.3,2.2,3.2,2.2,5.2v16.5c0,2-0.8,3.9-2.2,5.2
			c-1.3,1.3-3.2,2.2-5.2,2.2H48.5v2.6l-5.4-3.1l-5.4-3.1l5.4-3.1l5.4-3.1v2.6H76c0,0,0.1,0,0.1,0c0,0,0-0.1,0-0.1V34.2
			c0,0,0-0.1,0-0.1c0,0-0.1,0-0.1,0H51.5V9.5c0,0,0-0.1,0-0.1c0,0-0.1,0-0.1,0H34.8c0,0-0.1,0-0.1,0c0,0,0,0.1,0,0.1v9L27.4,23.6z"
			/>
	</g>
	<g>
		<path class="ProteGoSafe_white_st1" d="M104.3,48.5c0.2,1.4,0.6,2.5,1.2,3.2c1.1,1.3,2.9,1.9,5.5,1.9c1.6,0,2.8-0.2,3.8-0.5c1.8-0.6,2.8-1.8,2.8-3.6
			c0-1-0.5-1.8-1.4-2.4c-0.9-0.5-2.3-1-4.3-1.4l-3.4-0.7c-3.3-0.7-5.6-1.5-6.8-2.4c-2.1-1.4-3.1-3.7-3.1-6.7c0-2.8,1-5.1,3.1-6.9
			s5-2.8,9-2.8c3.3,0,6.1,0.9,8.4,2.6s3.6,4.2,3.7,7.5h-6.2c-0.1-1.9-0.9-3.2-2.5-4c-1-0.5-2.3-0.8-3.9-0.8c-1.7,0-3.1,0.3-4.1,1
			c-1,0.7-1.5,1.6-1.5,2.8c0,1.1,0.5,1.9,1.5,2.5c0.6,0.4,2,0.8,4.1,1.3l5.4,1.3c2.4,0.6,4.2,1.3,5.4,2.2c1.8,1.5,2.8,3.6,2.8,6.3
			c0,2.8-1.1,5.2-3.3,7c-2.2,1.9-5.3,2.8-9.3,2.8c-4.1,0-7.3-0.9-9.6-2.8s-3.5-4.4-3.5-7.6H104.3z"/>
		<path class="ProteGoSafe_white_st1" d="M136.9,44.1c1.1-0.1,1.9-0.3,2.4-0.5c0.9-0.4,1.3-0.9,1.3-1.7c0-0.9-0.3-1.6-1-1.9c-0.7-0.4-1.6-0.5-2.9-0.5
			c-1.4,0-2.4,0.3-3,1c-0.4,0.5-0.7,1.2-0.9,2.1H127c0.1-2,0.7-3.6,1.7-4.9c1.6-2,4.3-3,8.2-3c2.5,0,4.8,0.5,6.7,1.5
			c2,1,2.9,2.9,2.9,5.6v10.5c0,0.7,0,1.6,0,2.6c0,0.8,0.2,1.3,0.4,1.6c0.2,0.3,0.5,0.5,0.9,0.7V58h-6.5c-0.2-0.5-0.3-0.9-0.4-1.3
			s-0.1-0.9-0.2-1.4c-0.8,0.9-1.8,1.7-2.9,2.3c-1.3,0.7-2.8,1.1-4.4,1.1c-2.1,0-3.8-0.6-5.2-1.8s-2-2.9-2-5c0-2.8,1.1-4.9,3.3-6.1
			c1.2-0.7,3-1.2,5.3-1.5L136.9,44.1z M140.6,46.9c-0.4,0.2-0.8,0.4-1.2,0.6c-0.4,0.1-0.9,0.3-1.6,0.4l-1.4,0.3
			c-1.3,0.2-2.2,0.5-2.8,0.8c-0.9,0.5-1.4,1.4-1.4,2.5c0,1,0.3,1.8,0.9,2.2s1.3,0.7,2.1,0.7c1.3,0,2.5-0.4,3.6-1.1s1.7-2.1,1.7-4.1
			V46.9z"/>
		<path class="ProteGoSafe_white_st1" d="M161.2,26.8c0.3,0,0.7,0.1,1.3,0.1v4.9c-0.3,0-0.9-0.1-1.7-0.1c-0.8,0-1.3,0.2-1.6,0.5
			c-0.3,0.4-0.5,0.8-0.5,1.2s0,1.1,0,1.9h3.9v4.2h-3.9V58h-5.9V39.6h-3.4v-4.2h3.3v-1.5c0-2.4,0.4-4.1,1.2-5.1
			c0.9-1.4,3-2.1,6.3-2.1C160.6,26.8,160.9,26.8,161.2,26.8z"/>
		<path class="ProteGoSafe_white_st1" d="M181,35.6c1.6,0.7,2.9,1.8,4,3.4c0.9,1.4,1.5,2.9,1.8,4.7c0.2,1.1,0.2,2.6,0.2,4.5h-16.7
			c0.1,2.3,0.9,3.9,2.4,4.8c0.9,0.6,2,0.9,3.3,0.9c1.4,0,2.5-0.3,3.3-1c0.5-0.4,0.9-0.9,1.2-1.6h6.1c-0.2,1.4-0.9,2.7-2.2,4.1
			c-2,2.2-4.9,3.3-8.6,3.3c-3,0-5.7-0.9-8.1-2.8c-2.3-1.9-3.5-4.9-3.5-9.2c0-4,1.1-7,3.2-9.1s4.8-3.2,8.2-3.2
			C177.6,34.5,179.4,34.9,181,35.6z M172,40.8c-0.8,0.9-1.4,2.1-1.6,3.5h10.3c-0.1-1.6-0.6-2.8-1.6-3.6c-1-0.8-2.1-1.2-3.5-1.2
			C174.1,39.5,172.9,39.9,172,40.8z"/>
		<path class="ProteGoSafe_white_st1" d="M195.1,48.5c0.2,1.4,0.6,2.5,1.2,3.2c1.1,1.3,2.9,1.9,5.5,1.9c1.6,0,2.8-0.2,3.8-0.5c1.8-0.6,2.8-1.8,2.8-3.6
			c0-1-0.5-1.8-1.4-2.4c-0.9-0.5-2.3-1-4.3-1.4l-3.4-0.7c-3.3-0.7-5.6-1.5-6.8-2.4c-2.1-1.4-3.1-3.7-3.1-6.7c0-2.8,1-5.1,3.1-6.9
			c2-1.8,5-2.8,9-2.8c3.3,0,6.1,0.9,8.4,2.6s3.6,4.2,3.7,7.5h-6.2c-0.1-1.9-0.9-3.2-2.5-4c-1-0.5-2.3-0.8-3.9-0.8
			c-1.7,0-3.1,0.3-4.1,1c-1,0.7-1.5,1.6-1.5,2.8c0,1.1,0.5,1.9,1.5,2.5c0.6,0.4,2,0.8,4.1,1.3l5.4,1.3c2.4,0.6,4.2,1.3,5.4,2.2
			c1.8,1.5,2.8,3.6,2.8,6.3c0,2.8-1.1,5.2-3.3,7c-2.2,1.9-5.3,2.8-9.3,2.8c-4.1,0-7.3-0.9-9.6-2.8c-2.3-1.8-3.5-4.4-3.5-7.6H195.1z"
			/>
		<path class="ProteGoSafe_white_st1" d="M227.7,44.1c1.1-0.1,1.9-0.3,2.4-0.5c0.9-0.4,1.3-0.9,1.3-1.7c0-0.9-0.3-1.6-1-1.9c-0.7-0.4-1.6-0.5-2.9-0.5
			c-1.4,0-2.4,0.3-3,1c-0.4,0.5-0.7,1.2-0.9,2.1h-5.8c0.1-2,0.7-3.6,1.7-4.9c1.6-2,4.3-3,8.2-3c2.5,0,4.8,0.5,6.7,1.5
			c2,1,2.9,2.9,2.9,5.6v10.5c0,0.7,0,1.6,0,2.6c0,0.8,0.2,1.3,0.4,1.6c0.2,0.3,0.5,0.5,0.9,0.7V58h-6.5c-0.2-0.5-0.3-0.9-0.4-1.3
			s-0.1-0.9-0.2-1.4c-0.8,0.9-1.8,1.7-2.9,2.3c-1.3,0.7-2.8,1.1-4.4,1.1c-2.1,0-3.8-0.6-5.2-1.8s-2-2.9-2-5c0-2.8,1.1-4.9,3.3-6.1
			c1.2-0.7,3-1.2,5.3-1.5L227.7,44.1z M231.4,46.9c-0.4,0.2-0.8,0.4-1.2,0.6c-0.4,0.1-0.9,0.3-1.6,0.4l-1.4,0.3
			c-1.3,0.2-2.2,0.5-2.8,0.8c-0.9,0.5-1.4,1.4-1.4,2.5c0,1,0.3,1.8,0.9,2.2s1.3,0.7,2.1,0.7c1.3,0,2.5-0.4,3.6-1.1s1.7-2.1,1.7-4.1
			V46.9z"/>
		<path class="ProteGoSafe_white_st1" d="M252,26.8c0.3,0,0.7,0.1,1.3,0.1v4.9c-0.3,0-0.9-0.1-1.7-0.1c-0.8,0-1.3,0.2-1.6,0.5
			c-0.3,0.4-0.5,0.8-0.5,1.2s0,1.1,0,1.9h3.9v4.2h-3.9V58h-5.9V39.6h-3.4v-4.2h3.3v-1.5c0-2.4,0.4-4.1,1.2-5.1
			c0.9-1.4,3-2.1,6.3-2.1C251.4,26.8,251.7,26.8,252,26.8z"/>
		<path class="ProteGoSafe_white_st1" d="M271.8,35.6c1.6,0.7,2.9,1.8,4,3.4c0.9,1.4,1.5,2.9,1.8,4.7c0.2,1.1,0.2,2.6,0.2,4.5h-16.7
			c0.1,2.3,0.9,3.9,2.4,4.8c0.9,0.6,2,0.9,3.3,0.9c1.4,0,2.5-0.3,3.3-1c0.5-0.4,0.9-0.9,1.2-1.6h6.1c-0.2,1.4-0.9,2.7-2.2,4.1
			c-2,2.2-4.9,3.3-8.6,3.3c-3,0-5.7-0.9-8.1-2.8c-2.3-1.9-3.5-4.9-3.5-9.2c0-4,1.1-7,3.2-9.1s4.8-3.2,8.2-3.2
			C268.4,34.5,270.2,34.9,271.8,35.6z M262.9,40.8c-0.8,0.9-1.4,2.1-1.6,3.5h10.3c-0.1-1.6-0.6-2.8-1.6-3.6c-1-0.8-2.1-1.2-3.5-1.2
			C264.9,39.5,263.7,39.9,262.9,40.8z"/>
	</g>
</g>
</svg>
