<svg xmlns="http://www.w3.org/2000/svg" width="90.71" height="38.263" viewBox="0 0 90.71 38.263"><defs><style>.a_stop_covid_logo{fill:#fff;}</style></defs><path class="a_stop_covid_logo" d="M255.279,458.627a1.75,1.75,0,0,1-.506.26,1.95,1.95,0,0,1-.623.1,4.571,4.571,0,0,1-1.537-.252,4.872,4.872,0,0,1-1.448-.87l-.065-.054-1.853,1.868.076.062a10.934,10.934,0,0,0,1.1.784,6.15,6.15,0,0,0,1.114.533,6.856,6.856,0,0,0,1.24.3,10.578,10.578,0,0,0,1.481.094,4.721,4.721,0,0,0,1.7-.3,4.347,4.347,0,0,0,1.33-.791,3.664,3.664,0,0,0,.876-1.148,3.15,3.15,0,0,0,.316-1.377,4.145,4.145,0,0,0-.21-1.353,3.171,3.171,0,0,0-.645-1.087,4.579,4.579,0,0,0-1.121-.879,9.468,9.468,0,0,0-1.63-.728c-.478-.172-.891-.337-1.225-.489a4.226,4.226,0,0,1-.774-.445,1.359,1.359,0,0,1-.4-.438,1.092,1.092,0,0,1-.116-.5.96.96,0,0,1,.124-.466,1.351,1.351,0,0,1,.331-.4,1.659,1.659,0,0,1,.5-.274,1.892,1.892,0,0,1,.636-.106,3.45,3.45,0,0,1,1.33.236,3.288,3.288,0,0,1,1.023.679l.063.063,1.823-1.838-.068-.061a5.393,5.393,0,0,0-1.786-1.116,7.037,7.037,0,0,0-2.464-.382,4.862,4.862,0,0,0-1.638.271,4.2,4.2,0,0,0-1.33.759,3.592,3.592,0,0,0-.9,1.183,3.474,3.474,0,0,0-.331,1.509,3.405,3.405,0,0,0,.3,1.478,3.565,3.565,0,0,0,.787,1.092,4.773,4.773,0,0,0,1.135.794,13.3,13.3,0,0,0,1.336.575c.521.186.953.357,1.28.5a4.178,4.178,0,0,1,.766.436,1.237,1.237,0,0,1,.365.423,1.162,1.162,0,0,1,.1.493.93.93,0,0,1-.123.472A1.231,1.231,0,0,1,255.279,458.627Z" transform="translate(-213.574 -447.835)"/><path class="a_stop_covid_logo" d="M261.381,461.18h2.644V450.831h3.467V448.49h-9.577v2.341h3.466Z" transform="translate(-212.252 -447.801)"/><path class="a_stop_covid_logo" d="M268.409,459.53a6.985,6.985,0,0,0,2.152,1.4,6.86,6.86,0,0,0,5.217,0,7.033,7.033,0,0,0,2.141-1.4,6.594,6.594,0,0,0,1.454-2.1,6.514,6.514,0,0,0,0-5.153,6.715,6.715,0,0,0-1.453-2.095,6.816,6.816,0,0,0-2.144-1.406,6.957,6.957,0,0,0-5.216,0,6.879,6.879,0,0,0-2.152,1.4,6.6,6.6,0,0,0-1.454,2.094,6.392,6.392,0,0,0-.531,2.591,6.306,6.306,0,0,0,.531,2.579A6.668,6.668,0,0,0,268.409,459.53Zm.948-6.255a4.192,4.192,0,0,1,.885-1.3,4.316,4.316,0,0,1,1.316-.889,3.988,3.988,0,0,1,1.615-.328,3.9,3.9,0,0,1,1.6.33,4.253,4.253,0,0,1,1.318.887,4.186,4.186,0,0,1,.883,1.3,4.025,4.025,0,0,1,0,3.163,4.125,4.125,0,0,1-.883,1.31,4.3,4.3,0,0,1-1.318.889,3.944,3.944,0,0,1-1.6.328,4,4,0,0,1-1.615-.328,4.288,4.288,0,0,1-1.316-.889,4.131,4.131,0,0,1-.885-1.31,4.038,4.038,0,0,1,0-3.163Z" transform="translate(-210.955 -447.833)"/><path class="a_stop_covid_logo" d="M282.224,457.1h1.986a4.472,4.472,0,0,0,1.7-.33,4.262,4.262,0,0,0,1.4-.912,4.343,4.343,0,0,0,.94-1.373,4.227,4.227,0,0,0,.346-1.7,4.164,4.164,0,0,0-.346-1.7,4.314,4.314,0,0,0-.938-1.36,4.383,4.383,0,0,0-1.4-.9,4.49,4.49,0,0,0-1.7-.328h-4.6v12.69h2.611Zm0-6.595h1.525a2.149,2.149,0,0,1,.875.181,2.385,2.385,0,0,1,.71.483,2.223,2.223,0,0,1,.649,1.582,2.258,2.258,0,0,1-.174.88,2.418,2.418,0,0,1-.477.733,2.342,2.342,0,0,1-.71.505,2.051,2.051,0,0,1-.872.186h-1.525Z" transform="translate(-208.944 -447.801)"/><path class="a_stop_covid_logo" d="M261.359,473l.051-.062-1.83-1.876-.062.09a4.575,4.575,0,0,1-1.462,1.361,3.927,3.927,0,0,1-2.013.513,4.064,4.064,0,0,1-1.619-.33,4.339,4.339,0,0,1-1.332-.89,4.226,4.226,0,0,1-.9-1.306,3.828,3.828,0,0,1-.331-1.568,3.882,3.882,0,0,1,.331-1.586,4.258,4.258,0,0,1,.9-1.307,4.332,4.332,0,0,1,1.332-.888,4.138,4.138,0,0,1,3.6.167,4.386,4.386,0,0,1,1.468,1.314l.063.09,1.755-1.8.058-.056-.052-.063a6.943,6.943,0,0,0-2.267-1.778,6.623,6.623,0,0,0-3-.686,6.973,6.973,0,0,0-2.655.51,6.612,6.612,0,0,0-3.609,3.5,6.561,6.561,0,0,0,0,5.167,6.613,6.613,0,0,0,1.449,2.09,6.917,6.917,0,0,0,4.816,1.923,6.667,6.667,0,0,0,3-.683A7.162,7.162,0,0,0,261.359,473Z" transform="translate(-213.574 -445.719)"/><path class="a_stop_covid_logo" d="M266.982,462.336a6.87,6.87,0,0,0-4.768,1.907,6.59,6.59,0,0,0-1.456,2.1,6.382,6.382,0,0,0-.532,2.593,6.308,6.308,0,0,0,.532,2.581,6.633,6.633,0,0,0,1.456,2.09,6.879,6.879,0,0,0,2.154,1.406,6.844,6.844,0,0,0,5.222,0,6.95,6.95,0,0,0,2.146-1.406,6.575,6.575,0,0,0,1.454-2.1,6.492,6.492,0,0,0,0-5.16,6.723,6.723,0,0,0-1.454-2.1,6.8,6.8,0,0,0-4.754-1.914Zm3.8,5.01a4.017,4.017,0,0,1,0,3.166,4.141,4.141,0,0,1-.885,1.313,4.257,4.257,0,0,1-1.317.891,3.962,3.962,0,0,1-1.6.329,4.006,4.006,0,0,1-1.616-.329,4.285,4.285,0,0,1-1.317-.891,4.141,4.141,0,0,1-.885-1.312,4.057,4.057,0,0,1,0-3.166,4.2,4.2,0,0,1,.885-1.3,4.312,4.312,0,0,1,1.317-.89,4.026,4.026,0,0,1,1.616-.33,3.946,3.946,0,0,1,1.6.332,4.25,4.25,0,0,1,1.317.888A4.2,4.2,0,0,1,270.785,467.346Z" transform="translate(-211.9 -445.719)"/><path class="a_stop_covid_logo" d="M283.592,462.662l.047-.121h-2.864l-3.159,8.639-3.2-8.639h-2.9l4.917,12.662.022.058h2.353Z" transform="translate(-210.178 -445.688)"/><rect class="a_stop_covid_logo" width="2.613" height="12.705" transform="translate(74.574 16.868)"/><path class="a_stop_covid_logo" d="M298.059,466.442a6.21,6.21,0,0,0-1.242-2.02,6.028,6.028,0,0,0-1.905-1.371,5.762,5.762,0,0,0-2.419-.51h-5.335v12.721h5.335a5.808,5.808,0,0,0,2.419-.5,5.886,5.886,0,0,0,1.905-1.37,6.349,6.349,0,0,0,1.242-2.02,7.05,7.05,0,0,0,0-4.929Zm-2.5,4.066a3.922,3.922,0,0,1-.8,1.318,3.663,3.663,0,0,1-1.267.872,4.29,4.29,0,0,1-1.684.315h-2.031v-8.379H291.8a4.263,4.263,0,0,1,1.714.33,3.686,3.686,0,0,1,1.282.9,3.994,3.994,0,0,1,.8,1.341,4.559,4.559,0,0,1,.263,1.631A4.99,4.99,0,0,1,295.557,470.508Z" transform="translate(-207.794 -445.688)"/><path class="a_stop_covid_logo" d="M246.656,458.16h-6.891v-7.487a2.782,2.782,0,0,0-2.785-2.781h-7.517a2.781,2.781,0,0,0-2.784,2.781v6.492l3.215-2.525v-2.852a.552.552,0,0,1,.552-.552H236a.552.552,0,0,1,.552.552v9.529h.007v.051h8.981a.553.553,0,0,1,.553.551v5.542a.553.553,0,0,1-.553.553H235.248v-.959l-3.962,2.6,3.962,2.592v-1.019h11.408a2.781,2.781,0,0,0,2.784-2.779v-7.5A2.782,2.782,0,0,0,246.656,458.16Z" transform="translate(-217.015 -447.891)"/><path class="a_stop_covid_logo" d="M237.84,476.122a.551.551,0,0,1-.552.551h-5.553a.552.552,0,0,1-.552-.551v-9.53h-.006v-.052H222.2a.552.552,0,0,1-.553-.552v-5.539a.554.554,0,0,1,.553-.554h10.289v.959l3.961-2.593-3.961-2.6v1.023H221.077a2.781,2.781,0,0,0-2.784,2.779v7.508a2.781,2.781,0,0,0,2.784,2.777h6.889v7.489a2.782,2.782,0,0,0,2.783,2.779h7.521a2.783,2.783,0,0,0,2.787-2.779v-6.494l-3.218,2.526Z" transform="translate(-218.293 -446.722)"/><path class="a_stop_covid_logo" d="M251.419,476.621h-2.182V481.7h1.053V479.87h1.06a1.931,1.931,0,0,0,1.273-.37,1.576,1.576,0,0,0,.446-1.269,1.539,1.539,0,0,0-.448-1.218A1.765,1.765,0,0,0,251.419,476.621Zm.4,2.193a.815.815,0,0,1-.567.182h-.957V477.5h.957a.878.878,0,0,1,.567.166.708.708,0,0,1,.2.564A.746.746,0,0,1,251.814,478.814Z" transform="translate(-213.575 -443.572)"/><path class="a_stop_covid_logo" d="M255.275,477.691a1.056,1.056,0,0,0-.716.235,2.009,2.009,0,0,0-.4.512v-.653h-.937v3.751h.99v-1.792a1.5,1.5,0,0,1,.114-.669.814.814,0,0,1,.8-.384h.119c.048.006.1.007.164.014v-1c-.043,0-.069,0-.083-.007A.293.293,0,0,0,255.275,477.691Z" transform="translate(-212.967 -443.411)"/><path class="a_stop_covid_logo" d="M257.34,477.666a1.739,1.739,0,0,0-1.446.6,2.326,2.326,0,0,0,0,2.819,2.079,2.079,0,0,0,2.89,0,2.33,2.33,0,0,0,0-2.819A1.732,1.732,0,0,0,257.34,477.666Zm.659,2.871a.869.869,0,0,1-1.328,0,1.741,1.741,0,0,1,0-1.739.879.879,0,0,1,1.328,0,1.771,1.771,0,0,1,0,1.739Z" transform="translate(-212.633 -443.415)"/><path class="a_stop_covid_logo" d="M260.525,476.891h-.973v1.047h-.524v.7h.524v2.31a.714.714,0,0,0,.164.519,1.259,1.259,0,0,0,.953.243l.464-.017v-.733c-.031,0-.063,0-.1,0s-.065,0-.095,0a.648.648,0,0,1-.36-.059.452.452,0,0,1-.058-.288v-1.982h.608v-.7h-.608Z" transform="translate(-212.083 -443.531)"/><path class="a_stop_covid_logo" d="M264.543,478.413a1.519,1.519,0,0,0-.651-.552,2.108,2.108,0,0,0-.883-.176,1.814,1.814,0,0,0-1.346.52,2.027,2.027,0,0,0-.516,1.493,1.813,1.813,0,0,0,.573,1.5,2.05,2.05,0,0,0,1.325.461,1.825,1.825,0,0,0,1.412-.546,1.236,1.236,0,0,0,.368-.679h-1a.811.811,0,0,1-.2.256.825.825,0,0,1-.546.175,1,1,0,0,1-.542-.141.91.91,0,0,1-.393-.793h2.738a4.957,4.957,0,0,0-.032-.744A1.864,1.864,0,0,0,264.543,478.413Zm-2.383.874a1.028,1.028,0,0,1,.263-.582.784.784,0,0,1,.587-.213.848.848,0,0,1,.583.2.8.8,0,0,1,.26.59Z" transform="translate(-211.76 -443.412)"/><path class="a_stop_covid_logo" d="M267.277,479.835h1.175a1.322,1.322,0,0,1-.423.805,1.25,1.25,0,0,1-.872.3,1.408,1.408,0,0,1-.974-.389,1.72,1.72,0,0,1-.429-1.323,2.106,2.106,0,0,1,.4-1.391,1.272,1.272,0,0,1,1.01-.46,1.442,1.442,0,0,1,.581.112.994.994,0,0,1,.591.728h1.045A1.834,1.834,0,0,0,268.7,477a2.355,2.355,0,0,0-1.557-.492,2.311,2.311,0,0,0-1.8.745,2.807,2.807,0,0,0-.683,1.975,2.659,2.659,0,0,0,.675,1.919,2.155,2.155,0,0,0,1.656.7,1.966,1.966,0,0,0,1.031-.257,2.451,2.451,0,0,0,.555-.508l.106.634h.7v-2.723h-2.117Z" transform="translate(-211.223 -443.589)"/><path class="a_stop_covid_logo" d="M271.924,476.486a2.215,2.215,0,0,0-1.666.591,2.691,2.691,0,0,0-.773,2.094,2.743,2.743,0,0,0,.773,2.095,2.645,2.645,0,0,0,3.331,0,2.737,2.737,0,0,0,.77-2.095,2.686,2.686,0,0,0-.77-2.094A2.21,2.21,0,0,0,271.924,476.486Zm1,4.007a1.32,1.32,0,0,1-2.011,0,2.511,2.511,0,0,1,0-2.642,1.32,1.32,0,0,1,2.011,0,2.537,2.537,0,0,1,0,2.642Z" transform="translate(-210.488 -443.592)"/><path class="a_stop_covid_logo" d="M278.784,478.827l-.891-.209a2.988,2.988,0,0,1-.675-.212.433.433,0,0,1-.248-.406.521.521,0,0,1,.251-.461,1.212,1.212,0,0,1,.672-.163,1.4,1.4,0,0,1,.632.125.726.726,0,0,1,.411.651h1.02a1.512,1.512,0,0,0-.6-1.235,2.267,2.267,0,0,0-1.386-.424,2.147,2.147,0,0,0-1.477.452,1.458,1.458,0,0,0-.5,1.132,1.239,1.239,0,0,0,.514,1.1,3.44,3.44,0,0,0,1.114.389l.551.122a2.331,2.331,0,0,1,.7.238.429.429,0,0,1,.225.385.592.592,0,0,1-.454.589,1.986,1.986,0,0,1-.625.084,1.115,1.115,0,0,1-.9-.315,1.019,1.019,0,0,1-.2-.516h-1.012a1.5,1.5,0,0,0,.574,1.245,2.49,2.49,0,0,0,1.578.452,2.268,2.268,0,0,0,1.524-.461,1.446,1.446,0,0,0,.538-1.155,1.239,1.239,0,0,0-.454-1.035A2.25,2.25,0,0,0,278.784,478.827Z" transform="translate(-209.51 -443.591)"/><path class="a_stop_covid_logo" d="M283.25,481.017c0-.17-.007-.316-.007-.434V478.86a.936.936,0,0,0-.484-.921,2.388,2.388,0,0,0-1.1-.247,1.622,1.622,0,0,0-1.345.5,1.44,1.44,0,0,0-.278.809h.951a.689.689,0,0,1,.139-.346.624.624,0,0,1,.5-.173,1,1,0,0,1,.478.09.329.329,0,0,1,.164.316.3.3,0,0,1-.213.282,1.606,1.606,0,0,1-.392.085l-.337.043a2.336,2.336,0,0,0-.869.238,1.075,1.075,0,0,0-.539,1,1.032,1.032,0,0,0,.335.823,1.245,1.245,0,0,0,.847.29,1.45,1.45,0,0,0,.721-.179,1.942,1.942,0,0,0,.471-.378c.009.086.016.162.029.228a1.111,1.111,0,0,0,.063.215h1.067v-.144a.41.41,0,0,1-.145-.114A.553.553,0,0,1,283.25,481.017Zm-.989-.939a.776.776,0,0,1-.28.675,1.029,1.029,0,0,1-.594.188.539.539,0,0,1-.345-.113.433.433,0,0,1-.144-.363.455.455,0,0,1,.233-.419,1.5,1.5,0,0,1,.452-.132l.224-.043a1.8,1.8,0,0,0,.265-.066,1.093,1.093,0,0,0,.189-.1Z" transform="translate(-208.898 -443.411)"/><path class="a_stop_covid_logo" d="M284.74,477.668a.314.314,0,0,1,.074-.2.326.326,0,0,1,.271-.086c.129,0,.221.009.275.016v-.8c-.085-.007-.153-.011-.206-.014s-.106-.007-.167-.007c-.546,0-.89.113-1.034.337a1.275,1.275,0,0,0-.2.832v.24h-.538v.691h.554V481.7h.974v-3.026h.647v-.691h-.647Z" transform="translate(-208.396 -443.579)"/><path class="a_stop_covid_logo" d="M288.727,478.413a1.524,1.524,0,0,0-.648-.552,2.128,2.128,0,0,0-.886-.176,1.812,1.812,0,0,0-1.345.52,2.028,2.028,0,0,0-.517,1.493,1.82,1.82,0,0,0,.573,1.5,2.054,2.054,0,0,0,1.324.461,1.831,1.831,0,0,0,1.415-.546,1.206,1.206,0,0,0,.364-.679h-1a.75.75,0,0,1-.2.256.825.825,0,0,1-.544.175,1,1,0,0,1-.544-.141.9.9,0,0,1-.393-.793h2.738a4.655,4.655,0,0,0-.032-.744A1.835,1.835,0,0,0,288.727,478.413Zm-2.381.874a1.019,1.019,0,0,1,.26-.582.787.787,0,0,1,.587-.213.86.86,0,0,1,.585.2.813.813,0,0,1,.26.59Z" transform="translate(-208.072 -443.412)"/></svg>
